M48
; DRILL file {KiCad (5.1.5-0-10_14)} date 2020 November 25, Wednesday 20:39:03
; FORMAT={-:-/ absolute / metric / decimal}
; #@! TF.CreationDate,2020-11-25T20:39:03+01:00
; #@! TF.GenerationSoftware,Kicad,Pcbnew,(5.1.5-0-10_14)
; #@! TF.FileFunction,Plated,1,4,PTH
FMAT,2
METRIC
T1C0.300
T2C0.400
T3C0.550
T4C0.650
T5C0.850
T6C1.000
%
G90
G05
T1
X64.643Y-126.492
X65.287Y-97.742
X65.913Y-122.809
X66.04Y-126.492
X66.548Y-99.314
X66.675Y-98.171
X66.929Y-122.809
X67.085Y-119.324
X67.585Y-120.074
X67.818Y-117.221
X67.945Y-126.492
X68.085Y-119.324
X68.58Y-117.602
X68.585Y-120.074
X68.589Y-98.25
X69.085Y-119.324
X69.215Y-126.492
X69.342Y-108.204
X70.485Y-127.127
X71.129Y-125.047
X71.494Y-107.696
X71.51Y-121.999
X72.009Y-118.574
X72.009Y-119.824
X72.018Y-116.919
X72.272Y-127.46
X72.585Y-119.253
X72.907Y-116.919
X73.025Y-114.554
X73.66Y-111.506
X73.669Y-117.256
X74.549Y-109.347
X74.549Y-107.061
X74.558Y-116.989
X75.184Y-120.015
X75.438Y-107.696
X75.438Y-112.522
X75.438Y-118.237
X76.073Y-97.409
X76.073Y-98.425
X77.089Y-97.409
X77.089Y-98.425
X77.089Y-106.68
X77.343Y-110.744
X77.978Y-107.569
X78.105Y-97.409
X78.105Y-98.425
X78.105Y-102.489
X78.232Y-118.837
X78.232Y-120.269
X79.248Y-102.489
X79.384Y-124.793
X79.511Y-94.948
X80.175Y-102.489
X80.4Y-121.364
X80.654Y-125.809
X81.289Y-94.948
X81.289Y-121.364
X81.416Y-106.251
X82.178Y-121.364
X82.55Y-115.824
X83.067Y-121.364
X83.185Y-102.743
X84.201Y-101.219
X84.836Y-102.743
X84.836Y-121.92
X85.09Y-110.109
X85.344Y-106.807
X85.725Y-119.84
X85.725Y-120.729
X85.988Y-125.936
X86.36Y-102.743
X86.36Y-104.394
X86.487Y-121.92
X86.741Y-119.761
X86.868Y-116.459
X87.131Y-95.202
X87.376Y-110.109
X87.383Y-113.156
X87.757Y-104.902
X88.011Y-106.807
X88.02Y-113.871
X88.12Y-128.09
X88.147Y-117.046
X88.773Y-128.905
X88.782Y-95.202
X88.782Y-117.808
X88.783Y-101.219
X89.544Y-124.793
X90.17Y-105.502
X90.554Y-109.867
X90.56Y-95.202
X90.56Y-124.158
X90.932Y-111.506
X91.313Y-94.742
X91.313Y-115.196
X91.567Y-112.491
X91.694Y-99.949
X91.694Y-109.474
X91.821Y-105.626
X93.472Y-105.626
X93.853Y-114.554
X94.869Y-108.458
X95.513Y-99.266
X95.885Y-108.839
X95.923Y-114.496
X96.647Y-104.902
X97.536Y-108.458
X98.044Y-117.348
X98.298Y-109.22
X98.425Y-111.506
X98.425Y-112.491
X98.942Y-95.456
X99.069Y-109.68
X99.577Y-101.806
X99.704Y-108.918
X100.329Y-113.116
X100.593Y-113.871
X100.847Y-110.315
X101.981Y-101.219
X101.981Y-102.616
X102.108Y-106.969
X102.117Y-117.808
X102.664Y-117.122
X102.743Y-100.584
X102.743Y-101.981
X102.743Y-103.378
X102.879Y-113.363
X102.879Y-114.633
X103.251Y-117.856
X104.149Y-113.363
X104.149Y-114.633
X104.276Y-108.918
X104.648Y-117.856
X105.038Y-109.68
X105.283Y-117.094
X106.181Y-122.507
X107.188Y-106.876
X107.188Y-109.855
X107.188Y-111.633
X108.077Y-112.141
X108.086Y-121.872
X109.728Y-112.141
X109.864Y-101.679
X110.617Y-117.856
X110.617Y-118.745
X111.633Y-116.205
X111.633Y-117.094
X111.896Y-128.73
X112.658Y-106.251
X112.658Y-108.156
X112.912Y-128.857
X113.03Y-119.253
X113.166Y-104.219
X120.278Y-102.695
X120.278Y-126.698
X123.58Y-105.235
X125.739Y-127.714
X129.93Y-121.554
X130.184Y-127.079
X131.454Y-128.349
X131.835Y-127.079
X132.745Y-127.418
X133.613Y-128.359
X134.375Y-82.629
X136.407Y-127.909
X136.534Y-81.613
X138.185Y-127.909
X138.693Y-80.724
X139.709Y-92.408
X139.709Y-126.952
X142.757Y-127.079
X144.154Y-127.46
X144.406Y-128.359
X146.186Y-128.603
X148.98Y-127.968
X149.107Y-89.614
X150.758Y-127.968
X151.266Y-81.613
X152.155Y-117.173
X152.282Y-126.19
X153.679Y-127.079
X154.695Y-126.444
X155.829Y-128.397
X156.092Y-125.047
X156.981Y-129.238
X157.489Y-79.835
X160.283Y-127.079
X162.823Y-125.809
X163.458Y-81.74
X165.236Y-119.078
X165.236Y-121.491
X165.236Y-126.444
X166.379Y-97.615
X166.379Y-119.078
X166.379Y-121.491
X166.379Y-126.444
X166.887Y-128.984
X167.522Y-119.078
X167.522Y-121.491
X167.522Y-126.444
X168.03Y-128.984
X168.538Y-121.491
X168.538Y-126.444
X169.173Y-128.984
X169.554Y-100.155
X169.681Y-121.491
X169.681Y-126.444
X170.189Y-61.674
X170.824Y-121.491
X170.824Y-126.444
T2
X77.089Y-120.904
X100.33Y-99.568
X100.584Y-120.65
X100.584Y-121.92
X109.61Y-125.428
X111.506Y-113.792
X111.506Y-114.808
T4
X72.272Y-123.015
X72.272Y-124.285
X73.542Y-123.015
X73.542Y-124.285
X74.812Y-123.015
X74.812Y-124.285
X76.082Y-123.015
X76.082Y-124.285
X77.352Y-123.015
X77.352Y-124.285
T6
X90.433Y-119.967
X92.973Y-119.967
T3
G00X100.625Y-127.307
M15
G01X100.625Y-127.957
M16
G05
G00X108.375Y-127.307
M15
G01X108.375Y-127.957
M16
G05
T5
G00X100.775Y-123.557
M15
G01X100.775Y-124.107
M16
G05
G00X108.225Y-123.557
M15
G01X108.225Y-124.107
M16
G05
T0
M30
