G04 #@! TF.GenerationSoftware,KiCad,Pcbnew,(5.1.5-0-10_14)*
G04 #@! TF.CreationDate,2020-11-25T20:38:56+01:00*
G04 #@! TF.ProjectId,fl-remote,666c2d72-656d-46f7-9465-2e6b69636164,rev?*
G04 #@! TF.SameCoordinates,Original*
G04 #@! TF.FileFunction,Copper,L4,Bot*
G04 #@! TF.FilePolarity,Positive*
%FSLAX46Y46*%
G04 Gerber Fmt 4.6, Leading zero omitted, Abs format (unit mm)*
G04 Created by KiCad (PCBNEW (5.1.5-0-10_14)) date 2020-11-25 20:38:56*
%MOMM*%
%LPD*%
G04 APERTURE LIST*
%ADD10C,0.100000*%
%ADD11O,1.150000X1.800000*%
%ADD12O,1.450000X2.000000*%
%ADD13O,1.000000X1.000000*%
%ADD14R,1.000000X1.000000*%
%ADD15O,1.700000X1.700000*%
%ADD16R,1.700000X1.700000*%
%ADD17C,0.600000*%
%ADD18C,0.800000*%
%ADD19C,0.200000*%
%ADD20C,0.500000*%
%ADD21C,0.250000*%
%ADD22C,0.300000*%
%ADD23C,0.254000*%
G04 APERTURE END LIST*
D10*
G36*
X145483950Y-97465290D02*
G01*
X146382090Y-97562580D01*
X147266520Y-97747230D01*
X148128590Y-98017740D01*
X148959680Y-98371310D01*
X149752420Y-98804890D01*
X150498920Y-99313910D01*
X151191580Y-99893790D01*
X151824290Y-100538690D01*
X152390710Y-101242270D01*
X152885510Y-101998430D01*
X153303840Y-102799040D01*
X153641410Y-103636990D01*
X153895410Y-104504140D01*
X154063300Y-105391870D01*
X154143310Y-106291540D01*
X154149920Y-106743410D01*
X154139000Y-107189940D01*
X154051620Y-108078680D01*
X153877380Y-108954730D01*
X153618040Y-109809190D01*
X153276410Y-110634180D01*
X152855280Y-111421830D01*
X152359220Y-112164530D01*
X151792800Y-112854900D01*
X151161100Y-113486340D01*
X150470730Y-114052760D01*
X149728290Y-114549080D01*
X148940630Y-114969960D01*
X148115640Y-115311590D01*
X147260930Y-115570920D01*
X146385140Y-115745170D01*
X145496390Y-115832540D01*
X145049860Y-115843460D01*
X144603330Y-115832540D01*
X143714580Y-115745170D01*
X142838790Y-115570920D01*
X141984080Y-115311590D01*
X141159090Y-114969960D01*
X140371430Y-114549080D01*
X139628990Y-114052760D01*
X138938620Y-113486340D01*
X138307180Y-112854900D01*
X137740760Y-112164530D01*
X137244690Y-111422090D01*
X136823560Y-110634430D01*
X136481930Y-109809440D01*
X136222600Y-108954980D01*
X136048350Y-108078940D01*
X135960980Y-107190190D01*
X135950060Y-106743660D01*
X135955900Y-106292810D01*
X136033880Y-105394410D01*
X136199740Y-104507950D01*
X136451450Y-103642070D01*
X136786990Y-102805140D01*
X137202780Y-102005040D01*
X137695290Y-101249640D01*
X138259170Y-100546060D01*
X138889340Y-99901150D01*
X139579720Y-99321020D01*
X140323680Y-98811490D01*
X141114130Y-98377410D01*
X141943190Y-98022570D01*
X142802980Y-97751040D01*
X143685370Y-97564860D01*
X144581740Y-97466310D01*
X145032330Y-97450050D01*
X145483950Y-97465290D01*
G37*
G36*
X147445080Y-88039350D02*
G01*
X148746580Y-88179050D01*
X150034860Y-88411460D01*
X151303090Y-88735310D01*
X152545150Y-89148830D01*
X153754440Y-89649710D01*
X154925130Y-90235690D01*
X156050850Y-90903460D01*
X157126040Y-91650220D01*
X158145340Y-92471400D01*
X159103430Y-93363450D01*
X159995470Y-94321540D01*
X160816910Y-95340840D01*
X161563420Y-96416020D01*
X161830620Y-96866360D01*
X161906060Y-96966440D01*
X161991150Y-97112740D01*
X162203750Y-96990060D01*
X162214930Y-96987770D01*
X162231690Y-96976600D01*
X162250740Y-96969990D01*
X162425490Y-96869160D01*
X162432100Y-96863570D01*
X162554520Y-96891510D01*
X162560110Y-96901410D01*
X162877100Y-97463520D01*
X163437940Y-98626330D01*
X163923080Y-99822670D01*
X164330240Y-101047460D01*
X164658150Y-102296120D01*
X164905290Y-103563070D01*
X165070650Y-104843230D01*
X165153450Y-106131520D01*
X165153450Y-107430730D01*
X165068360Y-108735780D01*
X164898690Y-110032200D01*
X164645200Y-111315150D01*
X164308900Y-112578800D01*
X163891330Y-113817810D01*
X163393740Y-115027360D01*
X162818940Y-116201860D01*
X162168950Y-117336480D01*
X161446320Y-118426390D01*
X160654600Y-119467030D01*
X159797100Y-120454330D01*
X158877110Y-121383460D01*
X157898450Y-122251120D01*
X156865690Y-123053000D01*
X155783140Y-123786300D01*
X154654870Y-124447710D01*
X153486220Y-125034450D01*
X152282000Y-125543980D01*
X151047050Y-125974000D01*
X149786960Y-126323000D01*
X148506550Y-126589190D01*
X147211650Y-126771810D01*
X145907870Y-126869860D01*
X145246710Y-126876460D01*
X145227910Y-126860460D01*
X145157810Y-126781470D01*
X145158830Y-126776130D01*
X145158830Y-126539150D01*
X145167720Y-126517810D01*
X145195400Y-126489620D01*
X145221060Y-126478700D01*
X145226140Y-126477680D01*
X145242140Y-126477170D01*
X145248740Y-126477170D01*
X145250010Y-126476920D01*
X146221560Y-126442120D01*
X147538040Y-126300640D01*
X148841320Y-126065440D01*
X150124270Y-125738030D01*
X151380810Y-125319950D01*
X152604330Y-124813220D01*
X153788480Y-124220380D01*
X154927160Y-123544740D01*
X156015040Y-122789350D01*
X157046030Y-121958510D01*
X158015290Y-121056050D01*
X158917500Y-120087040D01*
X159748330Y-119055800D01*
X160503730Y-117968170D01*
X161179370Y-116829240D01*
X161772200Y-115645090D01*
X162278930Y-114421830D01*
X162697020Y-113165290D01*
X163024420Y-111882080D01*
X163259630Y-110579060D01*
X163401110Y-109262320D01*
X163448600Y-107938980D01*
X163401110Y-106615640D01*
X163259630Y-105299160D01*
X163024420Y-103995890D01*
X162697020Y-102712680D01*
X162278930Y-101456400D01*
X161772200Y-100232880D01*
X161179370Y-99048730D01*
X160574340Y-98028920D01*
X160498390Y-97928340D01*
X160413560Y-97793460D01*
X160227380Y-97900900D01*
X160210100Y-97904460D01*
X160202480Y-97909540D01*
X160197400Y-97910560D01*
X160192830Y-97913600D01*
X160188260Y-97915130D01*
X160142290Y-97941040D01*
X160132890Y-97948910D01*
X160121710Y-97954240D01*
X160106470Y-97970750D01*
X159901750Y-98089120D01*
X159926390Y-98134330D01*
X159961690Y-98199610D01*
X160140250Y-98529050D01*
X160534970Y-99380200D01*
X160568750Y-99455380D01*
X160879140Y-100250400D01*
X160942890Y-100422870D01*
X161206290Y-101244050D01*
X161258360Y-101428960D01*
X161477310Y-102292820D01*
X161662730Y-103276560D01*
X161786680Y-104269950D01*
X161844090Y-105197050D01*
X161848660Y-105310850D01*
X161848660Y-106229820D01*
X161841290Y-106417520D01*
X161778050Y-107364180D01*
X161770170Y-107431750D01*
X161634030Y-108445970D01*
X161420410Y-109500070D01*
X161136950Y-110537400D01*
X160829860Y-111423860D01*
X160762050Y-111608010D01*
X160422960Y-112409640D01*
X160305860Y-112663890D01*
X159927400Y-113414720D01*
X159784400Y-113669990D01*
X159377750Y-114358830D01*
X159349810Y-114405060D01*
X159233980Y-114578290D01*
X158760270Y-115270690D01*
X158752910Y-115279840D01*
X158750110Y-115285430D01*
X158745540Y-115289740D01*
X158712270Y-115338000D01*
X158260650Y-115911790D01*
X158033830Y-116195250D01*
X157621590Y-116652710D01*
X157442520Y-116848030D01*
X157286820Y-117016440D01*
X156931470Y-117361370D01*
X156725220Y-117557710D01*
X156426010Y-117834320D01*
X156027990Y-118172390D01*
X155962970Y-118223700D01*
X155961190Y-118225730D01*
X155958910Y-118227000D01*
X155856540Y-118312090D01*
X155495610Y-118596570D01*
X155410010Y-118659820D01*
X155407220Y-118661850D01*
X155078540Y-118905430D01*
X154979480Y-118971470D01*
X154976690Y-118974270D01*
X154973130Y-118975790D01*
X154923860Y-119011610D01*
X154516190Y-119283890D01*
X154451670Y-119324280D01*
X154449380Y-119326310D01*
X154446340Y-119327580D01*
X154363790Y-119382700D01*
X154087180Y-119560500D01*
X153964500Y-119629080D01*
X153960690Y-119632380D01*
X153956120Y-119634160D01*
X153939350Y-119644570D01*
X153521270Y-119878760D01*
X153468440Y-119906960D01*
X153466910Y-119908230D01*
X153465130Y-119908730D01*
X153050350Y-120140890D01*
X151959930Y-120643810D01*
X151746820Y-120726360D01*
X150822010Y-121067740D01*
X150560390Y-121149780D01*
X149627960Y-121412670D01*
X149396310Y-121468550D01*
X148345000Y-121677840D01*
X148228670Y-121697910D01*
X147010230Y-121841930D01*
X145745310Y-121891710D01*
X145199970Y-121870380D01*
X145194640Y-121867840D01*
X145167210Y-121839900D01*
X145158830Y-121819070D01*
X145158830Y-121733220D01*
X145166950Y-121712900D01*
X145193880Y-121684700D01*
X145217500Y-121674030D01*
X145221310Y-121673020D01*
X145238070Y-121673020D01*
X145258900Y-121668950D01*
X145611200Y-121655240D01*
X146689430Y-121527480D01*
X147754710Y-121315640D01*
X148799660Y-121021000D01*
X149818460Y-120645080D01*
X150804740Y-120190420D01*
X151752160Y-119659810D01*
X152654870Y-119056560D01*
X153507810Y-118384230D01*
X154305110Y-117647120D01*
X155042220Y-116849810D01*
X155714560Y-115997130D01*
X156317810Y-115094160D01*
X156848410Y-114146740D01*
X157302820Y-113160720D01*
X157678740Y-112141920D01*
X157973630Y-111096710D01*
X158185470Y-110031690D01*
X158312980Y-108953210D01*
X158355650Y-107868370D01*
X158312980Y-106783280D01*
X158185470Y-105704800D01*
X157973630Y-104639780D01*
X157678740Y-103594820D01*
X157302820Y-102576030D01*
X156848410Y-101589750D01*
X156317810Y-100642330D01*
X156265740Y-100564600D01*
X156259640Y-100552660D01*
X156237290Y-100521930D01*
X156232460Y-100524980D01*
X156194620Y-100468080D01*
X156192590Y-100466810D01*
X156083870Y-100293840D01*
X155918270Y-100390360D01*
X155861120Y-100401790D01*
X155762060Y-100468080D01*
X155747070Y-100490430D01*
X155594160Y-100579590D01*
X155689920Y-100772630D01*
X155695760Y-100801330D01*
X155713540Y-100850350D01*
X155733610Y-100881590D01*
X155750630Y-100920460D01*
X156094290Y-101750020D01*
X156394010Y-102700490D01*
X156609650Y-103673310D01*
X156739700Y-104661370D01*
X156783140Y-105656790D01*
X156739700Y-106652470D01*
X156609650Y-107640530D01*
X156394010Y-108613350D01*
X156094290Y-109563570D01*
X155712780Y-110484320D01*
X155252790Y-111368240D01*
X154717350Y-112208720D01*
X154110800Y-112999430D01*
X153437450Y-113733990D01*
X152702630Y-114407350D01*
X151912180Y-115013900D01*
X151071690Y-115549330D01*
X150187770Y-116009580D01*
X149267020Y-116390830D01*
X148316810Y-116690550D01*
X147343730Y-116906200D01*
X146355930Y-117036250D01*
X145360250Y-117079680D01*
X145215720Y-117073330D01*
X145195660Y-117064950D01*
X145167720Y-117036760D01*
X145158830Y-117015170D01*
X145158830Y-116774880D01*
X145158320Y-116771830D01*
X145166190Y-116762690D01*
X145251790Y-116674550D01*
X145377520Y-116668960D01*
X145730830Y-116653470D01*
X146683330Y-116541460D01*
X147620590Y-116337750D01*
X148533720Y-116044380D01*
X149414340Y-115664140D01*
X150253810Y-115200340D01*
X151044510Y-114657540D01*
X151779080Y-114040830D01*
X152450400Y-113355790D01*
X153052380Y-112609030D01*
X153579180Y-111807660D01*
X154025970Y-110959040D01*
X154388420Y-110071060D01*
X154663510Y-109152340D01*
X154848160Y-108211270D01*
X154941130Y-107256490D01*
X154952560Y-106776930D01*
X154947730Y-106465020D01*
X154908360Y-105842210D01*
X154829880Y-105223220D01*
X154712530Y-104610310D01*
X154556830Y-104006050D01*
X154363530Y-103412960D01*
X154133150Y-102833080D01*
X153866450Y-102268690D01*
X153720150Y-101993350D01*
X153724470Y-101959820D01*
X153752660Y-101860000D01*
X153885250Y-101785580D01*
X153904550Y-101781770D01*
X153968560Y-101739100D01*
X154192840Y-101613620D01*
X154073720Y-101400770D01*
X154070160Y-101382230D01*
X154054670Y-101348190D01*
X154005390Y-101253450D01*
X153994980Y-101237190D01*
X153460050Y-100397470D01*
X152842070Y-99592040D01*
X152156270Y-98843750D01*
X151407990Y-98158210D01*
X150602810Y-97540220D01*
X149746830Y-96994890D01*
X148846400Y-96526260D01*
X147908630Y-96137640D01*
X146940640Y-95832580D01*
X145949530Y-95612870D01*
X144943430Y-95480280D01*
X143929210Y-95436090D01*
X142915240Y-95480280D01*
X141908900Y-95612870D01*
X140918040Y-95832580D01*
X139949790Y-96137640D01*
X139012280Y-96526260D01*
X138111850Y-96994890D01*
X137255870Y-97540220D01*
X136450440Y-98158210D01*
X136020920Y-98551910D01*
X136016860Y-98555210D01*
X136014320Y-98558000D01*
X135702150Y-98843750D01*
X135327500Y-99252690D01*
X135321150Y-99259040D01*
X135316830Y-99264380D01*
X135016350Y-99592040D01*
X134694790Y-100011140D01*
X134688180Y-100019520D01*
X134677770Y-100033740D01*
X134398620Y-100397470D01*
X134366620Y-100447510D01*
X134349600Y-100456400D01*
X134333350Y-100460460D01*
X134214470Y-100390610D01*
X134213200Y-100353270D01*
X134659480Y-99556480D01*
X135253590Y-98667480D01*
X135915510Y-97828010D01*
X136641190Y-97042890D01*
X137426300Y-96317210D01*
X138266030Y-95655290D01*
X139155030Y-95061180D01*
X140087720Y-94538710D01*
X141058760Y-94091160D01*
X142061800Y-93721080D01*
X143090760Y-93430760D01*
X144139520Y-93222220D01*
X145201240Y-93096490D01*
X146269570Y-93054580D01*
X147337890Y-93096490D01*
X148399610Y-93222220D01*
X149448380Y-93430760D01*
X150477330Y-93721080D01*
X151480380Y-94091160D01*
X152451420Y-94538710D01*
X153384360Y-95061180D01*
X154273360Y-95655290D01*
X155112830Y-96317210D01*
X155897950Y-97042890D01*
X156623880Y-97828010D01*
X157285800Y-98667480D01*
X157688900Y-99271230D01*
X157767130Y-99370290D01*
X157849680Y-99503900D01*
X158050600Y-99387820D01*
X158067360Y-99384520D01*
X158137460Y-99337780D01*
X158348790Y-99215610D01*
X158271070Y-99071340D01*
X158235510Y-98997930D01*
X158232970Y-98984980D01*
X158219250Y-98964400D01*
X158216460Y-98958560D01*
X157770690Y-98162780D01*
X157058220Y-97096230D01*
X156264210Y-96089120D01*
X155393500Y-95147290D01*
X154451670Y-94276830D01*
X153444560Y-93482830D01*
X152378010Y-92770100D01*
X151259140Y-92143490D01*
X150094300Y-91606530D01*
X148891100Y-91162540D01*
X147656660Y-90814560D01*
X146398850Y-90564370D01*
X145125040Y-90413490D01*
X143843610Y-90363200D01*
X142561930Y-90413490D01*
X141288370Y-90564370D01*
X140030310Y-90814560D01*
X138795870Y-91162540D01*
X137592670Y-91606530D01*
X136427830Y-92143490D01*
X135308960Y-92770100D01*
X134242410Y-93482830D01*
X133235300Y-94276830D01*
X132293470Y-95147290D01*
X131422760Y-96089120D01*
X130628760Y-97096230D01*
X130068430Y-97934940D01*
X130046840Y-97950430D01*
X130009000Y-97959580D01*
X129987410Y-97956530D01*
X129912480Y-97913350D01*
X129898760Y-97895820D01*
X129888090Y-97858490D01*
X129889110Y-97847820D01*
X130042270Y-97541750D01*
X130710290Y-96416020D01*
X131456800Y-95340840D01*
X132278230Y-94321540D01*
X133170280Y-93363450D01*
X134128370Y-92471400D01*
X135147420Y-91650220D01*
X136222850Y-90903460D01*
X137348580Y-90235690D01*
X138519010Y-89649710D01*
X139728560Y-89148830D01*
X140970620Y-88735310D01*
X142238840Y-88411460D01*
X143527130Y-88179050D01*
X144828630Y-88039350D01*
X146136730Y-87992620D01*
X147445080Y-88039350D01*
G37*
G36*
X127662290Y-96853150D02*
G01*
X127680320Y-96869160D01*
X127886830Y-96988280D01*
X127888350Y-96989810D01*
X127901560Y-97012670D01*
X127908420Y-97038320D01*
X127908420Y-97057880D01*
X127907910Y-97061690D01*
X127842630Y-97171420D01*
X127250050Y-98355560D01*
X126743320Y-99579080D01*
X126324980Y-100835620D01*
X125997570Y-102118570D01*
X125762370Y-103421850D01*
X125620890Y-104738330D01*
X125573650Y-106061920D01*
X125620890Y-107385260D01*
X125762370Y-108701750D01*
X125997570Y-110005020D01*
X126324980Y-111287970D01*
X126743320Y-112544510D01*
X127250050Y-113768030D01*
X127842630Y-114952180D01*
X128518520Y-116090860D01*
X129273670Y-117178740D01*
X130104500Y-118209730D01*
X131006960Y-119178990D01*
X131976230Y-120081200D01*
X133007210Y-120912290D01*
X134094840Y-121667430D01*
X135233780Y-122343070D01*
X136417920Y-122935910D01*
X137641440Y-123442640D01*
X138897730Y-123860720D01*
X140180930Y-124188380D01*
X141483950Y-124423330D01*
X142800690Y-124565060D01*
X144124030Y-124612310D01*
X144864950Y-124585890D01*
X144864950Y-124589450D01*
X144906600Y-124581060D01*
X145152730Y-124571410D01*
X145152730Y-124316400D01*
X145158830Y-124285920D01*
X145157050Y-124277790D01*
X145158830Y-124269410D01*
X145152730Y-124238420D01*
X145152730Y-123980350D01*
X144916000Y-123974000D01*
X144886030Y-123966640D01*
X144866470Y-123966130D01*
X144866980Y-123957240D01*
X144324180Y-123935900D01*
X143066880Y-123787060D01*
X141825580Y-123540170D01*
X140607150Y-123196510D01*
X139419440Y-122758360D01*
X138269840Y-122228520D01*
X137165450Y-121610030D01*
X136112870Y-120906700D01*
X135118970Y-120122860D01*
X134189330Y-119263830D01*
X133330050Y-118334190D01*
X132546460Y-117340030D01*
X131843130Y-116287460D01*
X131224640Y-115183060D01*
X130694540Y-114033460D01*
X130256650Y-112846010D01*
X129912980Y-111627570D01*
X129666100Y-110386020D01*
X129517250Y-109128970D01*
X129467470Y-107864050D01*
X129517250Y-106599130D01*
X129666100Y-105342090D01*
X129912980Y-104100540D01*
X130256650Y-102882350D01*
X130694540Y-101694650D01*
X131224640Y-100545040D01*
X131843130Y-99440650D01*
X131890880Y-99369020D01*
X131917810Y-99350480D01*
X131959210Y-99342610D01*
X131967840Y-99344640D01*
X132047600Y-99390610D01*
X132054710Y-99399000D01*
X132065130Y-99419820D01*
X132070710Y-99442940D01*
X132070710Y-99457670D01*
X132061820Y-99473420D01*
X131842620Y-99948910D01*
X131834240Y-99966180D01*
X131830430Y-99975070D01*
X131607160Y-100459450D01*
X131439020Y-100915120D01*
X131436730Y-100920960D01*
X131434190Y-100928330D01*
X131231240Y-101478240D01*
X130936600Y-102523450D01*
X130724770Y-103588470D01*
X130597010Y-104666700D01*
X130554590Y-105751790D01*
X130597010Y-106836880D01*
X130724770Y-107915360D01*
X130936600Y-108980380D01*
X131231240Y-110025340D01*
X131607160Y-111044130D01*
X132061820Y-112030420D01*
X132592430Y-112977840D01*
X133195680Y-113880550D01*
X133868020Y-114733480D01*
X134605130Y-115530790D01*
X135402430Y-116267900D01*
X136255110Y-116940240D01*
X137158080Y-117543490D01*
X137684110Y-117837870D01*
X137689190Y-117841170D01*
X137693510Y-117843210D01*
X138105500Y-118074090D01*
X138603590Y-118303710D01*
X138611980Y-118308030D01*
X138620360Y-118311330D01*
X139091530Y-118528750D01*
X139559900Y-118701470D01*
X139567270Y-118704270D01*
X139575650Y-118707310D01*
X140110320Y-118904420D01*
X140547460Y-119027860D01*
X140549230Y-119028370D01*
X140551770Y-119028880D01*
X141155530Y-119199310D01*
X142220550Y-119411150D01*
X143299040Y-119538660D01*
X144383870Y-119581330D01*
X144781890Y-119565830D01*
X144833710Y-119572440D01*
X144834470Y-119563550D01*
X144837520Y-119563550D01*
X144860880Y-119568120D01*
X144908380Y-119558720D01*
X145152730Y-119549580D01*
X145152730Y-119333170D01*
X145166700Y-119262300D01*
X145152730Y-119191440D01*
X145152730Y-118983920D01*
X144926420Y-118969440D01*
X144887050Y-118961570D01*
X144886280Y-118961570D01*
X144860630Y-118956490D01*
X144855550Y-118957500D01*
X144849960Y-118956740D01*
X144849710Y-118950140D01*
X144813130Y-118951920D01*
X143899240Y-118831520D01*
X142926170Y-118615870D01*
X141975950Y-118316150D01*
X141055200Y-117934900D01*
X140171280Y-117474650D01*
X139330800Y-116939220D01*
X138540350Y-116332670D01*
X137805530Y-115659310D01*
X137132430Y-114924750D01*
X136525620Y-114134040D01*
X135990190Y-113293560D01*
X135530190Y-112409640D01*
X135148690Y-111489140D01*
X134849220Y-110538670D01*
X134633320Y-109565850D01*
X134503270Y-108577790D01*
X134459840Y-107582370D01*
X134503270Y-106586690D01*
X134633320Y-105598630D01*
X134849220Y-104625810D01*
X135148690Y-103675340D01*
X135530190Y-102754840D01*
X135990190Y-101870920D01*
X136052670Y-101772880D01*
X136071470Y-101758910D01*
X136111090Y-101749260D01*
X136131160Y-101752560D01*
X136158840Y-101768820D01*
X136179420Y-101776180D01*
X136197450Y-101788370D01*
X136206340Y-101789900D01*
X136342230Y-101873720D01*
X136353150Y-101880320D01*
X136371190Y-101899120D01*
X136383890Y-101921470D01*
X136390240Y-101946620D01*
X136390240Y-101965920D01*
X136388710Y-101978620D01*
X136385410Y-101991070D01*
X136380590Y-102002750D01*
X136377790Y-102008080D01*
X136377790Y-102008340D01*
X136377540Y-102008340D01*
X136181450Y-102383750D01*
X135838550Y-103157940D01*
X135562960Y-103958550D01*
X135356970Y-104779730D01*
X135221840Y-105615650D01*
X135158340Y-106459940D01*
X135167480Y-107306520D01*
X135249020Y-108149300D01*
X135402180Y-108982160D01*
X135625700Y-109798770D01*
X135918560Y-110593280D01*
X136277970Y-111359860D01*
X136701640Y-112092900D01*
X137186530Y-112787080D01*
X137728820Y-113437320D01*
X138324700Y-114038790D01*
X138969860Y-114587180D01*
X139659470Y-115078420D01*
X140388450Y-115508950D01*
X141151720Y-115875470D01*
X141943440Y-116175700D01*
X142758020Y-116406840D01*
X143589360Y-116567870D01*
X144431120Y-116657030D01*
X144854280Y-116674550D01*
X144874090Y-116674810D01*
X144910410Y-116690300D01*
X144938350Y-116718490D01*
X144951820Y-116751510D01*
X144947240Y-116774880D01*
X144947240Y-116979860D01*
X144946990Y-116980110D01*
X144953340Y-117011610D01*
X144953340Y-117273990D01*
X145211910Y-117277800D01*
X145250010Y-117285420D01*
X145250010Y-117286950D01*
X145360250Y-117291770D01*
X146374220Y-117247580D01*
X147380560Y-117114990D01*
X148371670Y-116895280D01*
X149339670Y-116589970D01*
X150277430Y-116201600D01*
X150794070Y-115932620D01*
X150798900Y-115930330D01*
X150802200Y-115928550D01*
X151177610Y-115732970D01*
X151595690Y-115466780D01*
X151605350Y-115461190D01*
X151614740Y-115454590D01*
X152033840Y-115187640D01*
X152368620Y-114930590D01*
X152371660Y-114928560D01*
X152375470Y-114925510D01*
X152839020Y-114569650D01*
X153587310Y-113883850D01*
X154273110Y-113135570D01*
X154891090Y-112330390D01*
X155436430Y-111474410D01*
X155905060Y-110573980D01*
X156293420Y-109636210D01*
X156598730Y-108668220D01*
X156818440Y-107677110D01*
X156950780Y-106671020D01*
X156974400Y-106133810D01*
X156975160Y-106123390D01*
X156975410Y-106107140D01*
X156995230Y-105656790D01*
X156950780Y-104642830D01*
X156877120Y-104082760D01*
X156875850Y-104071070D01*
X156874580Y-104063710D01*
X156818440Y-103636480D01*
X156598730Y-102645620D01*
X156464620Y-102220430D01*
X156461830Y-102209760D01*
X156456750Y-102195540D01*
X156293420Y-101677630D01*
X155905060Y-100739860D01*
X155877880Y-100687540D01*
X155877880Y-100651980D01*
X155995230Y-100583400D01*
X156031800Y-100597370D01*
X156136200Y-100753580D01*
X156658680Y-101686520D01*
X157106220Y-102657310D01*
X157476300Y-103660610D01*
X157766620Y-104689560D01*
X157975160Y-105738070D01*
X158100890Y-106799790D01*
X158142800Y-107868370D01*
X158100890Y-108936700D01*
X157975160Y-109998420D01*
X157766620Y-111046930D01*
X157476300Y-112076140D01*
X157106220Y-113079180D01*
X156658680Y-114049970D01*
X156136200Y-114982910D01*
X155542350Y-115871910D01*
X154880420Y-116711640D01*
X154154490Y-117496750D01*
X153369380Y-118222430D01*
X152529910Y-118884350D01*
X151640910Y-119478460D01*
X150707960Y-120000680D01*
X149736920Y-120448480D01*
X148733880Y-120818560D01*
X147704920Y-121108630D01*
X146656160Y-121317160D01*
X145594440Y-121442890D01*
X145236550Y-121456860D01*
X145237060Y-121465500D01*
X145198450Y-121473120D01*
X144953340Y-121480740D01*
X144953340Y-121736260D01*
X144946990Y-121768010D01*
X144948770Y-121776400D01*
X144947240Y-121784020D01*
X144953340Y-121815000D01*
X144953340Y-122072310D01*
X145205310Y-122080430D01*
X145244170Y-122088050D01*
X145244170Y-122084500D01*
X145726770Y-122103550D01*
X147008200Y-122053260D01*
X147613990Y-121981630D01*
X147701370Y-121974010D01*
X147777060Y-121962320D01*
X148282010Y-121902380D01*
X148705430Y-121818310D01*
X148789500Y-121805100D01*
X148930220Y-121773600D01*
X149539820Y-121652190D01*
X149819220Y-121573450D01*
X149863670Y-121563540D01*
X150031050Y-121513760D01*
X150774260Y-121304210D01*
X151977460Y-120860220D01*
X152621090Y-120563550D01*
X152954590Y-120413180D01*
X152999300Y-120389300D01*
X153142300Y-120323260D01*
X153564700Y-120086790D01*
X153925380Y-119893750D01*
X154064070Y-119806880D01*
X154261170Y-119696640D01*
X154559620Y-119497250D01*
X154859090Y-119310060D01*
X155092770Y-119141150D01*
X155327720Y-118983920D01*
X155526850Y-118826950D01*
X155751130Y-118664900D01*
X156089210Y-118383720D01*
X156334830Y-118189920D01*
X156449130Y-118084510D01*
X156597720Y-117960810D01*
X157087170Y-117494720D01*
X157276660Y-117319460D01*
X157318060Y-117274500D01*
X157395020Y-117201350D01*
X158139240Y-116390070D01*
X158827070Y-115530280D01*
X158913180Y-115406080D01*
X158941370Y-115370260D01*
X159025190Y-115244790D01*
X159455220Y-114626040D01*
X159598220Y-114387280D01*
X159653840Y-114303970D01*
X159736140Y-114157160D01*
X160021130Y-113681670D01*
X160214420Y-113303210D01*
X160280460Y-113184850D01*
X160334310Y-113068260D01*
X160522020Y-112700980D01*
X160763320Y-112137600D01*
X160817670Y-112020260D01*
X160841040Y-111956250D01*
X160955590Y-111689040D01*
X161320080Y-110650180D01*
X161613710Y-109588970D01*
X161834940Y-108510230D01*
X161983020Y-107419300D01*
X162004610Y-107101040D01*
X162010460Y-107051000D01*
X162014010Y-106961080D01*
X162057450Y-106320750D01*
X162066590Y-105770330D01*
X162059220Y-105281130D01*
X162000550Y-104304750D01*
X161883710Y-103333460D01*
X161708700Y-102370800D01*
X161619550Y-102005800D01*
X161609640Y-101956270D01*
X161592630Y-101895820D01*
X161476290Y-101420580D01*
X161272330Y-100760180D01*
X161261410Y-100721830D01*
X161255060Y-100704560D01*
X161187500Y-100485860D01*
X160843070Y-99570190D01*
X160444550Y-98676870D01*
X160225340Y-98239490D01*
X160213410Y-98216120D01*
X160214930Y-98163540D01*
X160242360Y-98118580D01*
X160288080Y-98092930D01*
X160327200Y-98092930D01*
X160351840Y-98099280D01*
X160374190Y-98111470D01*
X160378250Y-98115530D01*
X160992680Y-99150840D01*
X161578660Y-100321270D01*
X162079540Y-101530820D01*
X162492800Y-102772620D01*
X162816650Y-104041100D01*
X163049060Y-105329390D01*
X163189020Y-106630880D01*
X163235750Y-107938980D01*
X163189020Y-109247340D01*
X163049060Y-110548830D01*
X162816650Y-111836870D01*
X162492800Y-113105340D01*
X162079540Y-114347400D01*
X161578660Y-115556700D01*
X160992680Y-116727380D01*
X160324660Y-117853110D01*
X159578150Y-118928290D01*
X158756720Y-119947600D01*
X157864670Y-120905680D01*
X156906580Y-121797730D01*
X155887280Y-122619170D01*
X154812100Y-123365670D01*
X153686370Y-124033440D01*
X152515680Y-124619420D01*
X151306390Y-125120560D01*
X150064330Y-125533820D01*
X148796110Y-125857670D01*
X147507820Y-126090080D01*
X146206320Y-126230030D01*
X145246960Y-126264070D01*
X145247220Y-126269660D01*
X145208860Y-126277280D01*
X144953340Y-126278040D01*
X144953340Y-126542710D01*
X144946990Y-126574200D01*
X144947240Y-126574460D01*
X144947240Y-126775880D01*
X144951820Y-126799750D01*
X144938100Y-126832770D01*
X144909910Y-126861220D01*
X144872820Y-126876460D01*
X144851990Y-126876460D01*
X144200230Y-126869860D01*
X142900510Y-126772320D01*
X141609680Y-126590970D01*
X140333330Y-126326300D01*
X139076800Y-125979590D01*
X137845660Y-125552110D01*
X136644490Y-125045630D01*
X135478630Y-124462700D01*
X134353160Y-123805350D01*
X133272390Y-123076370D01*
X132241400Y-122279060D01*
X131264010Y-121416480D01*
X130344780Y-120492430D01*
X129487030Y-119510970D01*
X128694800Y-118475920D01*
X127971410Y-117391590D01*
X127319640Y-116262820D01*
X126742300Y-115094160D01*
X126242180Y-113890460D01*
X125820790Y-112657030D01*
X125480180Y-111398720D01*
X125222110Y-110121100D01*
X125047110Y-108829510D01*
X124956170Y-107529280D01*
X124949570Y-106225750D01*
X125027550Y-104924770D01*
X125189600Y-103631400D01*
X125434960Y-102351240D01*
X125762880Y-101089620D01*
X126171820Y-99851880D01*
X126660260Y-98643350D01*
X127225660Y-97469100D01*
X127545960Y-96901410D01*
X127555860Y-96883890D01*
X127587610Y-96859000D01*
X127626480Y-96848580D01*
X127662290Y-96853150D01*
G37*
G36*
X147005410Y-86760970D02*
G01*
X148298010Y-86929630D01*
X149576900Y-87181340D01*
X150836740Y-87515610D01*
X152072450Y-87930900D01*
X153278440Y-88425180D01*
X154449890Y-88996430D01*
X155581970Y-89642600D01*
X156669850Y-90360660D01*
X157708970Y-91147550D01*
X158694740Y-92000230D01*
X159623360Y-92915140D01*
X160490770Y-93887960D01*
X161293410Y-94915130D01*
X162027470Y-95992090D01*
X162359200Y-96553180D01*
X162354630Y-96589760D01*
X162319570Y-96685770D01*
X162114600Y-96804130D01*
X162104440Y-96805660D01*
X162084880Y-96805660D01*
X162059990Y-96799050D01*
X162037380Y-96786100D01*
X162020870Y-96770100D01*
X161742490Y-96300960D01*
X160987090Y-95213330D01*
X160156260Y-94182090D01*
X159254050Y-93213080D01*
X158284780Y-92310620D01*
X157253540Y-91479780D01*
X156165920Y-90724390D01*
X155026980Y-90048750D01*
X153842830Y-89456170D01*
X152619570Y-88949180D01*
X151363030Y-88531100D01*
X150080080Y-88203690D01*
X148776800Y-87968490D01*
X147460320Y-87827010D01*
X146136730Y-87779770D01*
X144813390Y-87827010D01*
X143496900Y-87968490D01*
X142193630Y-88203690D01*
X140910680Y-88531100D01*
X139654140Y-88949180D01*
X138430620Y-89456170D01*
X137246470Y-90048750D01*
X136107790Y-90724390D01*
X135019910Y-91479780D01*
X133988920Y-92310620D01*
X133019660Y-93213080D01*
X132117450Y-94182090D01*
X131286360Y-95213330D01*
X130531220Y-96300960D01*
X129855580Y-97439890D01*
X129777600Y-97595600D01*
X129721210Y-97708370D01*
X129707240Y-97732500D01*
X129705210Y-97742920D01*
X129668380Y-97822160D01*
X129592690Y-97965930D01*
X129824590Y-98099790D01*
X129872850Y-98132040D01*
X129876150Y-98132810D01*
X129887080Y-98140170D01*
X129898000Y-98142200D01*
X130001380Y-98201890D01*
X130002140Y-98202400D01*
X130039480Y-98223990D01*
X130056490Y-98233900D01*
X130104750Y-98261580D01*
X130188320Y-98125440D01*
X130264770Y-98024090D01*
X130800970Y-97221710D01*
X131584560Y-96227550D01*
X132443840Y-95297910D01*
X133373480Y-94438630D01*
X134367640Y-93655040D01*
X135420210Y-92951710D01*
X136524600Y-92333220D01*
X137674210Y-91803380D01*
X138861660Y-91365230D01*
X140080100Y-91021570D01*
X141321650Y-90774680D01*
X142578690Y-90625840D01*
X143843610Y-90576050D01*
X145108280Y-90625840D01*
X146365580Y-90774680D01*
X147607130Y-91021570D01*
X148825320Y-91365230D01*
X150013020Y-91803380D01*
X151162370Y-92333220D01*
X152267020Y-92951710D01*
X153319590Y-93655040D01*
X154313490Y-94438630D01*
X155243130Y-95297910D01*
X156102420Y-96227550D01*
X156886010Y-97221710D01*
X157589330Y-98274280D01*
X158050600Y-99098010D01*
X158050600Y-99121880D01*
X158035360Y-99158710D01*
X158034090Y-99160240D01*
X157960930Y-99202400D01*
X157937570Y-99202400D01*
X157913180Y-99196050D01*
X157891080Y-99183860D01*
X157877370Y-99171160D01*
X157457510Y-98542760D01*
X156785170Y-97690080D01*
X156048310Y-96892780D01*
X155250750Y-96155670D01*
X154398080Y-95483330D01*
X153495110Y-94880080D01*
X152994730Y-94599920D01*
X152993460Y-94598900D01*
X152992440Y-94598400D01*
X152547940Y-94349480D01*
X152071690Y-94130020D01*
X152069910Y-94129000D01*
X152067880Y-94128240D01*
X151561660Y-93894820D01*
X150542860Y-93519150D01*
X149497910Y-93224260D01*
X148432890Y-93012420D01*
X147354660Y-92884910D01*
X146269570Y-92842240D01*
X145184480Y-92884910D01*
X144106250Y-93012420D01*
X143041230Y-93224260D01*
X141996270Y-93519150D01*
X140977480Y-93894820D01*
X139991450Y-94349480D01*
X139044030Y-94880080D01*
X138141060Y-95483330D01*
X137288380Y-96155670D01*
X136491080Y-96892780D01*
X135753970Y-97690080D01*
X135081630Y-98542760D01*
X134478380Y-99445480D01*
X134106780Y-100108930D01*
X134085950Y-100146520D01*
X134069950Y-100167350D01*
X134059280Y-100183860D01*
X134044800Y-100219670D01*
X134031340Y-100244560D01*
X134026770Y-100268440D01*
X133925930Y-100459700D01*
X134078330Y-100549110D01*
X134097630Y-100578060D01*
X134196950Y-100644360D01*
X134263240Y-100657570D01*
X134415390Y-100746720D01*
X134487780Y-100637750D01*
X134562200Y-100534880D01*
X134590390Y-100507450D01*
X134609950Y-100470110D01*
X135178910Y-99728430D01*
X135852010Y-98993870D01*
X136586830Y-98320510D01*
X137377540Y-97713960D01*
X138218020Y-97178530D01*
X139101940Y-96718280D01*
X140022440Y-96337030D01*
X140972910Y-96037310D01*
X141945730Y-95821660D01*
X142933790Y-95691610D01*
X143929210Y-95648180D01*
X144924890Y-95691610D01*
X145912950Y-95821660D01*
X146885770Y-96037310D01*
X147835990Y-96337030D01*
X148756740Y-96718280D01*
X149640660Y-97178530D01*
X150481140Y-97713960D01*
X151271840Y-98320510D01*
X152006410Y-98993870D01*
X152679770Y-99728430D01*
X153286320Y-100519140D01*
X153821750Y-101359620D01*
X153886770Y-101484590D01*
X153887030Y-101486880D01*
X153871280Y-101504400D01*
X153818190Y-101542760D01*
X153676720Y-101511770D01*
X153633030Y-101442930D01*
X153469960Y-101185630D01*
X152960940Y-100486370D01*
X152394020Y-99833080D01*
X151772990Y-99230590D01*
X151102930Y-98683480D01*
X150388690Y-98195800D01*
X149635070Y-97770860D01*
X148848180Y-97411950D01*
X148033090Y-97121630D01*
X147196410Y-96902180D01*
X146343990Y-96754860D01*
X145482170Y-96681200D01*
X144617040Y-96681450D01*
X143755220Y-96755870D01*
X142902800Y-96903450D01*
X142066380Y-97123660D01*
X141251540Y-97414490D01*
X140464910Y-97773900D01*
X139711540Y-98199350D01*
X138997550Y-98687540D01*
X138327750Y-99235170D01*
X137707480Y-99837910D01*
X137140810Y-100491700D01*
X136632300Y-101191470D01*
X136468470Y-101450300D01*
X136400910Y-101556980D01*
X136395570Y-101558760D01*
X136275680Y-101591270D01*
X136252570Y-101582630D01*
X136232000Y-101568920D01*
X136220570Y-101566630D01*
X136011780Y-101443190D01*
X135890870Y-101647150D01*
X135878940Y-101664930D01*
X135854810Y-101691090D01*
X135849470Y-101695920D01*
X135805780Y-101764500D01*
X135784700Y-101804880D01*
X135337150Y-102664670D01*
X134948790Y-103602700D01*
X134643480Y-104570690D01*
X134423770Y-105561800D01*
X134291180Y-106568150D01*
X134246990Y-107582370D01*
X134291180Y-108596340D01*
X134423770Y-109602680D01*
X134643480Y-110593790D01*
X134948790Y-111561790D01*
X135337150Y-112499810D01*
X135805780Y-113400240D01*
X136351380Y-114256220D01*
X136969100Y-115061650D01*
X137654900Y-115809940D01*
X138403440Y-116495740D01*
X139208620Y-117113720D01*
X140064860Y-117659060D01*
X140965290Y-118127940D01*
X141903050Y-118516310D01*
X142871050Y-118821360D01*
X143862160Y-119041320D01*
X144868500Y-119173660D01*
X144911940Y-119175690D01*
X144922100Y-119180520D01*
X144947240Y-119207950D01*
X144947240Y-119316660D01*
X144946480Y-119317930D01*
X144919560Y-119346120D01*
X144914220Y-119348410D01*
X144383870Y-119369240D01*
X143315550Y-119327330D01*
X142253830Y-119201600D01*
X141205060Y-118993060D01*
X140176110Y-118702740D01*
X139172810Y-118332660D01*
X138201770Y-117885120D01*
X137268820Y-117362640D01*
X136379820Y-116768530D01*
X135540100Y-116106610D01*
X134754990Y-115380930D01*
X134029310Y-114595560D01*
X133367380Y-113755840D01*
X132773280Y-112866840D01*
X132250800Y-111934150D01*
X131803250Y-110963110D01*
X131433170Y-109959810D01*
X131142850Y-108930850D01*
X130934320Y-107882090D01*
X130808590Y-106820370D01*
X130766680Y-105751790D01*
X130808590Y-104683470D01*
X130934320Y-103621750D01*
X131142850Y-102572980D01*
X131433170Y-101543770D01*
X131803250Y-100540730D01*
X132188320Y-99705320D01*
X132240640Y-99591780D01*
X132252830Y-99571720D01*
X132254860Y-99562060D01*
X132295000Y-99477740D01*
X132369160Y-99338800D01*
X132144630Y-99209260D01*
X132074520Y-99162520D01*
X132057760Y-99159220D01*
X131856590Y-99043140D01*
X131770990Y-99182080D01*
X131693270Y-99281900D01*
X131661520Y-99329650D01*
X131627480Y-99390610D01*
X131034900Y-100448780D01*
X130497950Y-101613370D01*
X130053950Y-102816570D01*
X129705970Y-104051010D01*
X129455780Y-105309070D01*
X129304910Y-106582620D01*
X129254620Y-107864310D01*
X129304910Y-109145740D01*
X129455780Y-110419550D01*
X129705970Y-111677360D01*
X130053950Y-112911800D01*
X130497950Y-114114990D01*
X131034900Y-115279840D01*
X131661520Y-116398710D01*
X132373990Y-117465250D01*
X133168250Y-118472360D01*
X134038710Y-119414200D01*
X134980540Y-120284910D01*
X135987650Y-121078910D01*
X137054190Y-121791380D01*
X138173060Y-122418250D01*
X139337910Y-122954960D01*
X140541110Y-123398950D01*
X141775550Y-123747180D01*
X143033610Y-123997370D01*
X144307160Y-124147990D01*
X144878160Y-124170600D01*
X144912190Y-124185840D01*
X144938860Y-124214030D01*
X144947240Y-124234350D01*
X144947240Y-124320710D01*
X144938860Y-124341290D01*
X144911940Y-124369480D01*
X144907370Y-124371510D01*
X144124030Y-124399450D01*
X142815930Y-124352720D01*
X141514430Y-124212760D01*
X140226150Y-123980350D01*
X138957670Y-123656500D01*
X137715610Y-123243250D01*
X136506320Y-122742360D01*
X135335880Y-122156380D01*
X134210160Y-121488360D01*
X133134720Y-120741850D01*
X132115420Y-119920420D01*
X131157330Y-119028370D01*
X130265540Y-118070280D01*
X129444100Y-117051230D01*
X128697590Y-115975800D01*
X128029570Y-114850070D01*
X127443600Y-113679380D01*
X126942710Y-112470090D01*
X126529200Y-111228030D01*
X126205600Y-109959810D01*
X125973190Y-108671520D01*
X125833240Y-107370020D01*
X125786500Y-106061920D01*
X125833240Y-104753570D01*
X125973190Y-103452070D01*
X126205600Y-102163790D01*
X126529200Y-100895560D01*
X126942710Y-99653500D01*
X127443600Y-98444210D01*
X128029570Y-97273520D01*
X128065390Y-97213070D01*
X128073010Y-97204440D01*
X128079360Y-97185390D01*
X128090530Y-97168620D01*
X128094340Y-97149570D01*
X128214490Y-96940280D01*
X127985120Y-96807940D01*
X127960990Y-96786610D01*
X127786240Y-96685770D01*
X127781160Y-96683990D01*
X127741030Y-96563340D01*
X128078340Y-95992090D01*
X128812660Y-94915130D01*
X129615300Y-93887960D01*
X130482710Y-92915140D01*
X131411080Y-92000230D01*
X132397100Y-91147550D01*
X133435960Y-90360660D01*
X134523850Y-89642600D01*
X135655920Y-88996430D01*
X136827630Y-88425180D01*
X138033620Y-87930900D01*
X139269330Y-87515610D01*
X140529170Y-87181340D01*
X141808060Y-86929630D01*
X143100410Y-86760970D01*
X144401400Y-86676640D01*
X145704670Y-86676640D01*
X147005410Y-86760970D01*
G37*
G36*
X93772000Y-110367000D02*
G01*
X93772000Y-110867000D01*
X93172000Y-110867000D01*
X93172000Y-110367000D01*
X93772000Y-110367000D01*
G37*
G36*
X89285000Y-109047000D02*
G01*
X89785000Y-109047000D01*
X89785000Y-109647000D01*
X89285000Y-109647000D01*
X89285000Y-109047000D01*
G37*
G36*
X89285000Y-111206000D02*
G01*
X89785000Y-111206000D01*
X89785000Y-111806000D01*
X89285000Y-111806000D01*
X89285000Y-111206000D01*
G37*
G04 #@! TA.AperFunction,SMDPad,CuDef*
G36*
X79260602Y-105014000D02*
G01*
X79260602Y-104989466D01*
X79265412Y-104940635D01*
X79274984Y-104892510D01*
X79289228Y-104845555D01*
X79308005Y-104800222D01*
X79331136Y-104756949D01*
X79358396Y-104716150D01*
X79389524Y-104678221D01*
X79424221Y-104643524D01*
X79462150Y-104612396D01*
X79502949Y-104585136D01*
X79546222Y-104562005D01*
X79591555Y-104543228D01*
X79638510Y-104528984D01*
X79686635Y-104519412D01*
X79735466Y-104514602D01*
X79760000Y-104514602D01*
X79760000Y-104514000D01*
X80260000Y-104514000D01*
X80260000Y-104514602D01*
X80284534Y-104514602D01*
X80333365Y-104519412D01*
X80381490Y-104528984D01*
X80428445Y-104543228D01*
X80473778Y-104562005D01*
X80517051Y-104585136D01*
X80557850Y-104612396D01*
X80595779Y-104643524D01*
X80630476Y-104678221D01*
X80661604Y-104716150D01*
X80688864Y-104756949D01*
X80711995Y-104800222D01*
X80730772Y-104845555D01*
X80745016Y-104892510D01*
X80754588Y-104940635D01*
X80759398Y-104989466D01*
X80759398Y-105014000D01*
X80760000Y-105014000D01*
X80760000Y-105514000D01*
X79260000Y-105514000D01*
X79260000Y-105014000D01*
X79260602Y-105014000D01*
G37*
G04 #@! TD.AperFunction*
G04 #@! TA.AperFunction,SMDPad,CuDef*
G36*
X80760000Y-105814000D02*
G01*
X80760000Y-106314000D01*
X80759398Y-106314000D01*
X80759398Y-106338534D01*
X80754588Y-106387365D01*
X80745016Y-106435490D01*
X80730772Y-106482445D01*
X80711995Y-106527778D01*
X80688864Y-106571051D01*
X80661604Y-106611850D01*
X80630476Y-106649779D01*
X80595779Y-106684476D01*
X80557850Y-106715604D01*
X80517051Y-106742864D01*
X80473778Y-106765995D01*
X80428445Y-106784772D01*
X80381490Y-106799016D01*
X80333365Y-106808588D01*
X80284534Y-106813398D01*
X80260000Y-106813398D01*
X80260000Y-106814000D01*
X79760000Y-106814000D01*
X79760000Y-106813398D01*
X79735466Y-106813398D01*
X79686635Y-106808588D01*
X79638510Y-106799016D01*
X79591555Y-106784772D01*
X79546222Y-106765995D01*
X79502949Y-106742864D01*
X79462150Y-106715604D01*
X79424221Y-106684476D01*
X79389524Y-106649779D01*
X79358396Y-106611850D01*
X79331136Y-106571051D01*
X79308005Y-106527778D01*
X79289228Y-106482445D01*
X79274984Y-106435490D01*
X79265412Y-106387365D01*
X79260602Y-106338534D01*
X79260602Y-106314000D01*
X79260000Y-106314000D01*
X79260000Y-105814000D01*
X80760000Y-105814000D01*
G37*
G04 #@! TD.AperFunction*
G04 #@! TA.AperFunction,SMDPad,CuDef*
G36*
X76720602Y-105014000D02*
G01*
X76720602Y-104989466D01*
X76725412Y-104940635D01*
X76734984Y-104892510D01*
X76749228Y-104845555D01*
X76768005Y-104800222D01*
X76791136Y-104756949D01*
X76818396Y-104716150D01*
X76849524Y-104678221D01*
X76884221Y-104643524D01*
X76922150Y-104612396D01*
X76962949Y-104585136D01*
X77006222Y-104562005D01*
X77051555Y-104543228D01*
X77098510Y-104528984D01*
X77146635Y-104519412D01*
X77195466Y-104514602D01*
X77220000Y-104514602D01*
X77220000Y-104514000D01*
X77720000Y-104514000D01*
X77720000Y-104514602D01*
X77744534Y-104514602D01*
X77793365Y-104519412D01*
X77841490Y-104528984D01*
X77888445Y-104543228D01*
X77933778Y-104562005D01*
X77977051Y-104585136D01*
X78017850Y-104612396D01*
X78055779Y-104643524D01*
X78090476Y-104678221D01*
X78121604Y-104716150D01*
X78148864Y-104756949D01*
X78171995Y-104800222D01*
X78190772Y-104845555D01*
X78205016Y-104892510D01*
X78214588Y-104940635D01*
X78219398Y-104989466D01*
X78219398Y-105014000D01*
X78220000Y-105014000D01*
X78220000Y-105514000D01*
X76720000Y-105514000D01*
X76720000Y-105014000D01*
X76720602Y-105014000D01*
G37*
G04 #@! TD.AperFunction*
G04 #@! TA.AperFunction,SMDPad,CuDef*
G36*
X78220000Y-105814000D02*
G01*
X78220000Y-106314000D01*
X78219398Y-106314000D01*
X78219398Y-106338534D01*
X78214588Y-106387365D01*
X78205016Y-106435490D01*
X78190772Y-106482445D01*
X78171995Y-106527778D01*
X78148864Y-106571051D01*
X78121604Y-106611850D01*
X78090476Y-106649779D01*
X78055779Y-106684476D01*
X78017850Y-106715604D01*
X77977051Y-106742864D01*
X77933778Y-106765995D01*
X77888445Y-106784772D01*
X77841490Y-106799016D01*
X77793365Y-106808588D01*
X77744534Y-106813398D01*
X77720000Y-106813398D01*
X77720000Y-106814000D01*
X77220000Y-106814000D01*
X77220000Y-106813398D01*
X77195466Y-106813398D01*
X77146635Y-106808588D01*
X77098510Y-106799016D01*
X77051555Y-106784772D01*
X77006222Y-106765995D01*
X76962949Y-106742864D01*
X76922150Y-106715604D01*
X76884221Y-106684476D01*
X76849524Y-106649779D01*
X76818396Y-106611850D01*
X76791136Y-106571051D01*
X76768005Y-106527778D01*
X76749228Y-106482445D01*
X76734984Y-106435490D01*
X76725412Y-106387365D01*
X76720602Y-106338534D01*
X76720602Y-106314000D01*
X76720000Y-106314000D01*
X76720000Y-105814000D01*
X78220000Y-105814000D01*
G37*
G04 #@! TD.AperFunction*
G04 #@! TA.AperFunction,SMDPad,CuDef*
G36*
X74053602Y-105014000D02*
G01*
X74053602Y-104989466D01*
X74058412Y-104940635D01*
X74067984Y-104892510D01*
X74082228Y-104845555D01*
X74101005Y-104800222D01*
X74124136Y-104756949D01*
X74151396Y-104716150D01*
X74182524Y-104678221D01*
X74217221Y-104643524D01*
X74255150Y-104612396D01*
X74295949Y-104585136D01*
X74339222Y-104562005D01*
X74384555Y-104543228D01*
X74431510Y-104528984D01*
X74479635Y-104519412D01*
X74528466Y-104514602D01*
X74553000Y-104514602D01*
X74553000Y-104514000D01*
X75053000Y-104514000D01*
X75053000Y-104514602D01*
X75077534Y-104514602D01*
X75126365Y-104519412D01*
X75174490Y-104528984D01*
X75221445Y-104543228D01*
X75266778Y-104562005D01*
X75310051Y-104585136D01*
X75350850Y-104612396D01*
X75388779Y-104643524D01*
X75423476Y-104678221D01*
X75454604Y-104716150D01*
X75481864Y-104756949D01*
X75504995Y-104800222D01*
X75523772Y-104845555D01*
X75538016Y-104892510D01*
X75547588Y-104940635D01*
X75552398Y-104989466D01*
X75552398Y-105014000D01*
X75553000Y-105014000D01*
X75553000Y-105514000D01*
X74053000Y-105514000D01*
X74053000Y-105014000D01*
X74053602Y-105014000D01*
G37*
G04 #@! TD.AperFunction*
G04 #@! TA.AperFunction,SMDPad,CuDef*
G36*
X75553000Y-105814000D02*
G01*
X75553000Y-106314000D01*
X75552398Y-106314000D01*
X75552398Y-106338534D01*
X75547588Y-106387365D01*
X75538016Y-106435490D01*
X75523772Y-106482445D01*
X75504995Y-106527778D01*
X75481864Y-106571051D01*
X75454604Y-106611850D01*
X75423476Y-106649779D01*
X75388779Y-106684476D01*
X75350850Y-106715604D01*
X75310051Y-106742864D01*
X75266778Y-106765995D01*
X75221445Y-106784772D01*
X75174490Y-106799016D01*
X75126365Y-106808588D01*
X75077534Y-106813398D01*
X75053000Y-106813398D01*
X75053000Y-106814000D01*
X74553000Y-106814000D01*
X74553000Y-106813398D01*
X74528466Y-106813398D01*
X74479635Y-106808588D01*
X74431510Y-106799016D01*
X74384555Y-106784772D01*
X74339222Y-106765995D01*
X74295949Y-106742864D01*
X74255150Y-106715604D01*
X74217221Y-106684476D01*
X74182524Y-106649779D01*
X74151396Y-106611850D01*
X74124136Y-106571051D01*
X74101005Y-106527778D01*
X74082228Y-106482445D01*
X74067984Y-106435490D01*
X74058412Y-106387365D01*
X74053602Y-106338534D01*
X74053602Y-106314000D01*
X74053000Y-106314000D01*
X74053000Y-105814000D01*
X75553000Y-105814000D01*
G37*
G04 #@! TD.AperFunction*
G04 #@! TA.AperFunction,SMDPad,CuDef*
G36*
X94222000Y-110767000D02*
G01*
X94222000Y-111267000D01*
X94221398Y-111267000D01*
X94221398Y-111291534D01*
X94216588Y-111340365D01*
X94207016Y-111388490D01*
X94192772Y-111435445D01*
X94173995Y-111480778D01*
X94150864Y-111524051D01*
X94123604Y-111564850D01*
X94092476Y-111602779D01*
X94057779Y-111637476D01*
X94019850Y-111668604D01*
X93979051Y-111695864D01*
X93935778Y-111718995D01*
X93890445Y-111737772D01*
X93843490Y-111752016D01*
X93795365Y-111761588D01*
X93746534Y-111766398D01*
X93722000Y-111766398D01*
X93722000Y-111767000D01*
X93222000Y-111767000D01*
X93222000Y-111766398D01*
X93197466Y-111766398D01*
X93148635Y-111761588D01*
X93100510Y-111752016D01*
X93053555Y-111737772D01*
X93008222Y-111718995D01*
X92964949Y-111695864D01*
X92924150Y-111668604D01*
X92886221Y-111637476D01*
X92851524Y-111602779D01*
X92820396Y-111564850D01*
X92793136Y-111524051D01*
X92770005Y-111480778D01*
X92751228Y-111435445D01*
X92736984Y-111388490D01*
X92727412Y-111340365D01*
X92722602Y-111291534D01*
X92722602Y-111267000D01*
X92722000Y-111267000D01*
X92722000Y-110767000D01*
X94222000Y-110767000D01*
G37*
G04 #@! TD.AperFunction*
G04 #@! TA.AperFunction,SMDPad,CuDef*
G36*
X92722602Y-109967000D02*
G01*
X92722602Y-109942466D01*
X92727412Y-109893635D01*
X92736984Y-109845510D01*
X92751228Y-109798555D01*
X92770005Y-109753222D01*
X92793136Y-109709949D01*
X92820396Y-109669150D01*
X92851524Y-109631221D01*
X92886221Y-109596524D01*
X92924150Y-109565396D01*
X92964949Y-109538136D01*
X93008222Y-109515005D01*
X93053555Y-109496228D01*
X93100510Y-109481984D01*
X93148635Y-109472412D01*
X93197466Y-109467602D01*
X93222000Y-109467602D01*
X93222000Y-109467000D01*
X93722000Y-109467000D01*
X93722000Y-109467602D01*
X93746534Y-109467602D01*
X93795365Y-109472412D01*
X93843490Y-109481984D01*
X93890445Y-109496228D01*
X93935778Y-109515005D01*
X93979051Y-109538136D01*
X94019850Y-109565396D01*
X94057779Y-109596524D01*
X94092476Y-109631221D01*
X94123604Y-109669150D01*
X94150864Y-109709949D01*
X94173995Y-109753222D01*
X94192772Y-109798555D01*
X94207016Y-109845510D01*
X94216588Y-109893635D01*
X94221398Y-109942466D01*
X94221398Y-109967000D01*
X94222000Y-109967000D01*
X94222000Y-110467000D01*
X92722000Y-110467000D01*
X92722000Y-109967000D01*
X92722602Y-109967000D01*
G37*
G04 #@! TD.AperFunction*
G04 #@! TA.AperFunction,SMDPad,CuDef*
G36*
X89685000Y-108597000D02*
G01*
X90185000Y-108597000D01*
X90185000Y-108597602D01*
X90209534Y-108597602D01*
X90258365Y-108602412D01*
X90306490Y-108611984D01*
X90353445Y-108626228D01*
X90398778Y-108645005D01*
X90442051Y-108668136D01*
X90482850Y-108695396D01*
X90520779Y-108726524D01*
X90555476Y-108761221D01*
X90586604Y-108799150D01*
X90613864Y-108839949D01*
X90636995Y-108883222D01*
X90655772Y-108928555D01*
X90670016Y-108975510D01*
X90679588Y-109023635D01*
X90684398Y-109072466D01*
X90684398Y-109097000D01*
X90685000Y-109097000D01*
X90685000Y-109597000D01*
X90684398Y-109597000D01*
X90684398Y-109621534D01*
X90679588Y-109670365D01*
X90670016Y-109718490D01*
X90655772Y-109765445D01*
X90636995Y-109810778D01*
X90613864Y-109854051D01*
X90586604Y-109894850D01*
X90555476Y-109932779D01*
X90520779Y-109967476D01*
X90482850Y-109998604D01*
X90442051Y-110025864D01*
X90398778Y-110048995D01*
X90353445Y-110067772D01*
X90306490Y-110082016D01*
X90258365Y-110091588D01*
X90209534Y-110096398D01*
X90185000Y-110096398D01*
X90185000Y-110097000D01*
X89685000Y-110097000D01*
X89685000Y-108597000D01*
G37*
G04 #@! TD.AperFunction*
G04 #@! TA.AperFunction,SMDPad,CuDef*
G36*
X88885000Y-110096398D02*
G01*
X88860466Y-110096398D01*
X88811635Y-110091588D01*
X88763510Y-110082016D01*
X88716555Y-110067772D01*
X88671222Y-110048995D01*
X88627949Y-110025864D01*
X88587150Y-109998604D01*
X88549221Y-109967476D01*
X88514524Y-109932779D01*
X88483396Y-109894850D01*
X88456136Y-109854051D01*
X88433005Y-109810778D01*
X88414228Y-109765445D01*
X88399984Y-109718490D01*
X88390412Y-109670365D01*
X88385602Y-109621534D01*
X88385602Y-109597000D01*
X88385000Y-109597000D01*
X88385000Y-109097000D01*
X88385602Y-109097000D01*
X88385602Y-109072466D01*
X88390412Y-109023635D01*
X88399984Y-108975510D01*
X88414228Y-108928555D01*
X88433005Y-108883222D01*
X88456136Y-108839949D01*
X88483396Y-108799150D01*
X88514524Y-108761221D01*
X88549221Y-108726524D01*
X88587150Y-108695396D01*
X88627949Y-108668136D01*
X88671222Y-108645005D01*
X88716555Y-108626228D01*
X88763510Y-108611984D01*
X88811635Y-108602412D01*
X88860466Y-108597602D01*
X88885000Y-108597602D01*
X88885000Y-108597000D01*
X89385000Y-108597000D01*
X89385000Y-110097000D01*
X88885000Y-110097000D01*
X88885000Y-110096398D01*
G37*
G04 #@! TD.AperFunction*
G04 #@! TA.AperFunction,SMDPad,CuDef*
G36*
X89685000Y-110756000D02*
G01*
X90185000Y-110756000D01*
X90185000Y-110756602D01*
X90209534Y-110756602D01*
X90258365Y-110761412D01*
X90306490Y-110770984D01*
X90353445Y-110785228D01*
X90398778Y-110804005D01*
X90442051Y-110827136D01*
X90482850Y-110854396D01*
X90520779Y-110885524D01*
X90555476Y-110920221D01*
X90586604Y-110958150D01*
X90613864Y-110998949D01*
X90636995Y-111042222D01*
X90655772Y-111087555D01*
X90670016Y-111134510D01*
X90679588Y-111182635D01*
X90684398Y-111231466D01*
X90684398Y-111256000D01*
X90685000Y-111256000D01*
X90685000Y-111756000D01*
X90684398Y-111756000D01*
X90684398Y-111780534D01*
X90679588Y-111829365D01*
X90670016Y-111877490D01*
X90655772Y-111924445D01*
X90636995Y-111969778D01*
X90613864Y-112013051D01*
X90586604Y-112053850D01*
X90555476Y-112091779D01*
X90520779Y-112126476D01*
X90482850Y-112157604D01*
X90442051Y-112184864D01*
X90398778Y-112207995D01*
X90353445Y-112226772D01*
X90306490Y-112241016D01*
X90258365Y-112250588D01*
X90209534Y-112255398D01*
X90185000Y-112255398D01*
X90185000Y-112256000D01*
X89685000Y-112256000D01*
X89685000Y-110756000D01*
G37*
G04 #@! TD.AperFunction*
G04 #@! TA.AperFunction,SMDPad,CuDef*
G36*
X88885000Y-112255398D02*
G01*
X88860466Y-112255398D01*
X88811635Y-112250588D01*
X88763510Y-112241016D01*
X88716555Y-112226772D01*
X88671222Y-112207995D01*
X88627949Y-112184864D01*
X88587150Y-112157604D01*
X88549221Y-112126476D01*
X88514524Y-112091779D01*
X88483396Y-112053850D01*
X88456136Y-112013051D01*
X88433005Y-111969778D01*
X88414228Y-111924445D01*
X88399984Y-111877490D01*
X88390412Y-111829365D01*
X88385602Y-111780534D01*
X88385602Y-111756000D01*
X88385000Y-111756000D01*
X88385000Y-111256000D01*
X88385602Y-111256000D01*
X88385602Y-111231466D01*
X88390412Y-111182635D01*
X88399984Y-111134510D01*
X88414228Y-111087555D01*
X88433005Y-111042222D01*
X88456136Y-110998949D01*
X88483396Y-110958150D01*
X88514524Y-110920221D01*
X88549221Y-110885524D01*
X88587150Y-110854396D01*
X88627949Y-110827136D01*
X88671222Y-110804005D01*
X88716555Y-110785228D01*
X88763510Y-110770984D01*
X88811635Y-110761412D01*
X88860466Y-110756602D01*
X88885000Y-110756602D01*
X88885000Y-110756000D01*
X89385000Y-110756000D01*
X89385000Y-112256000D01*
X88885000Y-112256000D01*
X88885000Y-112255398D01*
G37*
G04 #@! TD.AperFunction*
G04 #@! TA.AperFunction,SMDPad,CuDef*
G36*
X65671602Y-120254000D02*
G01*
X65671602Y-120229466D01*
X65676412Y-120180635D01*
X65685984Y-120132510D01*
X65700228Y-120085555D01*
X65719005Y-120040222D01*
X65742136Y-119996949D01*
X65769396Y-119956150D01*
X65800524Y-119918221D01*
X65835221Y-119883524D01*
X65873150Y-119852396D01*
X65913949Y-119825136D01*
X65957222Y-119802005D01*
X66002555Y-119783228D01*
X66049510Y-119768984D01*
X66097635Y-119759412D01*
X66146466Y-119754602D01*
X66171000Y-119754602D01*
X66171000Y-119754000D01*
X66671000Y-119754000D01*
X66671000Y-119754602D01*
X66695534Y-119754602D01*
X66744365Y-119759412D01*
X66792490Y-119768984D01*
X66839445Y-119783228D01*
X66884778Y-119802005D01*
X66928051Y-119825136D01*
X66968850Y-119852396D01*
X67006779Y-119883524D01*
X67041476Y-119918221D01*
X67072604Y-119956150D01*
X67099864Y-119996949D01*
X67122995Y-120040222D01*
X67141772Y-120085555D01*
X67156016Y-120132510D01*
X67165588Y-120180635D01*
X67170398Y-120229466D01*
X67170398Y-120254000D01*
X67171000Y-120254000D01*
X67171000Y-120754000D01*
X65671000Y-120754000D01*
X65671000Y-120254000D01*
X65671602Y-120254000D01*
G37*
G04 #@! TD.AperFunction*
G04 #@! TA.AperFunction,SMDPad,CuDef*
G36*
X67171000Y-121054000D02*
G01*
X67171000Y-121554000D01*
X67170398Y-121554000D01*
X67170398Y-121578534D01*
X67165588Y-121627365D01*
X67156016Y-121675490D01*
X67141772Y-121722445D01*
X67122995Y-121767778D01*
X67099864Y-121811051D01*
X67072604Y-121851850D01*
X67041476Y-121889779D01*
X67006779Y-121924476D01*
X66968850Y-121955604D01*
X66928051Y-121982864D01*
X66884778Y-122005995D01*
X66839445Y-122024772D01*
X66792490Y-122039016D01*
X66744365Y-122048588D01*
X66695534Y-122053398D01*
X66671000Y-122053398D01*
X66671000Y-122054000D01*
X66171000Y-122054000D01*
X66171000Y-122053398D01*
X66146466Y-122053398D01*
X66097635Y-122048588D01*
X66049510Y-122039016D01*
X66002555Y-122024772D01*
X65957222Y-122005995D01*
X65913949Y-121982864D01*
X65873150Y-121955604D01*
X65835221Y-121924476D01*
X65800524Y-121889779D01*
X65769396Y-121851850D01*
X65742136Y-121811051D01*
X65719005Y-121767778D01*
X65700228Y-121722445D01*
X65685984Y-121675490D01*
X65676412Y-121627365D01*
X65671602Y-121578534D01*
X65671602Y-121554000D01*
X65671000Y-121554000D01*
X65671000Y-121054000D01*
X67171000Y-121054000D01*
G37*
G04 #@! TD.AperFunction*
D11*
X108375000Y-127632000D03*
X100625000Y-127632000D03*
D12*
X108225000Y-123832000D03*
X100775000Y-123832000D03*
G04 #@! TA.AperFunction,SMDPad,CuDef*
D10*
G36*
X166495043Y-70012038D02*
G01*
X166737726Y-70048037D01*
X166975712Y-70107649D01*
X167206709Y-70190301D01*
X167428492Y-70295197D01*
X167638926Y-70421326D01*
X167835983Y-70567474D01*
X168017767Y-70732233D01*
X168182526Y-70914017D01*
X168328674Y-71111074D01*
X168454803Y-71321508D01*
X168559699Y-71543291D01*
X168642351Y-71774288D01*
X168701963Y-72012274D01*
X168737962Y-72254957D01*
X168750000Y-72500000D01*
X168750000Y-77500000D01*
X168737962Y-77745043D01*
X168701963Y-77987726D01*
X168642351Y-78225712D01*
X168559699Y-78456709D01*
X168454803Y-78678492D01*
X168328674Y-78888926D01*
X168182526Y-79085983D01*
X168017767Y-79267767D01*
X167835983Y-79432526D01*
X167638926Y-79578674D01*
X167428492Y-79704803D01*
X167206709Y-79809699D01*
X166975712Y-79892351D01*
X166737726Y-79951963D01*
X166495043Y-79987962D01*
X166250000Y-80000000D01*
X161250000Y-80000000D01*
X161004957Y-79987962D01*
X160762274Y-79951963D01*
X160524288Y-79892351D01*
X160293291Y-79809699D01*
X160071508Y-79704803D01*
X159861074Y-79578674D01*
X159664017Y-79432526D01*
X159482233Y-79267767D01*
X159317474Y-79085983D01*
X159171326Y-78888926D01*
X159045197Y-78678492D01*
X158940301Y-78456709D01*
X158857649Y-78225712D01*
X158798037Y-77987726D01*
X158762038Y-77745043D01*
X158750000Y-77500000D01*
X158750000Y-72500000D01*
X158762038Y-72254957D01*
X158798037Y-72012274D01*
X158857649Y-71774288D01*
X158940301Y-71543291D01*
X159045197Y-71321508D01*
X159171326Y-71111074D01*
X159317474Y-70914017D01*
X159482233Y-70732233D01*
X159664017Y-70567474D01*
X159861074Y-70421326D01*
X160071508Y-70295197D01*
X160293291Y-70190301D01*
X160524288Y-70107649D01*
X160762274Y-70048037D01*
X161004957Y-70012038D01*
X161250000Y-70000000D01*
X166250000Y-70000000D01*
X166495043Y-70012038D01*
G37*
G04 #@! TD.AperFunction*
G04 #@! TA.AperFunction,SMDPad,CuDef*
G36*
X153995043Y-70012038D02*
G01*
X154237726Y-70048037D01*
X154475712Y-70107649D01*
X154706709Y-70190301D01*
X154928492Y-70295197D01*
X155138926Y-70421326D01*
X155335983Y-70567474D01*
X155517767Y-70732233D01*
X155682526Y-70914017D01*
X155828674Y-71111074D01*
X155954803Y-71321508D01*
X156059699Y-71543291D01*
X156142351Y-71774288D01*
X156201963Y-72012274D01*
X156237962Y-72254957D01*
X156250000Y-72500000D01*
X156250000Y-77500000D01*
X156237962Y-77745043D01*
X156201963Y-77987726D01*
X156142351Y-78225712D01*
X156059699Y-78456709D01*
X155954803Y-78678492D01*
X155828674Y-78888926D01*
X155682526Y-79085983D01*
X155517767Y-79267767D01*
X155335983Y-79432526D01*
X155138926Y-79578674D01*
X154928492Y-79704803D01*
X154706709Y-79809699D01*
X154475712Y-79892351D01*
X154237726Y-79951963D01*
X153995043Y-79987962D01*
X153750000Y-80000000D01*
X148750000Y-80000000D01*
X148504957Y-79987962D01*
X148262274Y-79951963D01*
X148024288Y-79892351D01*
X147793291Y-79809699D01*
X147571508Y-79704803D01*
X147361074Y-79578674D01*
X147164017Y-79432526D01*
X146982233Y-79267767D01*
X146817474Y-79085983D01*
X146671326Y-78888926D01*
X146545197Y-78678492D01*
X146440301Y-78456709D01*
X146357649Y-78225712D01*
X146298037Y-77987726D01*
X146262038Y-77745043D01*
X146250000Y-77500000D01*
X146250000Y-72500000D01*
X146262038Y-72254957D01*
X146298037Y-72012274D01*
X146357649Y-71774288D01*
X146440301Y-71543291D01*
X146545197Y-71321508D01*
X146671326Y-71111074D01*
X146817474Y-70914017D01*
X146982233Y-70732233D01*
X147164017Y-70567474D01*
X147361074Y-70421326D01*
X147571508Y-70295197D01*
X147793291Y-70190301D01*
X148024288Y-70107649D01*
X148262274Y-70048037D01*
X148504957Y-70012038D01*
X148750000Y-70000000D01*
X153750000Y-70000000D01*
X153995043Y-70012038D01*
G37*
G04 #@! TD.AperFunction*
G04 #@! TA.AperFunction,SMDPad,CuDef*
G36*
X128995043Y-70012038D02*
G01*
X129237726Y-70048037D01*
X129475712Y-70107649D01*
X129706709Y-70190301D01*
X129928492Y-70295197D01*
X130138926Y-70421326D01*
X130335983Y-70567474D01*
X130517767Y-70732233D01*
X130682526Y-70914017D01*
X130828674Y-71111074D01*
X130954803Y-71321508D01*
X131059699Y-71543291D01*
X131142351Y-71774288D01*
X131201963Y-72012274D01*
X131237962Y-72254957D01*
X131250000Y-72500000D01*
X131250000Y-77500000D01*
X131237962Y-77745043D01*
X131201963Y-77987726D01*
X131142351Y-78225712D01*
X131059699Y-78456709D01*
X130954803Y-78678492D01*
X130828674Y-78888926D01*
X130682526Y-79085983D01*
X130517767Y-79267767D01*
X130335983Y-79432526D01*
X130138926Y-79578674D01*
X129928492Y-79704803D01*
X129706709Y-79809699D01*
X129475712Y-79892351D01*
X129237726Y-79951963D01*
X128995043Y-79987962D01*
X128750000Y-80000000D01*
X123750000Y-80000000D01*
X123504957Y-79987962D01*
X123262274Y-79951963D01*
X123024288Y-79892351D01*
X122793291Y-79809699D01*
X122571508Y-79704803D01*
X122361074Y-79578674D01*
X122164017Y-79432526D01*
X121982233Y-79267767D01*
X121817474Y-79085983D01*
X121671326Y-78888926D01*
X121545197Y-78678492D01*
X121440301Y-78456709D01*
X121357649Y-78225712D01*
X121298037Y-77987726D01*
X121262038Y-77745043D01*
X121250000Y-77500000D01*
X121250000Y-72500000D01*
X121262038Y-72254957D01*
X121298037Y-72012274D01*
X121357649Y-71774288D01*
X121440301Y-71543291D01*
X121545197Y-71321508D01*
X121671326Y-71111074D01*
X121817474Y-70914017D01*
X121982233Y-70732233D01*
X122164017Y-70567474D01*
X122361074Y-70421326D01*
X122571508Y-70295197D01*
X122793291Y-70190301D01*
X123024288Y-70107649D01*
X123262274Y-70048037D01*
X123504957Y-70012038D01*
X123750000Y-70000000D01*
X128750000Y-70000000D01*
X128995043Y-70012038D01*
G37*
G04 #@! TD.AperFunction*
G04 #@! TA.AperFunction,SMDPad,CuDef*
G36*
X128995043Y-57012038D02*
G01*
X129237726Y-57048037D01*
X129475712Y-57107649D01*
X129706709Y-57190301D01*
X129928492Y-57295197D01*
X130138926Y-57421326D01*
X130335983Y-57567474D01*
X130517767Y-57732233D01*
X130682526Y-57914017D01*
X130828674Y-58111074D01*
X130954803Y-58321508D01*
X131059699Y-58543291D01*
X131142351Y-58774288D01*
X131201963Y-59012274D01*
X131237962Y-59254957D01*
X131250000Y-59500000D01*
X131250000Y-64500000D01*
X131237962Y-64745043D01*
X131201963Y-64987726D01*
X131142351Y-65225712D01*
X131059699Y-65456709D01*
X130954803Y-65678492D01*
X130828674Y-65888926D01*
X130682526Y-66085983D01*
X130517767Y-66267767D01*
X130335983Y-66432526D01*
X130138926Y-66578674D01*
X129928492Y-66704803D01*
X129706709Y-66809699D01*
X129475712Y-66892351D01*
X129237726Y-66951963D01*
X128995043Y-66987962D01*
X128750000Y-67000000D01*
X123750000Y-67000000D01*
X123504957Y-66987962D01*
X123262274Y-66951963D01*
X123024288Y-66892351D01*
X122793291Y-66809699D01*
X122571508Y-66704803D01*
X122361074Y-66578674D01*
X122164017Y-66432526D01*
X121982233Y-66267767D01*
X121817474Y-66085983D01*
X121671326Y-65888926D01*
X121545197Y-65678492D01*
X121440301Y-65456709D01*
X121357649Y-65225712D01*
X121298037Y-64987726D01*
X121262038Y-64745043D01*
X121250000Y-64500000D01*
X121250000Y-59500000D01*
X121262038Y-59254957D01*
X121298037Y-59012274D01*
X121357649Y-58774288D01*
X121440301Y-58543291D01*
X121545197Y-58321508D01*
X121671326Y-58111074D01*
X121817474Y-57914017D01*
X121982233Y-57732233D01*
X122164017Y-57567474D01*
X122361074Y-57421326D01*
X122571508Y-57295197D01*
X122793291Y-57190301D01*
X123024288Y-57107649D01*
X123262274Y-57048037D01*
X123504957Y-57012038D01*
X123750000Y-57000000D01*
X128750000Y-57000000D01*
X128995043Y-57012038D01*
G37*
G04 #@! TD.AperFunction*
G04 #@! TA.AperFunction,SMDPad,CuDef*
G36*
X153995043Y-57012038D02*
G01*
X154237726Y-57048037D01*
X154475712Y-57107649D01*
X154706709Y-57190301D01*
X154928492Y-57295197D01*
X155138926Y-57421326D01*
X155335983Y-57567474D01*
X155517767Y-57732233D01*
X155682526Y-57914017D01*
X155828674Y-58111074D01*
X155954803Y-58321508D01*
X156059699Y-58543291D01*
X156142351Y-58774288D01*
X156201963Y-59012274D01*
X156237962Y-59254957D01*
X156250000Y-59500000D01*
X156250000Y-64500000D01*
X156237962Y-64745043D01*
X156201963Y-64987726D01*
X156142351Y-65225712D01*
X156059699Y-65456709D01*
X155954803Y-65678492D01*
X155828674Y-65888926D01*
X155682526Y-66085983D01*
X155517767Y-66267767D01*
X155335983Y-66432526D01*
X155138926Y-66578674D01*
X154928492Y-66704803D01*
X154706709Y-66809699D01*
X154475712Y-66892351D01*
X154237726Y-66951963D01*
X153995043Y-66987962D01*
X153750000Y-67000000D01*
X148750000Y-67000000D01*
X148504957Y-66987962D01*
X148262274Y-66951963D01*
X148024288Y-66892351D01*
X147793291Y-66809699D01*
X147571508Y-66704803D01*
X147361074Y-66578674D01*
X147164017Y-66432526D01*
X146982233Y-66267767D01*
X146817474Y-66085983D01*
X146671326Y-65888926D01*
X146545197Y-65678492D01*
X146440301Y-65456709D01*
X146357649Y-65225712D01*
X146298037Y-64987726D01*
X146262038Y-64745043D01*
X146250000Y-64500000D01*
X146250000Y-59500000D01*
X146262038Y-59254957D01*
X146298037Y-59012274D01*
X146357649Y-58774288D01*
X146440301Y-58543291D01*
X146545197Y-58321508D01*
X146671326Y-58111074D01*
X146817474Y-57914017D01*
X146982233Y-57732233D01*
X147164017Y-57567474D01*
X147361074Y-57421326D01*
X147571508Y-57295197D01*
X147793291Y-57190301D01*
X148024288Y-57107649D01*
X148262274Y-57048037D01*
X148504957Y-57012038D01*
X148750000Y-57000000D01*
X153750000Y-57000000D01*
X153995043Y-57012038D01*
G37*
G04 #@! TD.AperFunction*
G04 #@! TA.AperFunction,SMDPad,CuDef*
G36*
X141495043Y-57012038D02*
G01*
X141737726Y-57048037D01*
X141975712Y-57107649D01*
X142206709Y-57190301D01*
X142428492Y-57295197D01*
X142638926Y-57421326D01*
X142835983Y-57567474D01*
X143017767Y-57732233D01*
X143182526Y-57914017D01*
X143328674Y-58111074D01*
X143454803Y-58321508D01*
X143559699Y-58543291D01*
X143642351Y-58774288D01*
X143701963Y-59012274D01*
X143737962Y-59254957D01*
X143750000Y-59500000D01*
X143750000Y-64500000D01*
X143737962Y-64745043D01*
X143701963Y-64987726D01*
X143642351Y-65225712D01*
X143559699Y-65456709D01*
X143454803Y-65678492D01*
X143328674Y-65888926D01*
X143182526Y-66085983D01*
X143017767Y-66267767D01*
X142835983Y-66432526D01*
X142638926Y-66578674D01*
X142428492Y-66704803D01*
X142206709Y-66809699D01*
X141975712Y-66892351D01*
X141737726Y-66951963D01*
X141495043Y-66987962D01*
X141250000Y-67000000D01*
X136250000Y-67000000D01*
X136004957Y-66987962D01*
X135762274Y-66951963D01*
X135524288Y-66892351D01*
X135293291Y-66809699D01*
X135071508Y-66704803D01*
X134861074Y-66578674D01*
X134664017Y-66432526D01*
X134482233Y-66267767D01*
X134317474Y-66085983D01*
X134171326Y-65888926D01*
X134045197Y-65678492D01*
X133940301Y-65456709D01*
X133857649Y-65225712D01*
X133798037Y-64987726D01*
X133762038Y-64745043D01*
X133750000Y-64500000D01*
X133750000Y-59500000D01*
X133762038Y-59254957D01*
X133798037Y-59012274D01*
X133857649Y-58774288D01*
X133940301Y-58543291D01*
X134045197Y-58321508D01*
X134171326Y-58111074D01*
X134317474Y-57914017D01*
X134482233Y-57732233D01*
X134664017Y-57567474D01*
X134861074Y-57421326D01*
X135071508Y-57295197D01*
X135293291Y-57190301D01*
X135524288Y-57107649D01*
X135762274Y-57048037D01*
X136004957Y-57012038D01*
X136250000Y-57000000D01*
X141250000Y-57000000D01*
X141495043Y-57012038D01*
G37*
G04 #@! TD.AperFunction*
G04 #@! TA.AperFunction,SMDPad,CuDef*
G36*
X166495043Y-57012038D02*
G01*
X166737726Y-57048037D01*
X166975712Y-57107649D01*
X167206709Y-57190301D01*
X167428492Y-57295197D01*
X167638926Y-57421326D01*
X167835983Y-57567474D01*
X168017767Y-57732233D01*
X168182526Y-57914017D01*
X168328674Y-58111074D01*
X168454803Y-58321508D01*
X168559699Y-58543291D01*
X168642351Y-58774288D01*
X168701963Y-59012274D01*
X168737962Y-59254957D01*
X168750000Y-59500000D01*
X168750000Y-64500000D01*
X168737962Y-64745043D01*
X168701963Y-64987726D01*
X168642351Y-65225712D01*
X168559699Y-65456709D01*
X168454803Y-65678492D01*
X168328674Y-65888926D01*
X168182526Y-66085983D01*
X168017767Y-66267767D01*
X167835983Y-66432526D01*
X167638926Y-66578674D01*
X167428492Y-66704803D01*
X167206709Y-66809699D01*
X166975712Y-66892351D01*
X166737726Y-66951963D01*
X166495043Y-66987962D01*
X166250000Y-67000000D01*
X161250000Y-67000000D01*
X161004957Y-66987962D01*
X160762274Y-66951963D01*
X160524288Y-66892351D01*
X160293291Y-66809699D01*
X160071508Y-66704803D01*
X159861074Y-66578674D01*
X159664017Y-66432526D01*
X159482233Y-66267767D01*
X159317474Y-66085983D01*
X159171326Y-65888926D01*
X159045197Y-65678492D01*
X158940301Y-65456709D01*
X158857649Y-65225712D01*
X158798037Y-64987726D01*
X158762038Y-64745043D01*
X158750000Y-64500000D01*
X158750000Y-59500000D01*
X158762038Y-59254957D01*
X158798037Y-59012274D01*
X158857649Y-58774288D01*
X158940301Y-58543291D01*
X159045197Y-58321508D01*
X159171326Y-58111074D01*
X159317474Y-57914017D01*
X159482233Y-57732233D01*
X159664017Y-57567474D01*
X159861074Y-57421326D01*
X160071508Y-57295197D01*
X160293291Y-57190301D01*
X160524288Y-57107649D01*
X160762274Y-57048037D01*
X161004957Y-57012038D01*
X161250000Y-57000000D01*
X166250000Y-57000000D01*
X166495043Y-57012038D01*
G37*
G04 #@! TD.AperFunction*
D13*
X72272000Y-124285000D03*
X72272000Y-123015000D03*
X73542000Y-124285000D03*
X73542000Y-123015000D03*
X74812000Y-124285000D03*
X74812000Y-123015000D03*
X76082000Y-124285000D03*
X76082000Y-123015000D03*
X77352000Y-124285000D03*
D14*
X77352000Y-123015000D03*
D15*
X90433000Y-119967000D03*
D16*
X92973000Y-119967000D03*
D17*
X72009000Y-118574000D03*
X66040000Y-126492000D03*
X64643000Y-126492000D03*
X69215000Y-126492000D03*
X67945000Y-126492000D03*
X102879000Y-113363000D03*
X104149000Y-113363000D03*
X104149000Y-114633000D03*
X102879000Y-114633000D03*
X99577000Y-101806000D03*
X95513000Y-99266000D03*
X90560000Y-95202000D03*
X88782000Y-95202000D03*
X87131000Y-95202000D03*
X79511000Y-94948000D03*
X98942000Y-95456000D03*
X81289000Y-94948000D03*
X72018000Y-116919000D03*
X72907000Y-116919000D03*
X80654000Y-125809000D03*
X85988000Y-125936000D03*
X106181000Y-122507000D03*
X108086000Y-121872000D03*
X102117000Y-117808000D03*
X102664000Y-117121997D03*
X100847000Y-110315004D03*
X113166000Y-104219000D03*
X109864000Y-101679000D03*
X65287000Y-97742000D03*
X68589000Y-98250000D03*
X78232000Y-120269000D03*
X86868000Y-116459000D03*
X86741000Y-119761000D03*
X85725000Y-120729000D03*
X85725000Y-119840000D03*
X86360000Y-104394000D03*
X86360000Y-102743000D03*
X84836000Y-102743000D03*
X83185000Y-102743000D03*
X102743000Y-100584000D03*
X102743000Y-101981000D03*
X102743000Y-103378000D03*
X101981000Y-102616000D03*
X101981000Y-101219000D03*
X91821000Y-105626000D03*
X98425000Y-112490814D03*
X98425000Y-111506000D03*
X98298000Y-109220000D03*
X109728000Y-112141000D03*
X108077000Y-112141000D03*
X111633000Y-116205000D03*
X111633000Y-117094000D03*
X110617000Y-117856000D03*
X110617000Y-118745000D03*
X94869000Y-108458000D03*
X97536000Y-108458000D03*
X78232000Y-118837010D03*
X80400000Y-121364000D03*
X81289000Y-121364000D03*
X83067000Y-121364000D03*
X82178000Y-121364000D03*
X78105000Y-97409000D03*
X77089000Y-97409000D03*
X77089000Y-98425000D03*
X78105000Y-98425000D03*
X76073000Y-97409000D03*
X76073000Y-98425000D03*
X107188000Y-109855000D03*
X107188000Y-106876000D03*
X107188000Y-111633000D03*
X91313000Y-115196000D03*
X95923003Y-114496000D03*
X95885000Y-108839000D03*
X93472000Y-105626000D03*
X84836000Y-121920000D03*
X86487000Y-121920000D03*
D18*
X77089000Y-120904000D03*
D17*
X66929000Y-122809000D03*
X65913000Y-122809000D03*
X67085000Y-119324000D03*
X68085000Y-119324000D03*
X69085000Y-119324000D03*
X68585000Y-120074000D03*
X67585000Y-120074000D03*
D18*
X109609999Y-125428000D03*
X100330000Y-99568000D03*
X111506000Y-114808000D03*
X111506000Y-113792000D03*
X100584000Y-121920000D03*
X100584000Y-120650000D03*
D17*
X84201000Y-101219000D03*
X88782990Y-101219000D03*
X170189000Y-61674000D03*
X163457994Y-81740000D03*
X157489000Y-79835000D03*
X151266000Y-81613000D03*
X138693000Y-80724000D03*
X136534000Y-81613000D03*
X134375000Y-82629000D03*
X149107000Y-89614000D03*
X139709000Y-92408000D03*
X152155000Y-117173000D03*
X102108000Y-106968990D03*
X98044000Y-117348000D03*
X105283000Y-117094000D03*
X96647000Y-104902000D03*
X87757000Y-104902000D03*
X144405558Y-128358990D03*
X132745295Y-127417795D03*
X125739000Y-127714000D03*
X160283000Y-127079000D03*
X155829000Y-128397000D03*
X156981000Y-129238000D03*
X120278000Y-126698000D03*
X133613000Y-128358990D03*
X131454000Y-128349000D03*
X146186000Y-128603000D03*
X153679000Y-127079000D03*
X154695000Y-126444000D03*
X166379000Y-126444000D03*
X165236000Y-126444000D03*
X167522000Y-126444000D03*
X168538000Y-126444000D03*
X170824000Y-126444000D03*
X169681000Y-126444000D03*
X166887000Y-128984000D03*
X168030000Y-128984000D03*
X169173000Y-128984000D03*
X166379000Y-97615000D03*
X169554000Y-100155000D03*
X150758000Y-127968000D03*
X148980000Y-127968000D03*
X136407000Y-127908979D03*
X138185000Y-127908979D03*
X120278000Y-102695000D03*
X123580000Y-105235000D03*
X142757004Y-127079000D03*
X129930000Y-121554500D03*
X131835000Y-127079000D03*
X130184004Y-127079000D03*
X144154000Y-127460000D03*
X169681000Y-121491000D03*
X170824000Y-121491000D03*
X168538000Y-121491000D03*
X166379000Y-119078000D03*
X165236000Y-119078000D03*
X167522000Y-119078000D03*
X167522000Y-121491000D03*
X166379000Y-121491000D03*
X165236000Y-121491000D03*
X139709000Y-126952000D03*
X152282000Y-126190000D03*
X156092000Y-125047000D03*
X162823000Y-125809000D03*
X105038000Y-109679994D03*
X99069000Y-109680000D03*
X104276000Y-108918010D03*
X99704000Y-108918000D03*
X79384000Y-124793000D03*
X89544000Y-124793000D03*
X67818000Y-117221000D03*
X70485000Y-127127000D03*
X112912000Y-128857000D03*
X74558000Y-116988989D03*
X88147004Y-117046000D03*
X88119873Y-128090479D03*
X74548990Y-109347000D03*
X90560000Y-124158000D03*
X75438000Y-118237000D03*
X111896000Y-128730000D03*
X88782000Y-117808000D03*
X88773004Y-128905000D03*
X73669000Y-117255990D03*
X73659998Y-111506000D03*
X100593000Y-113871000D03*
X88020000Y-113871000D03*
X85344000Y-106807000D03*
X88011000Y-106807000D03*
X91694000Y-99949000D03*
X66548000Y-99314000D03*
X91313000Y-94742000D03*
X66675000Y-98171000D03*
X103251000Y-117856000D03*
X104648000Y-117856000D03*
X100329000Y-113115814D03*
X87376000Y-110109000D03*
X85090000Y-110109000D03*
X87382902Y-113156020D03*
X112658000Y-108156000D03*
X77978000Y-107569000D03*
X112658000Y-106251000D03*
X81416000Y-106251000D03*
X72272000Y-127460000D03*
X71129000Y-125047000D03*
X71510000Y-121999000D03*
X75438000Y-107696000D03*
X71494010Y-107696000D03*
X72009000Y-119824000D03*
X72585000Y-119253000D03*
X78105000Y-102489006D03*
X91567000Y-112490814D03*
X68580000Y-117602000D03*
X75184000Y-120015000D03*
X113030000Y-119253000D03*
X82550000Y-115824000D03*
X73025000Y-114554000D03*
X93853000Y-114554006D03*
X91694000Y-109474000D03*
X69342000Y-108204002D03*
X79248000Y-102489000D03*
X80175013Y-102489000D03*
X90932000Y-111506000D03*
X77343000Y-110744000D03*
X77089000Y-106680000D03*
X90170000Y-105502000D03*
X90553979Y-109867071D03*
X75438000Y-112522000D03*
X74549000Y-107061000D03*
D19*
X94869000Y-108570000D02*
X94869000Y-108458000D01*
X93472000Y-109967000D02*
X94869000Y-108570000D01*
D20*
X100895685Y-99568000D02*
X100330000Y-99568000D01*
X109609999Y-125428000D02*
X114436000Y-120601999D01*
X114436000Y-102187000D02*
X111817000Y-99568000D01*
X111817000Y-99568000D02*
X100895685Y-99568000D01*
X114436000Y-120601999D02*
X114436000Y-102187000D01*
D21*
X84201000Y-101219000D02*
X88782990Y-101219000D01*
D22*
X166887000Y-61674000D02*
X169764736Y-61674000D01*
X169764736Y-61674000D02*
X170189000Y-61674000D01*
X163839000Y-79073000D02*
X163457994Y-79454006D01*
X163457994Y-79454006D02*
X163457994Y-81315736D01*
X163457994Y-81315736D02*
X163457994Y-81740000D01*
X157489000Y-79410736D02*
X157489000Y-79835000D01*
X157489000Y-69611500D02*
X157489000Y-79410736D01*
X151266000Y-66373000D02*
X151266000Y-67770000D01*
X156155500Y-68278000D02*
X157489000Y-69611500D01*
X151774000Y-68278000D02*
X156155500Y-68278000D01*
X151266000Y-67770000D02*
X151774000Y-68278000D01*
X151266000Y-79327000D02*
X151266000Y-81613000D01*
X151266000Y-81613000D02*
X151266000Y-81613000D01*
X138693000Y-65738000D02*
X138693000Y-68024000D01*
X138693000Y-68024000D02*
X138693000Y-79200000D01*
X138693000Y-79200000D02*
X138693000Y-80724000D01*
X126120000Y-67897000D02*
X126628000Y-68405000D01*
X126628000Y-68405000D02*
X133232000Y-68405000D01*
X133232000Y-68405000D02*
X136534000Y-71707000D01*
X136534000Y-71707000D02*
X136534000Y-79073000D01*
X126120000Y-65992000D02*
X126120000Y-67897000D01*
X136534000Y-79073000D02*
X136534000Y-81613000D01*
X130946000Y-75136000D02*
X132851000Y-75136000D01*
X132851000Y-75136000D02*
X133359000Y-75136000D01*
X133359000Y-75136000D02*
X134375000Y-76152000D01*
X134375000Y-76152000D02*
X134375000Y-79073000D01*
X134375000Y-79073000D02*
X134375000Y-81740000D01*
X134375000Y-81740000D02*
X134375000Y-82629000D01*
D21*
X98895004Y-116496996D02*
X103161996Y-116496996D01*
X98044000Y-117348000D02*
X98895004Y-116496996D01*
X103759000Y-117094000D02*
X105283000Y-117094000D01*
X103161996Y-116496996D02*
X103759000Y-117094000D01*
D19*
X96647000Y-104902000D02*
X87757000Y-104902000D01*
D21*
X132445296Y-127717794D02*
X125742794Y-127717794D01*
X125742794Y-127717794D02*
X125739000Y-127714000D01*
X132745295Y-127417795D02*
X132445296Y-127717794D01*
X133169559Y-127417795D02*
X132745295Y-127417795D01*
X133570795Y-127417795D02*
X133169559Y-127417795D01*
X134686989Y-128533989D02*
X133570795Y-127417795D01*
X144230559Y-128533989D02*
X134686989Y-128533989D01*
X144405558Y-128358990D02*
X144230559Y-128533989D01*
X158965000Y-128397000D02*
X155829000Y-128397000D01*
X160283000Y-127079000D02*
X158965000Y-128397000D01*
X155194000Y-129032000D02*
X155829000Y-128397000D01*
X147885000Y-129032000D02*
X155194000Y-129032000D01*
X144786549Y-127977999D02*
X146830999Y-127977999D01*
X146830999Y-127977999D02*
X147885000Y-129032000D01*
X144405558Y-128358990D02*
X144786549Y-127977999D01*
X156644007Y-129574993D02*
X123154993Y-129574993D01*
X123154993Y-129574993D02*
X120577999Y-126997999D01*
X120577999Y-126997999D02*
X120278000Y-126698000D01*
X156981000Y-129238000D02*
X156644007Y-129574993D01*
X133603010Y-128349000D02*
X133613000Y-128358990D01*
X131454000Y-128349000D02*
X133603010Y-128349000D01*
X134238010Y-128984000D02*
X145805000Y-128984000D01*
X145886001Y-128902999D02*
X146186000Y-128603000D01*
X145805000Y-128984000D02*
X145886001Y-128902999D01*
X133613000Y-128358990D02*
X134238010Y-128984000D01*
X105038000Y-109679994D02*
X99069006Y-109679994D01*
X99069006Y-109679994D02*
X99069000Y-109680000D01*
X99704000Y-108918000D02*
X104275990Y-108918000D01*
X104275990Y-108918000D02*
X104276000Y-108918010D01*
D19*
X79384000Y-124793000D02*
X89544000Y-124793000D01*
X70060736Y-127127000D02*
X70485000Y-127127000D01*
X67691998Y-127127000D02*
X70060736Y-127127000D01*
X66421000Y-117221000D02*
X64389000Y-119253000D01*
X64389000Y-119253000D02*
X64389000Y-123824002D01*
X64389000Y-123824002D02*
X67691998Y-127127000D01*
X67818000Y-117221000D02*
X66421000Y-117221000D01*
X74558000Y-116988989D02*
X88089993Y-116988989D01*
X88089993Y-116988989D02*
X88147004Y-117046000D01*
X88119873Y-128514743D02*
X88119873Y-128090479D01*
X88579944Y-129599990D02*
X88119873Y-129139919D01*
X88119873Y-129139919D02*
X88119873Y-128514743D01*
X112912000Y-128857000D02*
X112169010Y-129599990D01*
X112169010Y-129599990D02*
X88579944Y-129599990D01*
X88885000Y-109347000D02*
X74549000Y-109347000D01*
X90509004Y-124107004D02*
X90560000Y-124158000D01*
X75438000Y-118237000D02*
X78660003Y-118237000D01*
X79276004Y-124107004D02*
X90509004Y-124107004D01*
X78660003Y-118237000D02*
X78972402Y-118549399D01*
X78972402Y-123803402D02*
X79276004Y-124107004D01*
X78972402Y-118549399D02*
X78972402Y-123803402D01*
X111896000Y-128730000D02*
X111596001Y-129029999D01*
X111596001Y-129029999D02*
X88898003Y-129029999D01*
X88898003Y-129029999D02*
X88773004Y-128905000D01*
X87674995Y-117588999D02*
X74299273Y-117588999D01*
X88782000Y-117808000D02*
X87893996Y-117808000D01*
X87893996Y-117808000D02*
X87674995Y-117588999D01*
X73966264Y-117255990D02*
X73669000Y-117255990D01*
X74299273Y-117588999D02*
X73966264Y-117255990D01*
X88885000Y-111506000D02*
X73659998Y-111506000D01*
D21*
X100593000Y-113871000D02*
X88020000Y-113871000D01*
D19*
X88011000Y-106807000D02*
X85344000Y-106807000D01*
X91694000Y-99949000D02*
X91694000Y-97790000D01*
X91694000Y-97790000D02*
X90170000Y-96266000D01*
X69596000Y-96266000D02*
X66548000Y-99314000D01*
X90170000Y-96266000D02*
X69596000Y-96266000D01*
X91358999Y-94787999D02*
X91313000Y-94742000D01*
X81577001Y-95548001D02*
X69297999Y-95548001D01*
X91013001Y-94442001D02*
X82683001Y-94442001D01*
X91313000Y-94742000D02*
X91013001Y-94442001D01*
X66974999Y-97871001D02*
X66675000Y-98171000D01*
X82683001Y-94442001D02*
X81577001Y-95548001D01*
X69297999Y-95548001D02*
X66974999Y-97871001D01*
X103251000Y-117856000D02*
X104648000Y-117856000D01*
X87376000Y-110109000D02*
X85090000Y-110109000D01*
D21*
X100329000Y-113115814D02*
X87423108Y-113115814D01*
X87423108Y-113115814D02*
X87382902Y-113156020D01*
D19*
X112071000Y-107569000D02*
X112658000Y-108156000D01*
X77978000Y-107569000D02*
X112071000Y-107569000D01*
D21*
X81909265Y-106181999D02*
X81840264Y-106251000D01*
X81840264Y-106251000D02*
X81416000Y-106251000D01*
X88507002Y-106251000D02*
X88438001Y-106181999D01*
X88438001Y-106181999D02*
X81909265Y-106181999D01*
X112658000Y-106251000D02*
X88507002Y-106251000D01*
D19*
X72272000Y-127460000D02*
X72272000Y-124285000D01*
X71129000Y-122380000D02*
X71510000Y-121999000D01*
X71129000Y-125047000D02*
X71129000Y-122380000D01*
X75438000Y-107696000D02*
X71494010Y-107696000D01*
X77680736Y-102489006D02*
X78105000Y-102489006D01*
X74930000Y-105014000D02*
X77454994Y-102489006D01*
X77454994Y-102489006D02*
X77680736Y-102489006D01*
X92248186Y-112490814D02*
X93472000Y-111267000D01*
X91567000Y-112490814D02*
X92248186Y-112490814D01*
X75184000Y-119126000D02*
X75184000Y-120015000D01*
X73914000Y-117856000D02*
X75184000Y-119126000D01*
X68834000Y-117856000D02*
X73914000Y-117856000D01*
X68580000Y-117602000D02*
X68834000Y-117856000D01*
X112603999Y-118953001D02*
X109474998Y-115824000D01*
X112730001Y-118953001D02*
X112603999Y-118953001D01*
X113030000Y-119253000D02*
X112730001Y-118953001D01*
X109474998Y-115824000D02*
X82974264Y-115824000D01*
X82974264Y-115824000D02*
X82550000Y-115824000D01*
X73025000Y-114554000D02*
X93852994Y-114554000D01*
X93852994Y-114554000D02*
X93853000Y-114554006D01*
X91151990Y-108296990D02*
X69859252Y-108296990D01*
X91694000Y-109474000D02*
X91694000Y-108839000D01*
X69766264Y-108204002D02*
X69342000Y-108204002D01*
X91694000Y-108839000D02*
X91151990Y-108296990D01*
X69859252Y-108296990D02*
X69766264Y-108204002D01*
X79121000Y-102489000D02*
X79248000Y-102489000D01*
X77343000Y-104267000D02*
X79121000Y-102489000D01*
X77343000Y-105014000D02*
X77343000Y-104267000D01*
X79883000Y-104887000D02*
X79883000Y-102781013D01*
X79883000Y-102781013D02*
X80175013Y-102489000D01*
X79756000Y-105014000D02*
X79883000Y-104887000D01*
X90932000Y-111506000D02*
X90185000Y-111506000D01*
X77089000Y-106568000D02*
X77343000Y-106314000D01*
X77089000Y-106680000D02*
X77089000Y-106568000D01*
X77470000Y-110744000D02*
X77343000Y-110744000D01*
X90373200Y-110439200D02*
X87933802Y-110439200D01*
X90932000Y-110998000D02*
X90373200Y-110439200D01*
X90932000Y-111506000D02*
X90932000Y-110998000D01*
X87933802Y-110439200D02*
X87629002Y-110744000D01*
X87629002Y-110744000D02*
X77470000Y-110744000D01*
X79771000Y-106299000D02*
X79756000Y-106314000D01*
X80518000Y-106299000D02*
X79771000Y-106299000D01*
X81315000Y-105502000D02*
X80518000Y-106299000D01*
X90170000Y-105502000D02*
X81315000Y-105502000D01*
X90185000Y-109498092D02*
X90253980Y-109567072D01*
X90185000Y-109347000D02*
X90185000Y-109498092D01*
X90253980Y-109567072D02*
X90553979Y-109867071D01*
X90512972Y-112556010D02*
X79594990Y-112556010D01*
X90578168Y-112490814D02*
X90512972Y-112556010D01*
X91567000Y-112490814D02*
X90578168Y-112490814D01*
X75472010Y-112556010D02*
X75438000Y-112522000D01*
X79594990Y-112556010D02*
X75472010Y-112556010D01*
X74930000Y-106314000D02*
X74930000Y-106680000D01*
X74930000Y-106680000D02*
X74549000Y-107061000D01*
D23*
G36*
X74458000Y-119053330D02*
G01*
X74458000Y-120697000D01*
X65462000Y-120697000D01*
X65462000Y-119126382D01*
X66219828Y-118364000D01*
X73736104Y-118364000D01*
X74458000Y-119053330D01*
G37*
X74458000Y-119053330D02*
X74458000Y-120697000D01*
X65462000Y-120697000D01*
X65462000Y-119126382D01*
X66219828Y-118364000D01*
X73736104Y-118364000D01*
X74458000Y-119053330D01*
D10*
G36*
X67514000Y-123042290D02*
G01*
X67289290Y-123267000D01*
X65605710Y-123267000D01*
X65385000Y-123046290D01*
X65385000Y-121117000D01*
X67514000Y-121117000D01*
X67514000Y-123042290D01*
G37*
X67514000Y-123042290D02*
X67289290Y-123267000D01*
X65605710Y-123267000D01*
X65385000Y-123046290D01*
X65385000Y-121117000D01*
X67514000Y-121117000D01*
X67514000Y-123042290D01*
M02*
