G04 #@! TF.GenerationSoftware,KiCad,Pcbnew,(5.1.5-0-10_14)*
G04 #@! TF.CreationDate,2020-11-25T20:38:56+01:00*
G04 #@! TF.ProjectId,fl-remote,666c2d72-656d-46f7-9465-2e6b69636164,rev?*
G04 #@! TF.SameCoordinates,Original*
G04 #@! TF.FileFunction,Soldermask,Bot*
G04 #@! TF.FilePolarity,Negative*
%FSLAX46Y46*%
G04 Gerber Fmt 4.6, Leading zero omitted, Abs format (unit mm)*
G04 Created by KiCad (PCBNEW (5.1.5-0-10_14)) date 2020-11-25 20:38:56*
%MOMM*%
%LPD*%
G04 APERTURE LIST*
%ADD10C,30.000000*%
%ADD11C,0.100000*%
G04 APERTURE END LIST*
D10*
X150194108Y-106846000D02*
G75*
G03X150194108Y-106846000I-5143108J0D01*
G01*
D11*
G36*
X83445260Y-128679371D02*
G01*
X83479071Y-128693376D01*
X83522784Y-128711482D01*
X83522787Y-128711484D01*
X83592559Y-128758104D01*
X83651896Y-128817441D01*
X83651897Y-128817443D01*
X83698518Y-128887216D01*
X83716624Y-128930929D01*
X83730629Y-128964740D01*
X83747000Y-129047043D01*
X83747000Y-129130957D01*
X83730629Y-129213260D01*
X83716624Y-129247071D01*
X83698518Y-129290784D01*
X83698516Y-129290787D01*
X83651896Y-129360559D01*
X83592559Y-129419896D01*
X83522787Y-129466516D01*
X83522784Y-129466518D01*
X83479071Y-129484624D01*
X83445260Y-129498629D01*
X83362957Y-129515000D01*
X83279043Y-129515000D01*
X83196740Y-129498629D01*
X83162929Y-129484624D01*
X83119216Y-129466518D01*
X83119213Y-129466516D01*
X83049441Y-129419896D01*
X82990104Y-129360559D01*
X82943484Y-129290787D01*
X82943482Y-129290784D01*
X82925376Y-129247071D01*
X82911371Y-129213260D01*
X82895000Y-129130957D01*
X82895000Y-129047043D01*
X82911371Y-128964740D01*
X82925376Y-128930929D01*
X82943482Y-128887216D01*
X82990103Y-128817443D01*
X82990104Y-128817441D01*
X83049441Y-128758104D01*
X83119213Y-128711484D01*
X83119216Y-128711482D01*
X83162929Y-128693376D01*
X83196740Y-128679371D01*
X83279043Y-128663000D01*
X83362957Y-128663000D01*
X83445260Y-128679371D01*
G37*
G36*
X108497714Y-126690058D02*
G01*
X108615721Y-126725855D01*
X108724468Y-126783981D01*
X108819790Y-126862210D01*
X108898019Y-126957532D01*
X108956145Y-127066278D01*
X108991942Y-127184285D01*
X109001000Y-127276254D01*
X109001000Y-127987746D01*
X108991942Y-128079715D01*
X108956145Y-128197722D01*
X108898019Y-128306468D01*
X108819790Y-128401790D01*
X108724468Y-128480019D01*
X108615722Y-128538145D01*
X108497715Y-128573942D01*
X108375000Y-128586028D01*
X108252286Y-128573942D01*
X108134279Y-128538145D01*
X108025533Y-128480019D01*
X107930211Y-128401790D01*
X107851982Y-128306468D01*
X107793855Y-128197721D01*
X107758058Y-128079715D01*
X107749000Y-127987746D01*
X107749000Y-127276255D01*
X107758058Y-127184286D01*
X107793855Y-127066279D01*
X107851981Y-126957532D01*
X107930210Y-126862210D01*
X108025532Y-126783981D01*
X108134278Y-126725855D01*
X108252285Y-126690058D01*
X108375000Y-126677972D01*
X108497714Y-126690058D01*
G37*
G36*
X100747714Y-126690058D02*
G01*
X100865721Y-126725855D01*
X100974468Y-126783981D01*
X101069790Y-126862210D01*
X101148019Y-126957532D01*
X101206145Y-127066278D01*
X101241942Y-127184285D01*
X101251000Y-127276254D01*
X101251000Y-127987746D01*
X101241942Y-128079715D01*
X101206145Y-128197722D01*
X101148019Y-128306468D01*
X101069790Y-128401790D01*
X100974468Y-128480019D01*
X100865722Y-128538145D01*
X100747715Y-128573942D01*
X100625000Y-128586028D01*
X100502286Y-128573942D01*
X100384279Y-128538145D01*
X100275533Y-128480019D01*
X100180211Y-128401790D01*
X100101982Y-128306468D01*
X100043855Y-128197721D01*
X100008058Y-128079715D01*
X99999000Y-127987746D01*
X99999000Y-127276255D01*
X100008058Y-127184286D01*
X100043855Y-127066279D01*
X100101981Y-126957532D01*
X100180210Y-126862210D01*
X100275532Y-126783981D01*
X100384278Y-126725855D01*
X100502285Y-126690058D01*
X100625000Y-126677972D01*
X100747714Y-126690058D01*
G37*
G36*
X83445260Y-125929371D02*
G01*
X83479071Y-125943376D01*
X83522784Y-125961482D01*
X83522787Y-125961484D01*
X83592559Y-126008104D01*
X83651896Y-126067441D01*
X83651897Y-126067443D01*
X83698518Y-126137216D01*
X83716624Y-126180929D01*
X83730629Y-126214740D01*
X83747000Y-126297043D01*
X83747000Y-126380957D01*
X83730629Y-126463260D01*
X83716624Y-126497071D01*
X83698518Y-126540784D01*
X83698516Y-126540787D01*
X83651896Y-126610559D01*
X83592559Y-126669896D01*
X83580472Y-126677972D01*
X83522784Y-126716518D01*
X83479071Y-126734624D01*
X83445260Y-126748629D01*
X83362957Y-126765000D01*
X83279043Y-126765000D01*
X83196740Y-126748629D01*
X83162929Y-126734624D01*
X83119216Y-126716518D01*
X83061528Y-126677972D01*
X83049441Y-126669896D01*
X82990104Y-126610559D01*
X82943484Y-126540787D01*
X82943482Y-126540784D01*
X82925376Y-126497071D01*
X82911371Y-126463260D01*
X82895000Y-126380957D01*
X82895000Y-126297043D01*
X82911371Y-126214740D01*
X82925376Y-126180929D01*
X82943482Y-126137216D01*
X82990103Y-126067443D01*
X82990104Y-126067441D01*
X83049441Y-126008104D01*
X83119213Y-125961484D01*
X83119216Y-125961482D01*
X83162929Y-125943376D01*
X83196740Y-125929371D01*
X83279043Y-125913000D01*
X83362957Y-125913000D01*
X83445260Y-125929371D01*
G37*
G36*
X108377120Y-122792228D02*
G01*
X108523401Y-122836602D01*
X108658206Y-122908657D01*
X108776367Y-123005628D01*
X108873345Y-123123796D01*
X108945398Y-123258598D01*
X108989772Y-123404879D01*
X109001000Y-123518882D01*
X109001000Y-124145118D01*
X108989772Y-124259121D01*
X108945398Y-124405402D01*
X108873345Y-124540204D01*
X108873343Y-124540206D01*
X108873342Y-124540208D01*
X108776369Y-124658369D01*
X108709814Y-124712990D01*
X108658204Y-124755345D01*
X108523402Y-124827398D01*
X108377121Y-124871772D01*
X108225000Y-124886754D01*
X108072880Y-124871772D01*
X107926599Y-124827398D01*
X107791797Y-124755345D01*
X107673628Y-124658366D01*
X107646711Y-124625568D01*
X107629384Y-124608241D01*
X107609009Y-124594627D01*
X107586370Y-124585250D01*
X107562337Y-124580470D01*
X107537833Y-124580470D01*
X107513800Y-124585251D01*
X107491161Y-124594628D01*
X107470787Y-124608242D01*
X107453460Y-124625569D01*
X107439846Y-124645944D01*
X107430469Y-124668583D01*
X107425689Y-124692616D01*
X107425689Y-124717120D01*
X107430470Y-124741153D01*
X107433510Y-124749648D01*
X107451000Y-124837579D01*
X107451000Y-124926421D01*
X107433669Y-125013552D01*
X107399672Y-125095627D01*
X107399671Y-125095629D01*
X107350314Y-125169496D01*
X107287496Y-125232314D01*
X107213629Y-125281671D01*
X107213628Y-125281672D01*
X107213627Y-125281672D01*
X107131552Y-125315669D01*
X107044421Y-125333000D01*
X106955579Y-125333000D01*
X106868448Y-125315669D01*
X106786373Y-125281672D01*
X106786372Y-125281672D01*
X106786371Y-125281671D01*
X106712504Y-125232314D01*
X106649686Y-125169496D01*
X106600329Y-125095629D01*
X106600328Y-125095627D01*
X106566331Y-125013552D01*
X106549000Y-124926421D01*
X106549000Y-124837579D01*
X106566331Y-124750448D01*
X106600328Y-124668373D01*
X106615315Y-124645944D01*
X106640507Y-124608241D01*
X106649685Y-124594505D01*
X106712505Y-124531685D01*
X106785014Y-124483236D01*
X106786371Y-124482329D01*
X106786373Y-124482328D01*
X106868448Y-124448331D01*
X106955579Y-124431000D01*
X107044421Y-124431000D01*
X107131552Y-124448331D01*
X107213627Y-124482328D01*
X107213629Y-124482329D01*
X107214986Y-124483236D01*
X107287495Y-124531685D01*
X107303048Y-124547238D01*
X107321990Y-124562783D01*
X107343601Y-124574334D01*
X107367050Y-124581447D01*
X107391436Y-124583849D01*
X107415822Y-124581447D01*
X107439271Y-124574334D01*
X107460882Y-124562783D01*
X107479824Y-124547238D01*
X107495369Y-124528296D01*
X107506920Y-124506685D01*
X107514033Y-124483236D01*
X107516435Y-124458850D01*
X107514033Y-124434464D01*
X107506920Y-124411015D01*
X107505204Y-124407386D01*
X107500976Y-124393447D01*
X107479242Y-124321802D01*
X107460228Y-124259121D01*
X107449000Y-124145118D01*
X107449000Y-123518883D01*
X107460228Y-123404880D01*
X107504602Y-123258599D01*
X107576657Y-123123794D01*
X107673628Y-123005633D01*
X107758677Y-122935835D01*
X107791792Y-122908658D01*
X107791793Y-122908657D01*
X107791796Y-122908655D01*
X107926598Y-122836602D01*
X108072879Y-122792228D01*
X108225000Y-122777246D01*
X108377120Y-122792228D01*
G37*
G36*
X100927120Y-122792228D02*
G01*
X101073401Y-122836602D01*
X101208206Y-122908657D01*
X101326367Y-123005628D01*
X101423345Y-123123796D01*
X101495398Y-123258598D01*
X101539772Y-123404879D01*
X101551000Y-123518882D01*
X101551000Y-124145118D01*
X101539772Y-124259121D01*
X101493598Y-124411336D01*
X101488948Y-124422561D01*
X101484167Y-124446595D01*
X101484167Y-124471099D01*
X101488946Y-124495132D01*
X101498323Y-124517771D01*
X101511936Y-124538146D01*
X101529263Y-124555473D01*
X101549637Y-124569088D01*
X101572275Y-124578466D01*
X101596309Y-124583247D01*
X101620813Y-124583247D01*
X101644846Y-124578468D01*
X101667485Y-124569091D01*
X101687860Y-124555478D01*
X101696952Y-124547238D01*
X101712505Y-124531685D01*
X101785014Y-124483236D01*
X101786371Y-124482329D01*
X101786373Y-124482328D01*
X101868448Y-124448331D01*
X101955579Y-124431000D01*
X102044421Y-124431000D01*
X102131552Y-124448331D01*
X102213627Y-124482328D01*
X102213629Y-124482329D01*
X102214986Y-124483236D01*
X102287495Y-124531685D01*
X102350315Y-124594505D01*
X102359493Y-124608241D01*
X102384686Y-124645944D01*
X102399672Y-124668373D01*
X102433669Y-124750448D01*
X102451000Y-124837579D01*
X102451000Y-124926421D01*
X102433669Y-125013552D01*
X102399672Y-125095627D01*
X102399671Y-125095629D01*
X102350314Y-125169496D01*
X102287496Y-125232314D01*
X102213629Y-125281671D01*
X102213628Y-125281672D01*
X102213627Y-125281672D01*
X102131552Y-125315669D01*
X102044421Y-125333000D01*
X101955579Y-125333000D01*
X101868448Y-125315669D01*
X101786373Y-125281672D01*
X101786372Y-125281672D01*
X101786371Y-125281671D01*
X101712504Y-125232314D01*
X101649686Y-125169496D01*
X101600329Y-125095629D01*
X101600328Y-125095627D01*
X101566331Y-125013552D01*
X101549000Y-124926421D01*
X101549000Y-124837579D01*
X101566807Y-124748054D01*
X101572510Y-124729257D01*
X101574912Y-124704871D01*
X101572511Y-124680485D01*
X101565398Y-124657036D01*
X101553847Y-124635425D01*
X101538302Y-124616483D01*
X101519361Y-124600937D01*
X101497750Y-124589386D01*
X101474301Y-124582272D01*
X101449915Y-124579870D01*
X101425529Y-124582271D01*
X101402080Y-124589384D01*
X101380469Y-124600935D01*
X101361527Y-124616480D01*
X101353288Y-124625570D01*
X101326372Y-124658367D01*
X101208204Y-124755345D01*
X101073402Y-124827398D01*
X100927121Y-124871772D01*
X100775000Y-124886754D01*
X100622880Y-124871772D01*
X100476599Y-124827398D01*
X100341797Y-124755345D01*
X100290188Y-124712990D01*
X100223632Y-124658369D01*
X100196714Y-124625570D01*
X100126657Y-124540206D01*
X100054601Y-124405400D01*
X100010228Y-124259121D01*
X99999000Y-124145118D01*
X99999000Y-123518883D01*
X100010228Y-123404880D01*
X100054602Y-123258599D01*
X100126657Y-123123794D01*
X100223628Y-123005633D01*
X100308677Y-122935835D01*
X100341792Y-122908658D01*
X100341793Y-122908657D01*
X100341796Y-122908655D01*
X100476598Y-122836602D01*
X100622879Y-122792228D01*
X100775000Y-122777246D01*
X100927120Y-122792228D01*
G37*
G36*
X72432721Y-122485174D02*
G01*
X72532995Y-122526709D01*
X72532996Y-122526710D01*
X72623242Y-122587010D01*
X72699990Y-122663758D01*
X72715665Y-122687218D01*
X72760291Y-122754005D01*
X72791516Y-122829389D01*
X72803067Y-122851000D01*
X72818612Y-122869941D01*
X72837554Y-122885487D01*
X72859165Y-122897038D01*
X72882614Y-122904151D01*
X72907000Y-122906553D01*
X72931386Y-122904151D01*
X72954835Y-122897038D01*
X72976446Y-122885487D01*
X72995387Y-122869942D01*
X73010933Y-122851000D01*
X73022484Y-122829389D01*
X73053709Y-122754005D01*
X73098335Y-122687218D01*
X73114010Y-122663758D01*
X73190758Y-122587010D01*
X73281004Y-122526710D01*
X73281005Y-122526709D01*
X73381279Y-122485174D01*
X73487730Y-122464000D01*
X73596270Y-122464000D01*
X73702721Y-122485174D01*
X73802995Y-122526709D01*
X73802996Y-122526710D01*
X73893242Y-122587010D01*
X73969990Y-122663758D01*
X73985665Y-122687218D01*
X74030291Y-122754005D01*
X74061516Y-122829389D01*
X74073067Y-122851000D01*
X74088612Y-122869941D01*
X74107554Y-122885487D01*
X74129165Y-122897038D01*
X74152614Y-122904151D01*
X74177000Y-122906553D01*
X74201386Y-122904151D01*
X74224835Y-122897038D01*
X74246446Y-122885487D01*
X74265387Y-122869942D01*
X74280933Y-122851000D01*
X74292484Y-122829389D01*
X74323709Y-122754005D01*
X74368335Y-122687218D01*
X74384010Y-122663758D01*
X74460758Y-122587010D01*
X74551004Y-122526710D01*
X74551005Y-122526709D01*
X74651279Y-122485174D01*
X74757730Y-122464000D01*
X74866270Y-122464000D01*
X74972721Y-122485174D01*
X75072995Y-122526709D01*
X75072996Y-122526710D01*
X75163242Y-122587010D01*
X75239990Y-122663758D01*
X75255665Y-122687218D01*
X75300291Y-122754005D01*
X75331516Y-122829389D01*
X75343067Y-122851000D01*
X75358612Y-122869941D01*
X75377554Y-122885487D01*
X75399165Y-122897038D01*
X75422614Y-122904151D01*
X75447000Y-122906553D01*
X75471386Y-122904151D01*
X75494835Y-122897038D01*
X75516446Y-122885487D01*
X75535387Y-122869942D01*
X75550933Y-122851000D01*
X75562484Y-122829389D01*
X75593709Y-122754005D01*
X75638335Y-122687218D01*
X75654010Y-122663758D01*
X75730758Y-122587010D01*
X75821004Y-122526710D01*
X75821005Y-122526709D01*
X75921279Y-122485174D01*
X76027730Y-122464000D01*
X76136270Y-122464000D01*
X76242721Y-122485174D01*
X76342995Y-122526709D01*
X76342996Y-122526710D01*
X76433242Y-122587010D01*
X76509990Y-122663758D01*
X76525665Y-122687218D01*
X76572068Y-122756664D01*
X76587614Y-122775606D01*
X76606556Y-122791151D01*
X76628167Y-122802702D01*
X76651615Y-122809815D01*
X76676002Y-122812217D01*
X76700388Y-122809815D01*
X76723837Y-122802702D01*
X76745447Y-122791151D01*
X76764389Y-122775605D01*
X76779934Y-122756663D01*
X76791485Y-122735052D01*
X76798598Y-122711604D01*
X76801000Y-122687218D01*
X76801000Y-122464000D01*
X77903000Y-122464000D01*
X77903000Y-123566000D01*
X77679782Y-123566000D01*
X77655396Y-123568402D01*
X77631947Y-123575515D01*
X77610336Y-123587066D01*
X77591394Y-123602611D01*
X77575849Y-123621553D01*
X77564298Y-123643164D01*
X77557185Y-123666613D01*
X77554783Y-123690999D01*
X77557185Y-123715385D01*
X77564298Y-123738834D01*
X77575849Y-123760445D01*
X77591394Y-123779387D01*
X77610336Y-123794932D01*
X77649735Y-123821258D01*
X77703242Y-123857010D01*
X77779990Y-123933758D01*
X77810345Y-123979188D01*
X77840291Y-124024005D01*
X77881826Y-124124279D01*
X77903000Y-124230730D01*
X77903000Y-124339270D01*
X77881826Y-124445721D01*
X77840291Y-124545995D01*
X77824861Y-124569088D01*
X77779990Y-124636242D01*
X77703242Y-124712990D01*
X77661093Y-124741153D01*
X77612995Y-124773291D01*
X77512721Y-124814826D01*
X77406270Y-124836000D01*
X77297730Y-124836000D01*
X77191279Y-124814826D01*
X77091005Y-124773291D01*
X77042907Y-124741153D01*
X77000758Y-124712990D01*
X76924010Y-124636242D01*
X76879139Y-124569088D01*
X76863709Y-124545995D01*
X76832484Y-124470611D01*
X76820933Y-124449000D01*
X76805388Y-124430059D01*
X76786446Y-124414513D01*
X76764835Y-124402962D01*
X76741386Y-124395849D01*
X76717000Y-124393447D01*
X76692614Y-124395849D01*
X76669165Y-124402962D01*
X76647554Y-124414513D01*
X76628613Y-124430058D01*
X76613067Y-124449000D01*
X76601516Y-124470611D01*
X76570291Y-124545995D01*
X76554861Y-124569088D01*
X76509990Y-124636242D01*
X76433242Y-124712990D01*
X76391093Y-124741153D01*
X76342995Y-124773291D01*
X76242721Y-124814826D01*
X76136270Y-124836000D01*
X76027730Y-124836000D01*
X75921279Y-124814826D01*
X75821005Y-124773291D01*
X75772907Y-124741153D01*
X75730758Y-124712990D01*
X75654010Y-124636242D01*
X75609139Y-124569088D01*
X75593709Y-124545995D01*
X75562484Y-124470611D01*
X75550933Y-124449000D01*
X75535388Y-124430059D01*
X75516446Y-124414513D01*
X75494835Y-124402962D01*
X75471386Y-124395849D01*
X75447000Y-124393447D01*
X75422614Y-124395849D01*
X75399165Y-124402962D01*
X75377554Y-124414513D01*
X75358613Y-124430058D01*
X75343067Y-124449000D01*
X75331516Y-124470611D01*
X75300291Y-124545995D01*
X75284861Y-124569088D01*
X75239990Y-124636242D01*
X75163242Y-124712990D01*
X75121093Y-124741153D01*
X75072995Y-124773291D01*
X74972721Y-124814826D01*
X74866270Y-124836000D01*
X74757730Y-124836000D01*
X74651279Y-124814826D01*
X74551005Y-124773291D01*
X74502907Y-124741153D01*
X74460758Y-124712990D01*
X74384010Y-124636242D01*
X74339139Y-124569088D01*
X74323709Y-124545995D01*
X74292484Y-124470611D01*
X74280933Y-124449000D01*
X74265388Y-124430059D01*
X74246446Y-124414513D01*
X74224835Y-124402962D01*
X74201386Y-124395849D01*
X74177000Y-124393447D01*
X74152614Y-124395849D01*
X74129165Y-124402962D01*
X74107554Y-124414513D01*
X74088613Y-124430058D01*
X74073067Y-124449000D01*
X74061516Y-124470611D01*
X74030291Y-124545995D01*
X74014861Y-124569088D01*
X73969990Y-124636242D01*
X73893242Y-124712990D01*
X73851093Y-124741153D01*
X73802995Y-124773291D01*
X73702721Y-124814826D01*
X73596270Y-124836000D01*
X73487730Y-124836000D01*
X73381279Y-124814826D01*
X73281005Y-124773291D01*
X73232907Y-124741153D01*
X73190758Y-124712990D01*
X73114010Y-124636242D01*
X73069139Y-124569088D01*
X73053709Y-124545995D01*
X73022484Y-124470611D01*
X73010933Y-124449000D01*
X72995388Y-124430059D01*
X72976446Y-124414513D01*
X72954835Y-124402962D01*
X72931386Y-124395849D01*
X72907000Y-124393447D01*
X72882614Y-124395849D01*
X72859165Y-124402962D01*
X72837554Y-124414513D01*
X72818613Y-124430058D01*
X72803067Y-124449000D01*
X72791516Y-124470611D01*
X72760291Y-124545995D01*
X72744861Y-124569088D01*
X72699990Y-124636242D01*
X72623242Y-124712990D01*
X72581093Y-124741153D01*
X72532995Y-124773291D01*
X72432721Y-124814826D01*
X72326270Y-124836000D01*
X72217730Y-124836000D01*
X72111279Y-124814826D01*
X72011005Y-124773291D01*
X71962907Y-124741153D01*
X71920758Y-124712990D01*
X71844010Y-124636242D01*
X71799139Y-124569088D01*
X71783709Y-124545995D01*
X71742174Y-124445721D01*
X71721000Y-124339270D01*
X71721000Y-124230730D01*
X71742174Y-124124279D01*
X71783709Y-124024005D01*
X71813655Y-123979188D01*
X71844010Y-123933758D01*
X71920758Y-123857010D01*
X71974265Y-123821258D01*
X72011005Y-123796709D01*
X72086389Y-123765484D01*
X72108000Y-123753933D01*
X72126941Y-123738388D01*
X72142487Y-123719446D01*
X72154038Y-123697835D01*
X72161151Y-123674386D01*
X72163553Y-123650000D01*
X72380447Y-123650000D01*
X72382849Y-123674386D01*
X72389962Y-123697835D01*
X72401513Y-123719446D01*
X72417058Y-123738387D01*
X72436000Y-123753933D01*
X72457611Y-123765484D01*
X72532995Y-123796709D01*
X72569735Y-123821258D01*
X72623242Y-123857010D01*
X72699990Y-123933758D01*
X72730345Y-123979188D01*
X72760291Y-124024005D01*
X72791516Y-124099389D01*
X72803067Y-124121000D01*
X72818612Y-124139941D01*
X72837554Y-124155487D01*
X72859165Y-124167038D01*
X72882614Y-124174151D01*
X72907000Y-124176553D01*
X72931386Y-124174151D01*
X72954835Y-124167038D01*
X72976446Y-124155487D01*
X72995387Y-124139942D01*
X73010933Y-124121000D01*
X73022484Y-124099389D01*
X73053709Y-124024005D01*
X73083655Y-123979188D01*
X73114010Y-123933758D01*
X73190758Y-123857010D01*
X73244265Y-123821258D01*
X73281005Y-123796709D01*
X73356389Y-123765484D01*
X73378000Y-123753933D01*
X73396941Y-123738388D01*
X73412487Y-123719446D01*
X73424038Y-123697835D01*
X73431151Y-123674386D01*
X73433553Y-123650000D01*
X73650447Y-123650000D01*
X73652849Y-123674386D01*
X73659962Y-123697835D01*
X73671513Y-123719446D01*
X73687058Y-123738387D01*
X73706000Y-123753933D01*
X73727611Y-123765484D01*
X73802995Y-123796709D01*
X73839735Y-123821258D01*
X73893242Y-123857010D01*
X73969990Y-123933758D01*
X74000345Y-123979188D01*
X74030291Y-124024005D01*
X74061516Y-124099389D01*
X74073067Y-124121000D01*
X74088612Y-124139941D01*
X74107554Y-124155487D01*
X74129165Y-124167038D01*
X74152614Y-124174151D01*
X74177000Y-124176553D01*
X74201386Y-124174151D01*
X74224835Y-124167038D01*
X74246446Y-124155487D01*
X74265387Y-124139942D01*
X74280933Y-124121000D01*
X74292484Y-124099389D01*
X74323709Y-124024005D01*
X74353655Y-123979188D01*
X74384010Y-123933758D01*
X74460758Y-123857010D01*
X74514265Y-123821258D01*
X74551005Y-123796709D01*
X74626389Y-123765484D01*
X74648000Y-123753933D01*
X74666941Y-123738388D01*
X74682487Y-123719446D01*
X74694038Y-123697835D01*
X74701151Y-123674386D01*
X74703553Y-123650000D01*
X74920447Y-123650000D01*
X74922849Y-123674386D01*
X74929962Y-123697835D01*
X74941513Y-123719446D01*
X74957058Y-123738387D01*
X74976000Y-123753933D01*
X74997611Y-123765484D01*
X75072995Y-123796709D01*
X75109735Y-123821258D01*
X75163242Y-123857010D01*
X75239990Y-123933758D01*
X75270345Y-123979188D01*
X75300291Y-124024005D01*
X75331516Y-124099389D01*
X75343067Y-124121000D01*
X75358612Y-124139941D01*
X75377554Y-124155487D01*
X75399165Y-124167038D01*
X75422614Y-124174151D01*
X75447000Y-124176553D01*
X75471386Y-124174151D01*
X75494835Y-124167038D01*
X75516446Y-124155487D01*
X75535387Y-124139942D01*
X75550933Y-124121000D01*
X75562484Y-124099389D01*
X75593709Y-124024005D01*
X75623655Y-123979188D01*
X75654010Y-123933758D01*
X75730758Y-123857010D01*
X75784265Y-123821258D01*
X75821005Y-123796709D01*
X75896389Y-123765484D01*
X75918000Y-123753933D01*
X75936941Y-123738388D01*
X75952487Y-123719446D01*
X75964038Y-123697835D01*
X75971151Y-123674386D01*
X75973553Y-123650000D01*
X76190447Y-123650000D01*
X76192849Y-123674386D01*
X76199962Y-123697835D01*
X76211513Y-123719446D01*
X76227058Y-123738387D01*
X76246000Y-123753933D01*
X76267611Y-123765484D01*
X76342995Y-123796709D01*
X76379735Y-123821258D01*
X76433242Y-123857010D01*
X76509990Y-123933758D01*
X76540345Y-123979188D01*
X76570291Y-124024005D01*
X76601516Y-124099389D01*
X76613067Y-124121000D01*
X76628612Y-124139941D01*
X76647554Y-124155487D01*
X76669165Y-124167038D01*
X76692614Y-124174151D01*
X76717000Y-124176553D01*
X76741386Y-124174151D01*
X76764835Y-124167038D01*
X76786446Y-124155487D01*
X76805387Y-124139942D01*
X76820933Y-124121000D01*
X76832484Y-124099389D01*
X76863709Y-124024005D01*
X76893655Y-123979188D01*
X76924010Y-123933758D01*
X77000758Y-123857010D01*
X77054265Y-123821258D01*
X77093664Y-123794932D01*
X77112606Y-123779386D01*
X77128151Y-123760444D01*
X77139702Y-123738833D01*
X77146815Y-123715385D01*
X77149217Y-123690998D01*
X77146815Y-123666612D01*
X77139702Y-123643163D01*
X77128151Y-123621553D01*
X77112605Y-123602611D01*
X77093663Y-123587066D01*
X77072052Y-123575515D01*
X77048604Y-123568402D01*
X77024218Y-123566000D01*
X76801000Y-123566000D01*
X76801000Y-123342782D01*
X76798598Y-123318396D01*
X76791485Y-123294947D01*
X76779934Y-123273336D01*
X76764389Y-123254394D01*
X76745447Y-123238849D01*
X76723836Y-123227298D01*
X76700387Y-123220185D01*
X76676001Y-123217783D01*
X76651615Y-123220185D01*
X76628166Y-123227298D01*
X76606555Y-123238849D01*
X76587613Y-123254394D01*
X76572068Y-123273336D01*
X76530988Y-123334816D01*
X76509990Y-123366242D01*
X76433242Y-123442990D01*
X76387812Y-123473345D01*
X76342995Y-123503291D01*
X76267611Y-123534516D01*
X76246000Y-123546067D01*
X76227059Y-123561612D01*
X76211513Y-123580554D01*
X76199962Y-123602165D01*
X76192849Y-123625614D01*
X76190447Y-123650000D01*
X75973553Y-123650000D01*
X75971151Y-123625614D01*
X75964038Y-123602165D01*
X75952487Y-123580554D01*
X75936942Y-123561613D01*
X75918000Y-123546067D01*
X75896389Y-123534516D01*
X75821005Y-123503291D01*
X75776188Y-123473345D01*
X75730758Y-123442990D01*
X75654010Y-123366242D01*
X75621539Y-123317646D01*
X75593709Y-123275995D01*
X75562484Y-123200611D01*
X75550933Y-123179000D01*
X75535388Y-123160059D01*
X75516446Y-123144513D01*
X75494835Y-123132962D01*
X75471386Y-123125849D01*
X75447000Y-123123447D01*
X75422614Y-123125849D01*
X75399165Y-123132962D01*
X75377554Y-123144513D01*
X75358613Y-123160058D01*
X75343067Y-123179000D01*
X75331516Y-123200611D01*
X75300291Y-123275995D01*
X75272461Y-123317646D01*
X75239990Y-123366242D01*
X75163242Y-123442990D01*
X75117812Y-123473345D01*
X75072995Y-123503291D01*
X74997611Y-123534516D01*
X74976000Y-123546067D01*
X74957059Y-123561612D01*
X74941513Y-123580554D01*
X74929962Y-123602165D01*
X74922849Y-123625614D01*
X74920447Y-123650000D01*
X74703553Y-123650000D01*
X74701151Y-123625614D01*
X74694038Y-123602165D01*
X74682487Y-123580554D01*
X74666942Y-123561613D01*
X74648000Y-123546067D01*
X74626389Y-123534516D01*
X74551005Y-123503291D01*
X74506188Y-123473345D01*
X74460758Y-123442990D01*
X74384010Y-123366242D01*
X74351539Y-123317646D01*
X74323709Y-123275995D01*
X74292484Y-123200611D01*
X74280933Y-123179000D01*
X74265388Y-123160059D01*
X74246446Y-123144513D01*
X74224835Y-123132962D01*
X74201386Y-123125849D01*
X74177000Y-123123447D01*
X74152614Y-123125849D01*
X74129165Y-123132962D01*
X74107554Y-123144513D01*
X74088613Y-123160058D01*
X74073067Y-123179000D01*
X74061516Y-123200611D01*
X74030291Y-123275995D01*
X74002461Y-123317646D01*
X73969990Y-123366242D01*
X73893242Y-123442990D01*
X73847812Y-123473345D01*
X73802995Y-123503291D01*
X73727611Y-123534516D01*
X73706000Y-123546067D01*
X73687059Y-123561612D01*
X73671513Y-123580554D01*
X73659962Y-123602165D01*
X73652849Y-123625614D01*
X73650447Y-123650000D01*
X73433553Y-123650000D01*
X73431151Y-123625614D01*
X73424038Y-123602165D01*
X73412487Y-123580554D01*
X73396942Y-123561613D01*
X73378000Y-123546067D01*
X73356389Y-123534516D01*
X73281005Y-123503291D01*
X73236188Y-123473345D01*
X73190758Y-123442990D01*
X73114010Y-123366242D01*
X73081539Y-123317646D01*
X73053709Y-123275995D01*
X73022484Y-123200611D01*
X73010933Y-123179000D01*
X72995388Y-123160059D01*
X72976446Y-123144513D01*
X72954835Y-123132962D01*
X72931386Y-123125849D01*
X72907000Y-123123447D01*
X72882614Y-123125849D01*
X72859165Y-123132962D01*
X72837554Y-123144513D01*
X72818613Y-123160058D01*
X72803067Y-123179000D01*
X72791516Y-123200611D01*
X72760291Y-123275995D01*
X72732461Y-123317646D01*
X72699990Y-123366242D01*
X72623242Y-123442990D01*
X72577812Y-123473345D01*
X72532995Y-123503291D01*
X72457611Y-123534516D01*
X72436000Y-123546067D01*
X72417059Y-123561612D01*
X72401513Y-123580554D01*
X72389962Y-123602165D01*
X72382849Y-123625614D01*
X72380447Y-123650000D01*
X72163553Y-123650000D01*
X72161151Y-123625614D01*
X72154038Y-123602165D01*
X72142487Y-123580554D01*
X72126942Y-123561613D01*
X72108000Y-123546067D01*
X72086389Y-123534516D01*
X72011005Y-123503291D01*
X71966188Y-123473345D01*
X71920758Y-123442990D01*
X71844010Y-123366242D01*
X71811539Y-123317646D01*
X71783709Y-123275995D01*
X71742174Y-123175721D01*
X71721000Y-123069270D01*
X71721000Y-122960730D01*
X71742174Y-122854279D01*
X71783709Y-122754005D01*
X71828335Y-122687218D01*
X71844010Y-122663758D01*
X71920758Y-122587010D01*
X72011004Y-122526710D01*
X72011005Y-122526709D01*
X72111279Y-122485174D01*
X72217730Y-122464000D01*
X72326270Y-122464000D01*
X72432721Y-122485174D01*
G37*
G36*
X118587797Y-121398567D02*
G01*
X118642575Y-121421257D01*
X118642577Y-121421258D01*
X118691876Y-121454198D01*
X118733802Y-121496124D01*
X118766742Y-121545423D01*
X118766743Y-121545425D01*
X118789433Y-121600203D01*
X118801000Y-121658353D01*
X118801000Y-121717647D01*
X118789433Y-121775797D01*
X118771882Y-121818169D01*
X118766742Y-121830577D01*
X118733802Y-121879876D01*
X118691876Y-121921802D01*
X118642577Y-121954742D01*
X118642576Y-121954743D01*
X118642575Y-121954743D01*
X118599668Y-121972516D01*
X118578057Y-121984067D01*
X118559115Y-121999613D01*
X118543570Y-122018555D01*
X118532019Y-122040165D01*
X118524906Y-122063614D01*
X118522504Y-122088000D01*
X118524906Y-122112387D01*
X118532019Y-122135835D01*
X118543570Y-122157446D01*
X118559116Y-122176388D01*
X118578058Y-122191933D01*
X118599668Y-122203484D01*
X118642575Y-122221257D01*
X118642577Y-122221258D01*
X118691876Y-122254198D01*
X118733802Y-122296124D01*
X118766742Y-122345423D01*
X118766743Y-122345425D01*
X118789433Y-122400203D01*
X118801000Y-122458353D01*
X118801000Y-122517647D01*
X118789433Y-122575797D01*
X118784788Y-122587010D01*
X118766742Y-122630577D01*
X118733802Y-122679876D01*
X118691876Y-122721802D01*
X118642577Y-122754742D01*
X118642576Y-122754743D01*
X118642575Y-122754743D01*
X118599668Y-122772516D01*
X118578057Y-122784067D01*
X118559115Y-122799613D01*
X118543570Y-122818555D01*
X118532019Y-122840165D01*
X118524906Y-122863614D01*
X118522504Y-122888000D01*
X118524906Y-122912387D01*
X118532019Y-122935835D01*
X118543570Y-122957446D01*
X118559116Y-122976388D01*
X118578058Y-122991933D01*
X118599668Y-123003484D01*
X118642575Y-123021257D01*
X118642577Y-123021258D01*
X118691876Y-123054198D01*
X118733802Y-123096124D01*
X118753663Y-123125849D01*
X118766743Y-123145425D01*
X118789433Y-123200203D01*
X118801000Y-123258353D01*
X118801000Y-123317647D01*
X118789433Y-123375797D01*
X118777386Y-123404880D01*
X118766742Y-123430577D01*
X118733802Y-123479876D01*
X118691876Y-123521802D01*
X118642577Y-123554742D01*
X118642576Y-123554743D01*
X118642575Y-123554743D01*
X118599668Y-123572516D01*
X118578057Y-123584067D01*
X118559115Y-123599613D01*
X118543570Y-123618555D01*
X118532019Y-123640165D01*
X118524906Y-123663614D01*
X118522504Y-123688000D01*
X118524906Y-123712387D01*
X118532019Y-123735835D01*
X118543570Y-123757446D01*
X118559116Y-123776388D01*
X118578058Y-123791933D01*
X118599668Y-123803484D01*
X118642575Y-123821257D01*
X118642577Y-123821258D01*
X118691876Y-123854198D01*
X118733802Y-123896124D01*
X118758949Y-123933760D01*
X118766743Y-123945425D01*
X118789433Y-124000203D01*
X118801000Y-124058353D01*
X118801000Y-124117647D01*
X118789433Y-124175797D01*
X118766743Y-124230575D01*
X118766742Y-124230577D01*
X118733802Y-124279876D01*
X118691876Y-124321802D01*
X118642577Y-124354742D01*
X118642576Y-124354743D01*
X118642575Y-124354743D01*
X118587797Y-124377433D01*
X118529647Y-124389000D01*
X118470353Y-124389000D01*
X118412203Y-124377433D01*
X118357425Y-124354743D01*
X118357424Y-124354743D01*
X118357423Y-124354742D01*
X118308124Y-124321802D01*
X118266198Y-124279876D01*
X118233258Y-124230577D01*
X118233257Y-124230575D01*
X118210567Y-124175797D01*
X118199000Y-124117647D01*
X118199000Y-124058353D01*
X118210567Y-124000203D01*
X118233257Y-123945425D01*
X118241051Y-123933760D01*
X118266198Y-123896124D01*
X118308124Y-123854198D01*
X118357423Y-123821258D01*
X118357425Y-123821257D01*
X118400332Y-123803484D01*
X118421943Y-123791933D01*
X118440885Y-123776387D01*
X118456430Y-123757445D01*
X118467981Y-123735835D01*
X118475094Y-123712386D01*
X118477496Y-123688000D01*
X118475094Y-123663613D01*
X118467981Y-123640165D01*
X118456430Y-123618554D01*
X118440884Y-123599612D01*
X118421942Y-123584067D01*
X118400332Y-123572516D01*
X118357425Y-123554743D01*
X118357424Y-123554743D01*
X118357423Y-123554742D01*
X118308124Y-123521802D01*
X118266198Y-123479876D01*
X118233258Y-123430577D01*
X118222614Y-123404880D01*
X118210567Y-123375797D01*
X118199000Y-123317647D01*
X118199000Y-123258353D01*
X118210567Y-123200203D01*
X118233257Y-123145425D01*
X118246337Y-123125849D01*
X118266198Y-123096124D01*
X118308124Y-123054198D01*
X118357423Y-123021258D01*
X118357425Y-123021257D01*
X118400332Y-123003484D01*
X118421943Y-122991933D01*
X118440885Y-122976387D01*
X118456430Y-122957445D01*
X118467981Y-122935835D01*
X118475094Y-122912386D01*
X118477496Y-122888000D01*
X118475094Y-122863613D01*
X118467981Y-122840165D01*
X118456430Y-122818554D01*
X118440884Y-122799612D01*
X118421942Y-122784067D01*
X118400332Y-122772516D01*
X118357425Y-122754743D01*
X118357424Y-122754743D01*
X118357423Y-122754742D01*
X118308124Y-122721802D01*
X118266198Y-122679876D01*
X118233258Y-122630577D01*
X118215212Y-122587010D01*
X118210567Y-122575797D01*
X118199000Y-122517647D01*
X118199000Y-122458353D01*
X118210567Y-122400203D01*
X118233257Y-122345425D01*
X118233258Y-122345423D01*
X118266198Y-122296124D01*
X118308124Y-122254198D01*
X118357423Y-122221258D01*
X118357425Y-122221257D01*
X118400332Y-122203484D01*
X118421943Y-122191933D01*
X118440885Y-122176387D01*
X118456430Y-122157445D01*
X118467981Y-122135835D01*
X118475094Y-122112386D01*
X118477496Y-122088000D01*
X118475094Y-122063613D01*
X118467981Y-122040165D01*
X118456430Y-122018554D01*
X118440884Y-121999612D01*
X118421942Y-121984067D01*
X118400332Y-121972516D01*
X118357425Y-121954743D01*
X118357424Y-121954743D01*
X118357423Y-121954742D01*
X118308124Y-121921802D01*
X118266198Y-121879876D01*
X118233258Y-121830577D01*
X118228118Y-121818169D01*
X118210567Y-121775797D01*
X118199000Y-121717647D01*
X118199000Y-121658353D01*
X118210567Y-121600203D01*
X118233257Y-121545425D01*
X118233258Y-121545423D01*
X118266198Y-121496124D01*
X118308124Y-121454198D01*
X118357423Y-121421258D01*
X118357425Y-121421257D01*
X118412203Y-121398567D01*
X118470353Y-121387000D01*
X118529647Y-121387000D01*
X118587797Y-121398567D01*
G37*
G36*
X116555797Y-121398567D02*
G01*
X116610575Y-121421257D01*
X116610577Y-121421258D01*
X116659876Y-121454198D01*
X116701802Y-121496124D01*
X116734742Y-121545423D01*
X116734743Y-121545425D01*
X116757433Y-121600203D01*
X116769000Y-121658353D01*
X116769000Y-121717647D01*
X116757433Y-121775797D01*
X116739882Y-121818169D01*
X116734742Y-121830577D01*
X116701802Y-121879876D01*
X116659876Y-121921802D01*
X116610577Y-121954742D01*
X116610576Y-121954743D01*
X116610575Y-121954743D01*
X116567668Y-121972516D01*
X116546057Y-121984067D01*
X116527115Y-121999613D01*
X116511570Y-122018555D01*
X116500019Y-122040165D01*
X116492906Y-122063614D01*
X116490504Y-122088000D01*
X116492906Y-122112387D01*
X116500019Y-122135835D01*
X116511570Y-122157446D01*
X116527116Y-122176388D01*
X116546058Y-122191933D01*
X116567668Y-122203484D01*
X116610575Y-122221257D01*
X116610577Y-122221258D01*
X116659876Y-122254198D01*
X116701802Y-122296124D01*
X116734742Y-122345423D01*
X116734743Y-122345425D01*
X116757433Y-122400203D01*
X116769000Y-122458353D01*
X116769000Y-122517647D01*
X116757433Y-122575797D01*
X116752788Y-122587010D01*
X116734742Y-122630577D01*
X116701802Y-122679876D01*
X116659876Y-122721802D01*
X116610577Y-122754742D01*
X116610576Y-122754743D01*
X116610575Y-122754743D01*
X116567668Y-122772516D01*
X116546057Y-122784067D01*
X116527115Y-122799613D01*
X116511570Y-122818555D01*
X116500019Y-122840165D01*
X116492906Y-122863614D01*
X116490504Y-122888000D01*
X116492906Y-122912387D01*
X116500019Y-122935835D01*
X116511570Y-122957446D01*
X116527116Y-122976388D01*
X116546058Y-122991933D01*
X116567668Y-123003484D01*
X116610575Y-123021257D01*
X116610577Y-123021258D01*
X116659876Y-123054198D01*
X116701802Y-123096124D01*
X116721663Y-123125849D01*
X116734743Y-123145425D01*
X116757433Y-123200203D01*
X116769000Y-123258353D01*
X116769000Y-123317647D01*
X116757433Y-123375797D01*
X116745386Y-123404880D01*
X116734742Y-123430577D01*
X116701802Y-123479876D01*
X116659876Y-123521802D01*
X116610577Y-123554742D01*
X116610576Y-123554743D01*
X116610575Y-123554743D01*
X116567668Y-123572516D01*
X116546057Y-123584067D01*
X116527115Y-123599613D01*
X116511570Y-123618555D01*
X116500019Y-123640165D01*
X116492906Y-123663614D01*
X116490504Y-123688000D01*
X116492906Y-123712387D01*
X116500019Y-123735835D01*
X116511570Y-123757446D01*
X116527116Y-123776388D01*
X116546058Y-123791933D01*
X116567668Y-123803484D01*
X116610575Y-123821257D01*
X116610577Y-123821258D01*
X116659876Y-123854198D01*
X116701802Y-123896124D01*
X116726949Y-123933760D01*
X116734743Y-123945425D01*
X116757433Y-124000203D01*
X116769000Y-124058353D01*
X116769000Y-124117647D01*
X116757433Y-124175797D01*
X116734743Y-124230575D01*
X116734742Y-124230577D01*
X116701802Y-124279876D01*
X116659876Y-124321802D01*
X116610577Y-124354742D01*
X116610576Y-124354743D01*
X116610575Y-124354743D01*
X116555797Y-124377433D01*
X116497647Y-124389000D01*
X116438353Y-124389000D01*
X116380203Y-124377433D01*
X116325425Y-124354743D01*
X116325424Y-124354743D01*
X116325423Y-124354742D01*
X116276124Y-124321802D01*
X116234198Y-124279876D01*
X116201258Y-124230577D01*
X116201257Y-124230575D01*
X116178567Y-124175797D01*
X116167000Y-124117647D01*
X116167000Y-124058353D01*
X116178567Y-124000203D01*
X116201257Y-123945425D01*
X116209051Y-123933760D01*
X116234198Y-123896124D01*
X116276124Y-123854198D01*
X116325423Y-123821258D01*
X116325425Y-123821257D01*
X116368332Y-123803484D01*
X116389943Y-123791933D01*
X116408885Y-123776387D01*
X116424430Y-123757445D01*
X116435981Y-123735835D01*
X116443094Y-123712386D01*
X116445496Y-123688000D01*
X116443094Y-123663613D01*
X116435981Y-123640165D01*
X116424430Y-123618554D01*
X116408884Y-123599612D01*
X116389942Y-123584067D01*
X116368332Y-123572516D01*
X116325425Y-123554743D01*
X116325424Y-123554743D01*
X116325423Y-123554742D01*
X116276124Y-123521802D01*
X116234198Y-123479876D01*
X116201258Y-123430577D01*
X116190614Y-123404880D01*
X116178567Y-123375797D01*
X116167000Y-123317647D01*
X116167000Y-123258353D01*
X116178567Y-123200203D01*
X116201257Y-123145425D01*
X116214337Y-123125849D01*
X116234198Y-123096124D01*
X116276124Y-123054198D01*
X116325423Y-123021258D01*
X116325425Y-123021257D01*
X116368332Y-123003484D01*
X116389943Y-122991933D01*
X116408885Y-122976387D01*
X116424430Y-122957445D01*
X116435981Y-122935835D01*
X116443094Y-122912386D01*
X116445496Y-122888000D01*
X116443094Y-122863613D01*
X116435981Y-122840165D01*
X116424430Y-122818554D01*
X116408884Y-122799612D01*
X116389942Y-122784067D01*
X116368332Y-122772516D01*
X116325425Y-122754743D01*
X116325424Y-122754743D01*
X116325423Y-122754742D01*
X116276124Y-122721802D01*
X116234198Y-122679876D01*
X116201258Y-122630577D01*
X116183212Y-122587010D01*
X116178567Y-122575797D01*
X116167000Y-122517647D01*
X116167000Y-122458353D01*
X116178567Y-122400203D01*
X116201257Y-122345425D01*
X116201258Y-122345423D01*
X116234198Y-122296124D01*
X116276124Y-122254198D01*
X116325423Y-122221258D01*
X116325425Y-122221257D01*
X116368332Y-122203484D01*
X116389943Y-122191933D01*
X116408885Y-122176387D01*
X116424430Y-122157445D01*
X116435981Y-122135835D01*
X116443094Y-122112386D01*
X116445496Y-122088000D01*
X116443094Y-122063613D01*
X116435981Y-122040165D01*
X116424430Y-122018554D01*
X116408884Y-121999612D01*
X116389942Y-121984067D01*
X116368332Y-121972516D01*
X116325425Y-121954743D01*
X116325424Y-121954743D01*
X116325423Y-121954742D01*
X116276124Y-121921802D01*
X116234198Y-121879876D01*
X116201258Y-121830577D01*
X116196118Y-121818169D01*
X116178567Y-121775797D01*
X116167000Y-121717647D01*
X116167000Y-121658353D01*
X116178567Y-121600203D01*
X116201257Y-121545425D01*
X116201258Y-121545423D01*
X116234198Y-121496124D01*
X116276124Y-121454198D01*
X116325423Y-121421258D01*
X116325425Y-121421257D01*
X116380203Y-121398567D01*
X116438353Y-121387000D01*
X116497647Y-121387000D01*
X116555797Y-121398567D01*
G37*
G36*
X66683199Y-119703954D02*
G01*
X66695450Y-119704556D01*
X66713869Y-119704556D01*
X66736149Y-119706750D01*
X66820233Y-119723476D01*
X66841660Y-119729976D01*
X66920858Y-119762780D01*
X66926303Y-119765691D01*
X66926309Y-119765693D01*
X66935169Y-119770429D01*
X66935173Y-119770432D01*
X66940614Y-119773340D01*
X67011899Y-119820971D01*
X67029204Y-119835172D01*
X67089828Y-119895796D01*
X67104029Y-119913101D01*
X67151660Y-119984386D01*
X67154568Y-119989827D01*
X67154571Y-119989831D01*
X67159307Y-119998691D01*
X67159309Y-119998697D01*
X67162220Y-120004142D01*
X67195024Y-120083340D01*
X67201524Y-120104767D01*
X67218250Y-120188851D01*
X67220444Y-120211131D01*
X67220444Y-120229550D01*
X67221046Y-120241801D01*
X67222852Y-120260139D01*
X67222852Y-120747860D01*
X67221263Y-120763999D01*
X67218348Y-120773608D01*
X67213610Y-120782472D01*
X67207237Y-120790237D01*
X67194794Y-120800448D01*
X67184425Y-120807378D01*
X67167098Y-120824705D01*
X67153485Y-120845080D01*
X67144109Y-120867720D01*
X67139329Y-120891753D01*
X67139330Y-120916257D01*
X67144112Y-120940290D01*
X67153490Y-120962929D01*
X67167105Y-120983302D01*
X67184432Y-121000629D01*
X67194802Y-121007558D01*
X67207237Y-121017763D01*
X67213610Y-121025528D01*
X67218348Y-121034392D01*
X67221263Y-121044001D01*
X67222852Y-121060140D01*
X67222852Y-121547862D01*
X67221046Y-121566199D01*
X67220444Y-121578450D01*
X67220444Y-121596869D01*
X67218250Y-121619149D01*
X67201524Y-121703233D01*
X67195024Y-121724660D01*
X67162220Y-121803858D01*
X67159309Y-121809303D01*
X67159307Y-121809309D01*
X67154571Y-121818169D01*
X67154568Y-121818173D01*
X67151660Y-121823614D01*
X67104029Y-121894899D01*
X67089828Y-121912204D01*
X67029204Y-121972828D01*
X67011899Y-121987029D01*
X66940614Y-122034660D01*
X66935173Y-122037568D01*
X66935169Y-122037571D01*
X66926309Y-122042307D01*
X66926303Y-122042309D01*
X66920858Y-122045220D01*
X66841660Y-122078024D01*
X66820233Y-122084524D01*
X66736149Y-122101250D01*
X66713869Y-122103444D01*
X66695450Y-122103444D01*
X66683199Y-122104046D01*
X66664862Y-122105852D01*
X66177138Y-122105852D01*
X66158801Y-122104046D01*
X66146550Y-122103444D01*
X66128131Y-122103444D01*
X66105851Y-122101250D01*
X66021767Y-122084524D01*
X66000340Y-122078024D01*
X65921142Y-122045220D01*
X65915697Y-122042309D01*
X65915691Y-122042307D01*
X65906831Y-122037571D01*
X65906827Y-122037568D01*
X65901386Y-122034660D01*
X65830101Y-121987029D01*
X65812796Y-121972828D01*
X65752172Y-121912204D01*
X65737971Y-121894899D01*
X65690340Y-121823614D01*
X65687432Y-121818173D01*
X65687429Y-121818169D01*
X65682693Y-121809309D01*
X65682691Y-121809303D01*
X65679780Y-121803858D01*
X65646976Y-121724660D01*
X65640476Y-121703233D01*
X65623750Y-121619149D01*
X65621556Y-121596869D01*
X65621556Y-121578450D01*
X65620954Y-121566199D01*
X65619148Y-121547862D01*
X65619148Y-121060140D01*
X65620737Y-121044001D01*
X65623652Y-121034392D01*
X65628390Y-121025528D01*
X65634763Y-121017763D01*
X65647206Y-121007552D01*
X65657575Y-121000622D01*
X65674902Y-120983295D01*
X65688515Y-120962920D01*
X65697891Y-120940280D01*
X65702671Y-120916247D01*
X65702670Y-120891743D01*
X65697888Y-120867710D01*
X65688510Y-120845071D01*
X65674895Y-120824698D01*
X65657568Y-120807371D01*
X65647198Y-120800442D01*
X65634763Y-120790237D01*
X65628390Y-120782472D01*
X65623652Y-120773608D01*
X65620737Y-120763999D01*
X65619148Y-120747860D01*
X65619148Y-120260139D01*
X65620954Y-120241801D01*
X65621556Y-120229550D01*
X65621556Y-120211131D01*
X65623750Y-120188851D01*
X65640476Y-120104767D01*
X65646976Y-120083340D01*
X65679780Y-120004142D01*
X65682691Y-119998697D01*
X65682693Y-119998691D01*
X65687429Y-119989831D01*
X65687432Y-119989827D01*
X65690340Y-119984386D01*
X65737971Y-119913101D01*
X65752172Y-119895796D01*
X65812796Y-119835172D01*
X65830101Y-119820971D01*
X65901386Y-119773340D01*
X65906827Y-119770432D01*
X65906831Y-119770429D01*
X65915691Y-119765693D01*
X65915697Y-119765691D01*
X65921142Y-119762780D01*
X66000340Y-119729976D01*
X66021767Y-119723476D01*
X66105851Y-119706750D01*
X66128131Y-119704556D01*
X66146550Y-119704556D01*
X66158801Y-119703954D01*
X66177139Y-119702148D01*
X66664861Y-119702148D01*
X66683199Y-119703954D01*
G37*
G36*
X93874000Y-120868000D02*
G01*
X92072000Y-120868000D01*
X92072000Y-119066000D01*
X93874000Y-119066000D01*
X93874000Y-120868000D01*
G37*
G36*
X90546512Y-119070927D02*
G01*
X90695812Y-119100624D01*
X90859784Y-119168544D01*
X91007354Y-119267147D01*
X91132853Y-119392646D01*
X91231456Y-119540216D01*
X91299376Y-119704188D01*
X91334000Y-119878259D01*
X91334000Y-120055741D01*
X91299376Y-120229812D01*
X91231456Y-120393784D01*
X91132853Y-120541354D01*
X91007354Y-120666853D01*
X90859784Y-120765456D01*
X90695812Y-120833376D01*
X90546512Y-120863073D01*
X90521742Y-120868000D01*
X90344258Y-120868000D01*
X90319488Y-120863073D01*
X90170188Y-120833376D01*
X90006216Y-120765456D01*
X89858646Y-120666853D01*
X89733147Y-120541354D01*
X89634544Y-120393784D01*
X89566624Y-120229812D01*
X89532000Y-120055741D01*
X89532000Y-119878259D01*
X89566624Y-119704188D01*
X89634544Y-119540216D01*
X89733147Y-119392646D01*
X89858646Y-119267147D01*
X90006216Y-119168544D01*
X90170188Y-119100624D01*
X90319488Y-119070927D01*
X90344258Y-119066000D01*
X90521742Y-119066000D01*
X90546512Y-119070927D01*
G37*
G36*
X115749260Y-113840371D02*
G01*
X115783071Y-113854376D01*
X115826784Y-113872482D01*
X115826787Y-113872484D01*
X115896559Y-113919104D01*
X115955896Y-113978441D01*
X115955897Y-113978443D01*
X116002518Y-114048216D01*
X116020624Y-114091929D01*
X116034629Y-114125740D01*
X116051000Y-114208043D01*
X116051000Y-114291957D01*
X116034629Y-114374260D01*
X116020624Y-114408071D01*
X116002518Y-114451784D01*
X116002516Y-114451787D01*
X115955896Y-114521559D01*
X115896559Y-114580896D01*
X115826787Y-114627516D01*
X115826784Y-114627518D01*
X115783071Y-114645624D01*
X115749260Y-114659629D01*
X115666957Y-114676000D01*
X115583043Y-114676000D01*
X115500740Y-114659629D01*
X115466929Y-114645624D01*
X115423216Y-114627518D01*
X115423213Y-114627516D01*
X115353441Y-114580896D01*
X115294104Y-114521559D01*
X115247484Y-114451787D01*
X115247482Y-114451784D01*
X115229376Y-114408071D01*
X115215371Y-114374260D01*
X115199000Y-114291957D01*
X115199000Y-114208043D01*
X115215371Y-114125740D01*
X115229376Y-114091929D01*
X115247482Y-114048216D01*
X115294103Y-113978443D01*
X115294104Y-113978441D01*
X115353441Y-113919104D01*
X115423213Y-113872484D01*
X115423216Y-113872482D01*
X115466929Y-113854376D01*
X115500740Y-113840371D01*
X115583043Y-113824000D01*
X115666957Y-113824000D01*
X115749260Y-113840371D01*
G37*
G36*
X112999260Y-113840371D02*
G01*
X113033071Y-113854376D01*
X113076784Y-113872482D01*
X113076787Y-113872484D01*
X113146559Y-113919104D01*
X113205896Y-113978441D01*
X113205897Y-113978443D01*
X113252518Y-114048216D01*
X113270624Y-114091929D01*
X113284629Y-114125740D01*
X113301000Y-114208043D01*
X113301000Y-114291957D01*
X113284629Y-114374260D01*
X113270624Y-114408071D01*
X113252518Y-114451784D01*
X113252516Y-114451787D01*
X113205896Y-114521559D01*
X113146559Y-114580896D01*
X113076787Y-114627516D01*
X113076784Y-114627518D01*
X113033071Y-114645624D01*
X112999260Y-114659629D01*
X112916957Y-114676000D01*
X112833043Y-114676000D01*
X112750740Y-114659629D01*
X112716929Y-114645624D01*
X112673216Y-114627518D01*
X112673213Y-114627516D01*
X112603441Y-114580896D01*
X112544104Y-114521559D01*
X112497484Y-114451787D01*
X112497482Y-114451784D01*
X112479376Y-114408071D01*
X112465371Y-114374260D01*
X112449000Y-114291957D01*
X112449000Y-114208043D01*
X112465371Y-114125740D01*
X112479376Y-114091929D01*
X112497482Y-114048216D01*
X112544103Y-113978443D01*
X112544104Y-113978441D01*
X112603441Y-113919104D01*
X112673213Y-113872484D01*
X112673216Y-113872482D01*
X112716929Y-113854376D01*
X112750740Y-113840371D01*
X112833043Y-113824000D01*
X112916957Y-113824000D01*
X112999260Y-113840371D01*
G37*
G36*
X89394999Y-110705737D02*
G01*
X89404608Y-110708652D01*
X89413472Y-110713390D01*
X89421237Y-110719763D01*
X89431448Y-110732206D01*
X89438378Y-110742575D01*
X89455705Y-110759902D01*
X89476080Y-110773515D01*
X89498720Y-110782891D01*
X89522753Y-110787671D01*
X89547257Y-110787670D01*
X89571290Y-110782888D01*
X89593929Y-110773510D01*
X89614302Y-110759895D01*
X89631629Y-110742568D01*
X89638558Y-110732198D01*
X89648763Y-110719763D01*
X89656528Y-110713390D01*
X89665392Y-110708652D01*
X89675001Y-110705737D01*
X89691140Y-110704148D01*
X90178861Y-110704148D01*
X90197199Y-110705954D01*
X90209450Y-110706556D01*
X90227869Y-110706556D01*
X90250149Y-110708750D01*
X90334233Y-110725476D01*
X90355660Y-110731976D01*
X90434858Y-110764780D01*
X90440303Y-110767691D01*
X90440309Y-110767693D01*
X90449169Y-110772429D01*
X90449173Y-110772432D01*
X90454614Y-110775340D01*
X90525899Y-110822971D01*
X90543204Y-110837172D01*
X90603828Y-110897796D01*
X90618029Y-110915101D01*
X90665660Y-110986386D01*
X90668568Y-110991827D01*
X90668571Y-110991831D01*
X90673307Y-111000691D01*
X90673309Y-111000697D01*
X90676220Y-111006142D01*
X90709024Y-111085340D01*
X90715524Y-111106767D01*
X90732250Y-111190851D01*
X90734444Y-111213131D01*
X90734444Y-111231550D01*
X90735046Y-111243801D01*
X90736852Y-111262139D01*
X90736852Y-111749862D01*
X90735046Y-111768199D01*
X90734444Y-111780450D01*
X90734444Y-111798869D01*
X90732250Y-111821149D01*
X90715524Y-111905233D01*
X90709024Y-111926660D01*
X90676220Y-112005858D01*
X90673309Y-112011303D01*
X90673307Y-112011309D01*
X90668571Y-112020169D01*
X90668568Y-112020173D01*
X90665660Y-112025614D01*
X90618029Y-112096899D01*
X90603828Y-112114204D01*
X90543204Y-112174828D01*
X90525899Y-112189029D01*
X90454614Y-112236660D01*
X90449173Y-112239568D01*
X90449169Y-112239571D01*
X90440309Y-112244307D01*
X90440303Y-112244309D01*
X90434858Y-112247220D01*
X90355660Y-112280024D01*
X90334233Y-112286524D01*
X90250149Y-112303250D01*
X90227869Y-112305444D01*
X90209450Y-112305444D01*
X90197199Y-112306046D01*
X90178862Y-112307852D01*
X89691140Y-112307852D01*
X89675001Y-112306263D01*
X89665392Y-112303348D01*
X89656528Y-112298610D01*
X89648763Y-112292237D01*
X89638552Y-112279794D01*
X89631622Y-112269425D01*
X89614295Y-112252098D01*
X89593920Y-112238485D01*
X89571280Y-112229109D01*
X89547247Y-112224329D01*
X89522743Y-112224330D01*
X89498710Y-112229112D01*
X89476071Y-112238490D01*
X89455698Y-112252105D01*
X89438371Y-112269432D01*
X89431442Y-112279802D01*
X89421237Y-112292237D01*
X89413472Y-112298610D01*
X89404608Y-112303348D01*
X89394999Y-112306263D01*
X89378860Y-112307852D01*
X88891138Y-112307852D01*
X88872801Y-112306046D01*
X88860550Y-112305444D01*
X88842131Y-112305444D01*
X88819851Y-112303250D01*
X88735767Y-112286524D01*
X88714340Y-112280024D01*
X88635142Y-112247220D01*
X88629697Y-112244309D01*
X88629691Y-112244307D01*
X88620831Y-112239571D01*
X88620827Y-112239568D01*
X88615386Y-112236660D01*
X88544101Y-112189029D01*
X88526796Y-112174828D01*
X88466172Y-112114204D01*
X88451971Y-112096899D01*
X88404340Y-112025614D01*
X88401432Y-112020173D01*
X88401429Y-112020169D01*
X88396693Y-112011309D01*
X88396691Y-112011303D01*
X88393780Y-112005858D01*
X88360976Y-111926660D01*
X88354476Y-111905233D01*
X88337750Y-111821149D01*
X88335556Y-111798869D01*
X88335556Y-111780450D01*
X88334954Y-111768199D01*
X88333148Y-111749862D01*
X88333148Y-111262139D01*
X88334954Y-111243801D01*
X88335556Y-111231550D01*
X88335556Y-111213131D01*
X88337750Y-111190851D01*
X88354476Y-111106767D01*
X88360976Y-111085340D01*
X88393780Y-111006142D01*
X88396691Y-111000697D01*
X88396693Y-111000691D01*
X88401429Y-110991831D01*
X88401432Y-110991827D01*
X88404340Y-110986386D01*
X88451971Y-110915101D01*
X88466172Y-110897796D01*
X88526796Y-110837172D01*
X88544101Y-110822971D01*
X88615386Y-110775340D01*
X88620827Y-110772432D01*
X88620831Y-110772429D01*
X88629691Y-110767693D01*
X88629697Y-110767691D01*
X88635142Y-110764780D01*
X88714340Y-110731976D01*
X88735767Y-110725476D01*
X88819851Y-110708750D01*
X88842131Y-110706556D01*
X88860550Y-110706556D01*
X88872801Y-110705954D01*
X88891139Y-110704148D01*
X89378860Y-110704148D01*
X89394999Y-110705737D01*
G37*
G36*
X93734199Y-109416954D02*
G01*
X93746450Y-109417556D01*
X93764869Y-109417556D01*
X93787149Y-109419750D01*
X93871233Y-109436476D01*
X93892660Y-109442976D01*
X93971858Y-109475780D01*
X93977303Y-109478691D01*
X93977309Y-109478693D01*
X93986169Y-109483429D01*
X93986173Y-109483432D01*
X93991614Y-109486340D01*
X94062899Y-109533971D01*
X94080204Y-109548172D01*
X94140828Y-109608796D01*
X94155029Y-109626101D01*
X94202660Y-109697386D01*
X94205568Y-109702827D01*
X94205571Y-109702831D01*
X94210307Y-109711691D01*
X94210309Y-109711697D01*
X94213220Y-109717142D01*
X94246024Y-109796340D01*
X94252524Y-109817767D01*
X94269250Y-109901851D01*
X94271444Y-109924131D01*
X94271444Y-109942550D01*
X94272046Y-109954801D01*
X94273852Y-109973139D01*
X94273852Y-110460860D01*
X94272263Y-110476999D01*
X94269348Y-110486608D01*
X94264610Y-110495472D01*
X94258237Y-110503237D01*
X94245794Y-110513448D01*
X94235425Y-110520378D01*
X94218098Y-110537705D01*
X94204485Y-110558080D01*
X94195109Y-110580720D01*
X94190329Y-110604753D01*
X94190330Y-110629257D01*
X94195112Y-110653290D01*
X94204490Y-110675929D01*
X94218105Y-110696302D01*
X94235432Y-110713629D01*
X94245802Y-110720558D01*
X94258237Y-110730763D01*
X94264610Y-110738528D01*
X94269348Y-110747392D01*
X94272263Y-110757001D01*
X94273852Y-110773140D01*
X94273852Y-111260862D01*
X94272046Y-111279199D01*
X94271444Y-111291450D01*
X94271444Y-111309869D01*
X94269250Y-111332149D01*
X94252524Y-111416233D01*
X94246024Y-111437660D01*
X94213220Y-111516858D01*
X94210309Y-111522303D01*
X94210307Y-111522309D01*
X94205571Y-111531169D01*
X94205568Y-111531173D01*
X94202660Y-111536614D01*
X94155029Y-111607899D01*
X94140828Y-111625204D01*
X94080204Y-111685828D01*
X94062899Y-111700029D01*
X93991614Y-111747660D01*
X93986173Y-111750568D01*
X93986169Y-111750571D01*
X93977309Y-111755307D01*
X93977303Y-111755309D01*
X93971858Y-111758220D01*
X93892660Y-111791024D01*
X93871233Y-111797524D01*
X93787149Y-111814250D01*
X93764869Y-111816444D01*
X93746450Y-111816444D01*
X93734199Y-111817046D01*
X93715862Y-111818852D01*
X93228138Y-111818852D01*
X93209801Y-111817046D01*
X93197550Y-111816444D01*
X93179131Y-111816444D01*
X93156851Y-111814250D01*
X93072767Y-111797524D01*
X93051340Y-111791024D01*
X92972142Y-111758220D01*
X92966697Y-111755309D01*
X92966691Y-111755307D01*
X92957831Y-111750571D01*
X92957827Y-111750568D01*
X92952386Y-111747660D01*
X92881101Y-111700029D01*
X92863796Y-111685828D01*
X92803172Y-111625204D01*
X92788971Y-111607899D01*
X92741340Y-111536614D01*
X92738432Y-111531173D01*
X92738429Y-111531169D01*
X92733693Y-111522309D01*
X92733691Y-111522303D01*
X92730780Y-111516858D01*
X92697976Y-111437660D01*
X92691476Y-111416233D01*
X92674750Y-111332149D01*
X92672556Y-111309869D01*
X92672556Y-111291450D01*
X92671954Y-111279199D01*
X92670148Y-111260862D01*
X92670148Y-110773140D01*
X92671737Y-110757001D01*
X92674652Y-110747392D01*
X92679390Y-110738528D01*
X92685763Y-110730763D01*
X92698206Y-110720552D01*
X92708575Y-110713622D01*
X92725902Y-110696295D01*
X92739515Y-110675920D01*
X92748891Y-110653280D01*
X92753671Y-110629247D01*
X92753670Y-110604743D01*
X92748888Y-110580710D01*
X92739510Y-110558071D01*
X92725895Y-110537698D01*
X92708568Y-110520371D01*
X92698198Y-110513442D01*
X92685763Y-110503237D01*
X92679390Y-110495472D01*
X92674652Y-110486608D01*
X92671737Y-110476999D01*
X92670148Y-110460860D01*
X92670148Y-109973139D01*
X92671954Y-109954801D01*
X92672556Y-109942550D01*
X92672556Y-109924131D01*
X92674750Y-109901851D01*
X92691476Y-109817767D01*
X92697976Y-109796340D01*
X92730780Y-109717142D01*
X92733691Y-109711697D01*
X92733693Y-109711691D01*
X92738429Y-109702831D01*
X92738432Y-109702827D01*
X92741340Y-109697386D01*
X92788971Y-109626101D01*
X92803172Y-109608796D01*
X92863796Y-109548172D01*
X92881101Y-109533971D01*
X92952386Y-109486340D01*
X92957827Y-109483432D01*
X92957831Y-109483429D01*
X92966691Y-109478693D01*
X92966697Y-109478691D01*
X92972142Y-109475780D01*
X93051340Y-109442976D01*
X93072767Y-109436476D01*
X93156851Y-109419750D01*
X93179131Y-109417556D01*
X93197550Y-109417556D01*
X93209801Y-109416954D01*
X93228139Y-109415148D01*
X93715861Y-109415148D01*
X93734199Y-109416954D01*
G37*
G36*
X89394999Y-108546737D02*
G01*
X89404608Y-108549652D01*
X89413472Y-108554390D01*
X89421237Y-108560763D01*
X89431448Y-108573206D01*
X89438378Y-108583575D01*
X89455705Y-108600902D01*
X89476080Y-108614515D01*
X89498720Y-108623891D01*
X89522753Y-108628671D01*
X89547257Y-108628670D01*
X89571290Y-108623888D01*
X89593929Y-108614510D01*
X89614302Y-108600895D01*
X89631629Y-108583568D01*
X89638558Y-108573198D01*
X89648763Y-108560763D01*
X89656528Y-108554390D01*
X89665392Y-108549652D01*
X89675001Y-108546737D01*
X89691140Y-108545148D01*
X90178861Y-108545148D01*
X90197199Y-108546954D01*
X90209450Y-108547556D01*
X90227869Y-108547556D01*
X90250149Y-108549750D01*
X90334233Y-108566476D01*
X90355660Y-108572976D01*
X90434858Y-108605780D01*
X90440303Y-108608691D01*
X90440309Y-108608693D01*
X90449169Y-108613429D01*
X90449173Y-108613432D01*
X90454614Y-108616340D01*
X90525899Y-108663971D01*
X90543204Y-108678172D01*
X90603828Y-108738796D01*
X90618029Y-108756101D01*
X90665660Y-108827386D01*
X90668568Y-108832827D01*
X90668571Y-108832831D01*
X90673307Y-108841691D01*
X90673309Y-108841697D01*
X90676220Y-108847142D01*
X90709024Y-108926340D01*
X90715524Y-108947767D01*
X90732250Y-109031851D01*
X90734444Y-109054131D01*
X90734444Y-109072550D01*
X90735046Y-109084801D01*
X90736852Y-109103139D01*
X90736852Y-109590862D01*
X90735046Y-109609199D01*
X90734444Y-109621450D01*
X90734444Y-109639869D01*
X90732250Y-109662149D01*
X90715524Y-109746233D01*
X90709024Y-109767660D01*
X90676220Y-109846858D01*
X90673309Y-109852303D01*
X90673307Y-109852309D01*
X90668571Y-109861169D01*
X90668568Y-109861173D01*
X90665660Y-109866614D01*
X90618029Y-109937899D01*
X90603828Y-109955204D01*
X90543204Y-110015828D01*
X90525899Y-110030029D01*
X90454614Y-110077660D01*
X90449173Y-110080568D01*
X90449169Y-110080571D01*
X90440309Y-110085307D01*
X90440303Y-110085309D01*
X90434858Y-110088220D01*
X90355660Y-110121024D01*
X90334233Y-110127524D01*
X90250149Y-110144250D01*
X90227869Y-110146444D01*
X90209450Y-110146444D01*
X90197199Y-110147046D01*
X90178862Y-110148852D01*
X89691140Y-110148852D01*
X89675001Y-110147263D01*
X89665392Y-110144348D01*
X89656528Y-110139610D01*
X89648763Y-110133237D01*
X89638552Y-110120794D01*
X89631622Y-110110425D01*
X89614295Y-110093098D01*
X89593920Y-110079485D01*
X89571280Y-110070109D01*
X89547247Y-110065329D01*
X89522743Y-110065330D01*
X89498710Y-110070112D01*
X89476071Y-110079490D01*
X89455698Y-110093105D01*
X89438371Y-110110432D01*
X89431442Y-110120802D01*
X89421237Y-110133237D01*
X89413472Y-110139610D01*
X89404608Y-110144348D01*
X89394999Y-110147263D01*
X89378860Y-110148852D01*
X88891138Y-110148852D01*
X88872801Y-110147046D01*
X88860550Y-110146444D01*
X88842131Y-110146444D01*
X88819851Y-110144250D01*
X88735767Y-110127524D01*
X88714340Y-110121024D01*
X88635142Y-110088220D01*
X88629697Y-110085309D01*
X88629691Y-110085307D01*
X88620831Y-110080571D01*
X88620827Y-110080568D01*
X88615386Y-110077660D01*
X88544101Y-110030029D01*
X88526796Y-110015828D01*
X88466172Y-109955204D01*
X88451971Y-109937899D01*
X88404340Y-109866614D01*
X88401432Y-109861173D01*
X88401429Y-109861169D01*
X88396693Y-109852309D01*
X88396691Y-109852303D01*
X88393780Y-109846858D01*
X88360976Y-109767660D01*
X88354476Y-109746233D01*
X88337750Y-109662149D01*
X88335556Y-109639869D01*
X88335556Y-109621450D01*
X88334954Y-109609199D01*
X88333148Y-109590862D01*
X88333148Y-109103139D01*
X88334954Y-109084801D01*
X88335556Y-109072550D01*
X88335556Y-109054131D01*
X88337750Y-109031851D01*
X88354476Y-108947767D01*
X88360976Y-108926340D01*
X88393780Y-108847142D01*
X88396691Y-108841697D01*
X88396693Y-108841691D01*
X88401429Y-108832831D01*
X88401432Y-108832827D01*
X88404340Y-108827386D01*
X88451971Y-108756101D01*
X88466172Y-108738796D01*
X88526796Y-108678172D01*
X88544101Y-108663971D01*
X88615386Y-108616340D01*
X88620827Y-108613432D01*
X88620831Y-108613429D01*
X88629691Y-108608693D01*
X88629697Y-108608691D01*
X88635142Y-108605780D01*
X88714340Y-108572976D01*
X88735767Y-108566476D01*
X88819851Y-108549750D01*
X88842131Y-108547556D01*
X88860550Y-108547556D01*
X88872801Y-108546954D01*
X88891139Y-108545148D01*
X89378860Y-108545148D01*
X89394999Y-108546737D01*
G37*
G36*
X122573020Y-108144969D02*
G01*
X122672804Y-108186301D01*
X122743362Y-108215527D01*
X122896665Y-108317961D01*
X123027039Y-108448335D01*
X123129473Y-108601638D01*
X123138689Y-108623888D01*
X123200031Y-108771980D01*
X123236000Y-108952811D01*
X123236000Y-109137189D01*
X123200031Y-109318020D01*
X123159799Y-109415148D01*
X123129473Y-109488362D01*
X123027039Y-109641665D01*
X122896665Y-109772039D01*
X122743362Y-109874473D01*
X122677265Y-109901851D01*
X122573020Y-109945031D01*
X122392189Y-109981000D01*
X122207811Y-109981000D01*
X122026980Y-109945031D01*
X121922735Y-109901851D01*
X121856638Y-109874473D01*
X121703335Y-109772039D01*
X121572961Y-109641665D01*
X121470527Y-109488362D01*
X121440201Y-109415148D01*
X121399969Y-109318020D01*
X121364000Y-109137189D01*
X121364000Y-108952811D01*
X121399969Y-108771980D01*
X121461311Y-108623888D01*
X121470527Y-108601638D01*
X121572961Y-108448335D01*
X121703335Y-108317961D01*
X121856638Y-108215527D01*
X121927196Y-108186301D01*
X122026980Y-108144969D01*
X122207811Y-108109000D01*
X122392189Y-108109000D01*
X122573020Y-108144969D01*
G37*
G36*
X80272199Y-104463954D02*
G01*
X80284450Y-104464556D01*
X80302869Y-104464556D01*
X80325149Y-104466750D01*
X80409233Y-104483476D01*
X80430660Y-104489976D01*
X80509858Y-104522780D01*
X80515303Y-104525691D01*
X80515309Y-104525693D01*
X80524169Y-104530429D01*
X80524173Y-104530432D01*
X80529614Y-104533340D01*
X80600899Y-104580971D01*
X80618204Y-104595172D01*
X80678828Y-104655796D01*
X80693029Y-104673101D01*
X80740660Y-104744386D01*
X80743568Y-104749827D01*
X80743571Y-104749831D01*
X80748307Y-104758691D01*
X80748309Y-104758697D01*
X80751220Y-104764142D01*
X80784024Y-104843340D01*
X80790524Y-104864767D01*
X80807250Y-104948851D01*
X80809444Y-104971131D01*
X80809444Y-104989550D01*
X80810046Y-105001801D01*
X80811852Y-105020139D01*
X80811852Y-105507860D01*
X80810263Y-105523999D01*
X80807348Y-105533608D01*
X80802610Y-105542472D01*
X80796237Y-105550237D01*
X80783794Y-105560448D01*
X80773425Y-105567378D01*
X80756098Y-105584705D01*
X80742485Y-105605080D01*
X80733109Y-105627720D01*
X80728329Y-105651753D01*
X80728330Y-105676257D01*
X80733112Y-105700290D01*
X80742490Y-105722929D01*
X80756105Y-105743302D01*
X80773432Y-105760629D01*
X80783802Y-105767558D01*
X80796237Y-105777763D01*
X80802610Y-105785528D01*
X80807348Y-105794392D01*
X80810263Y-105804001D01*
X80811852Y-105820140D01*
X80811852Y-106307862D01*
X80810046Y-106326199D01*
X80809444Y-106338450D01*
X80809444Y-106356869D01*
X80807250Y-106379149D01*
X80790524Y-106463233D01*
X80784024Y-106484660D01*
X80751220Y-106563858D01*
X80748309Y-106569303D01*
X80748307Y-106569309D01*
X80743571Y-106578169D01*
X80743568Y-106578173D01*
X80740660Y-106583614D01*
X80693029Y-106654899D01*
X80678828Y-106672204D01*
X80618204Y-106732828D01*
X80600899Y-106747029D01*
X80529614Y-106794660D01*
X80524173Y-106797568D01*
X80524169Y-106797571D01*
X80515309Y-106802307D01*
X80515303Y-106802309D01*
X80509858Y-106805220D01*
X80430660Y-106838024D01*
X80409233Y-106844524D01*
X80325149Y-106861250D01*
X80302869Y-106863444D01*
X80284450Y-106863444D01*
X80272199Y-106864046D01*
X80253862Y-106865852D01*
X79766138Y-106865852D01*
X79747801Y-106864046D01*
X79735550Y-106863444D01*
X79717131Y-106863444D01*
X79694851Y-106861250D01*
X79610767Y-106844524D01*
X79589340Y-106838024D01*
X79510142Y-106805220D01*
X79504697Y-106802309D01*
X79504691Y-106802307D01*
X79495831Y-106797571D01*
X79495827Y-106797568D01*
X79490386Y-106794660D01*
X79419101Y-106747029D01*
X79401796Y-106732828D01*
X79341172Y-106672204D01*
X79326971Y-106654899D01*
X79279340Y-106583614D01*
X79276432Y-106578173D01*
X79276429Y-106578169D01*
X79271693Y-106569309D01*
X79271691Y-106569303D01*
X79268780Y-106563858D01*
X79235976Y-106484660D01*
X79229476Y-106463233D01*
X79212750Y-106379149D01*
X79210556Y-106356869D01*
X79210556Y-106338450D01*
X79209954Y-106326199D01*
X79208148Y-106307862D01*
X79208148Y-105820140D01*
X79209737Y-105804001D01*
X79212652Y-105794392D01*
X79217390Y-105785528D01*
X79223763Y-105777763D01*
X79236206Y-105767552D01*
X79246575Y-105760622D01*
X79263902Y-105743295D01*
X79277515Y-105722920D01*
X79286891Y-105700280D01*
X79291671Y-105676247D01*
X79291670Y-105651743D01*
X79286888Y-105627710D01*
X79277510Y-105605071D01*
X79263895Y-105584698D01*
X79246568Y-105567371D01*
X79236198Y-105560442D01*
X79223763Y-105550237D01*
X79217390Y-105542472D01*
X79212652Y-105533608D01*
X79209737Y-105523999D01*
X79208148Y-105507860D01*
X79208148Y-105020139D01*
X79209954Y-105001801D01*
X79210556Y-104989550D01*
X79210556Y-104971131D01*
X79212750Y-104948851D01*
X79229476Y-104864767D01*
X79235976Y-104843340D01*
X79268780Y-104764142D01*
X79271691Y-104758697D01*
X79271693Y-104758691D01*
X79276429Y-104749831D01*
X79276432Y-104749827D01*
X79279340Y-104744386D01*
X79326971Y-104673101D01*
X79341172Y-104655796D01*
X79401796Y-104595172D01*
X79419101Y-104580971D01*
X79490386Y-104533340D01*
X79495827Y-104530432D01*
X79495831Y-104530429D01*
X79504691Y-104525693D01*
X79504697Y-104525691D01*
X79510142Y-104522780D01*
X79589340Y-104489976D01*
X79610767Y-104483476D01*
X79694851Y-104466750D01*
X79717131Y-104464556D01*
X79735550Y-104464556D01*
X79747801Y-104463954D01*
X79766139Y-104462148D01*
X80253861Y-104462148D01*
X80272199Y-104463954D01*
G37*
G36*
X75065199Y-104463954D02*
G01*
X75077450Y-104464556D01*
X75095869Y-104464556D01*
X75118149Y-104466750D01*
X75202233Y-104483476D01*
X75223660Y-104489976D01*
X75302858Y-104522780D01*
X75308303Y-104525691D01*
X75308309Y-104525693D01*
X75317169Y-104530429D01*
X75317173Y-104530432D01*
X75322614Y-104533340D01*
X75393899Y-104580971D01*
X75411204Y-104595172D01*
X75471828Y-104655796D01*
X75486029Y-104673101D01*
X75533660Y-104744386D01*
X75536568Y-104749827D01*
X75536571Y-104749831D01*
X75541307Y-104758691D01*
X75541309Y-104758697D01*
X75544220Y-104764142D01*
X75577024Y-104843340D01*
X75583524Y-104864767D01*
X75600250Y-104948851D01*
X75602444Y-104971131D01*
X75602444Y-104989550D01*
X75603046Y-105001801D01*
X75604852Y-105020139D01*
X75604852Y-105507860D01*
X75603263Y-105523999D01*
X75600348Y-105533608D01*
X75595610Y-105542472D01*
X75589237Y-105550237D01*
X75576794Y-105560448D01*
X75566425Y-105567378D01*
X75549098Y-105584705D01*
X75535485Y-105605080D01*
X75526109Y-105627720D01*
X75521329Y-105651753D01*
X75521330Y-105676257D01*
X75526112Y-105700290D01*
X75535490Y-105722929D01*
X75549105Y-105743302D01*
X75566432Y-105760629D01*
X75576802Y-105767558D01*
X75589237Y-105777763D01*
X75595610Y-105785528D01*
X75600348Y-105794392D01*
X75603263Y-105804001D01*
X75604852Y-105820140D01*
X75604852Y-106307862D01*
X75603046Y-106326199D01*
X75602444Y-106338450D01*
X75602444Y-106356869D01*
X75600250Y-106379149D01*
X75583524Y-106463233D01*
X75577024Y-106484660D01*
X75544220Y-106563858D01*
X75541309Y-106569303D01*
X75541307Y-106569309D01*
X75536571Y-106578169D01*
X75536568Y-106578173D01*
X75533660Y-106583614D01*
X75486029Y-106654899D01*
X75471828Y-106672204D01*
X75411204Y-106732828D01*
X75393899Y-106747029D01*
X75322614Y-106794660D01*
X75317173Y-106797568D01*
X75317169Y-106797571D01*
X75308309Y-106802307D01*
X75308303Y-106802309D01*
X75302858Y-106805220D01*
X75223660Y-106838024D01*
X75202233Y-106844524D01*
X75118149Y-106861250D01*
X75095869Y-106863444D01*
X75077450Y-106863444D01*
X75065199Y-106864046D01*
X75046862Y-106865852D01*
X74559138Y-106865852D01*
X74540801Y-106864046D01*
X74528550Y-106863444D01*
X74510131Y-106863444D01*
X74487851Y-106861250D01*
X74403767Y-106844524D01*
X74382340Y-106838024D01*
X74303142Y-106805220D01*
X74297697Y-106802309D01*
X74297691Y-106802307D01*
X74288831Y-106797571D01*
X74288827Y-106797568D01*
X74283386Y-106794660D01*
X74212101Y-106747029D01*
X74194796Y-106732828D01*
X74134172Y-106672204D01*
X74119971Y-106654899D01*
X74072340Y-106583614D01*
X74069432Y-106578173D01*
X74069429Y-106578169D01*
X74064693Y-106569309D01*
X74064691Y-106569303D01*
X74061780Y-106563858D01*
X74028976Y-106484660D01*
X74022476Y-106463233D01*
X74005750Y-106379149D01*
X74003556Y-106356869D01*
X74003556Y-106338450D01*
X74002954Y-106326199D01*
X74001148Y-106307862D01*
X74001148Y-105820140D01*
X74002737Y-105804001D01*
X74005652Y-105794392D01*
X74010390Y-105785528D01*
X74016763Y-105777763D01*
X74029206Y-105767552D01*
X74039575Y-105760622D01*
X74056902Y-105743295D01*
X74070515Y-105722920D01*
X74079891Y-105700280D01*
X74084671Y-105676247D01*
X74084670Y-105651743D01*
X74079888Y-105627710D01*
X74070510Y-105605071D01*
X74056895Y-105584698D01*
X74039568Y-105567371D01*
X74029198Y-105560442D01*
X74016763Y-105550237D01*
X74010390Y-105542472D01*
X74005652Y-105533608D01*
X74002737Y-105523999D01*
X74001148Y-105507860D01*
X74001148Y-105020139D01*
X74002954Y-105001801D01*
X74003556Y-104989550D01*
X74003556Y-104971131D01*
X74005750Y-104948851D01*
X74022476Y-104864767D01*
X74028976Y-104843340D01*
X74061780Y-104764142D01*
X74064691Y-104758697D01*
X74064693Y-104758691D01*
X74069429Y-104749831D01*
X74069432Y-104749827D01*
X74072340Y-104744386D01*
X74119971Y-104673101D01*
X74134172Y-104655796D01*
X74194796Y-104595172D01*
X74212101Y-104580971D01*
X74283386Y-104533340D01*
X74288827Y-104530432D01*
X74288831Y-104530429D01*
X74297691Y-104525693D01*
X74297697Y-104525691D01*
X74303142Y-104522780D01*
X74382340Y-104489976D01*
X74403767Y-104483476D01*
X74487851Y-104466750D01*
X74510131Y-104464556D01*
X74528550Y-104464556D01*
X74540801Y-104463954D01*
X74559139Y-104462148D01*
X75046861Y-104462148D01*
X75065199Y-104463954D01*
G37*
G36*
X77732199Y-104463954D02*
G01*
X77744450Y-104464556D01*
X77762869Y-104464556D01*
X77785149Y-104466750D01*
X77869233Y-104483476D01*
X77890660Y-104489976D01*
X77969858Y-104522780D01*
X77975303Y-104525691D01*
X77975309Y-104525693D01*
X77984169Y-104530429D01*
X77984173Y-104530432D01*
X77989614Y-104533340D01*
X78060899Y-104580971D01*
X78078204Y-104595172D01*
X78138828Y-104655796D01*
X78153029Y-104673101D01*
X78200660Y-104744386D01*
X78203568Y-104749827D01*
X78203571Y-104749831D01*
X78208307Y-104758691D01*
X78208309Y-104758697D01*
X78211220Y-104764142D01*
X78244024Y-104843340D01*
X78250524Y-104864767D01*
X78267250Y-104948851D01*
X78269444Y-104971131D01*
X78269444Y-104989550D01*
X78270046Y-105001801D01*
X78271852Y-105020139D01*
X78271852Y-105507860D01*
X78270263Y-105523999D01*
X78267348Y-105533608D01*
X78262610Y-105542472D01*
X78256237Y-105550237D01*
X78243794Y-105560448D01*
X78233425Y-105567378D01*
X78216098Y-105584705D01*
X78202485Y-105605080D01*
X78193109Y-105627720D01*
X78188329Y-105651753D01*
X78188330Y-105676257D01*
X78193112Y-105700290D01*
X78202490Y-105722929D01*
X78216105Y-105743302D01*
X78233432Y-105760629D01*
X78243802Y-105767558D01*
X78256237Y-105777763D01*
X78262610Y-105785528D01*
X78267348Y-105794392D01*
X78270263Y-105804001D01*
X78271852Y-105820140D01*
X78271852Y-106307862D01*
X78270046Y-106326199D01*
X78269444Y-106338450D01*
X78269444Y-106356869D01*
X78267250Y-106379149D01*
X78250524Y-106463233D01*
X78244024Y-106484660D01*
X78211220Y-106563858D01*
X78208309Y-106569303D01*
X78208307Y-106569309D01*
X78203571Y-106578169D01*
X78203568Y-106578173D01*
X78200660Y-106583614D01*
X78153029Y-106654899D01*
X78138828Y-106672204D01*
X78078204Y-106732828D01*
X78060899Y-106747029D01*
X77989614Y-106794660D01*
X77984173Y-106797568D01*
X77984169Y-106797571D01*
X77975309Y-106802307D01*
X77975303Y-106802309D01*
X77969858Y-106805220D01*
X77890660Y-106838024D01*
X77869233Y-106844524D01*
X77785149Y-106861250D01*
X77762869Y-106863444D01*
X77744450Y-106863444D01*
X77732199Y-106864046D01*
X77713862Y-106865852D01*
X77226138Y-106865852D01*
X77207801Y-106864046D01*
X77195550Y-106863444D01*
X77177131Y-106863444D01*
X77154851Y-106861250D01*
X77070767Y-106844524D01*
X77049340Y-106838024D01*
X76970142Y-106805220D01*
X76964697Y-106802309D01*
X76964691Y-106802307D01*
X76955831Y-106797571D01*
X76955827Y-106797568D01*
X76950386Y-106794660D01*
X76879101Y-106747029D01*
X76861796Y-106732828D01*
X76801172Y-106672204D01*
X76786971Y-106654899D01*
X76739340Y-106583614D01*
X76736432Y-106578173D01*
X76736429Y-106578169D01*
X76731693Y-106569309D01*
X76731691Y-106569303D01*
X76728780Y-106563858D01*
X76695976Y-106484660D01*
X76689476Y-106463233D01*
X76672750Y-106379149D01*
X76670556Y-106356869D01*
X76670556Y-106338450D01*
X76669954Y-106326199D01*
X76668148Y-106307862D01*
X76668148Y-105820140D01*
X76669737Y-105804001D01*
X76672652Y-105794392D01*
X76677390Y-105785528D01*
X76683763Y-105777763D01*
X76696206Y-105767552D01*
X76706575Y-105760622D01*
X76723902Y-105743295D01*
X76737515Y-105722920D01*
X76746891Y-105700280D01*
X76751671Y-105676247D01*
X76751670Y-105651743D01*
X76746888Y-105627710D01*
X76737510Y-105605071D01*
X76723895Y-105584698D01*
X76706568Y-105567371D01*
X76696198Y-105560442D01*
X76683763Y-105550237D01*
X76677390Y-105542472D01*
X76672652Y-105533608D01*
X76669737Y-105523999D01*
X76668148Y-105507860D01*
X76668148Y-105020139D01*
X76669954Y-105001801D01*
X76670556Y-104989550D01*
X76670556Y-104971131D01*
X76672750Y-104948851D01*
X76689476Y-104864767D01*
X76695976Y-104843340D01*
X76728780Y-104764142D01*
X76731691Y-104758697D01*
X76731693Y-104758691D01*
X76736429Y-104749831D01*
X76736432Y-104749827D01*
X76739340Y-104744386D01*
X76786971Y-104673101D01*
X76801172Y-104655796D01*
X76861796Y-104595172D01*
X76879101Y-104580971D01*
X76950386Y-104533340D01*
X76955827Y-104530432D01*
X76955831Y-104530429D01*
X76964691Y-104525693D01*
X76964697Y-104525691D01*
X76970142Y-104522780D01*
X77049340Y-104489976D01*
X77070767Y-104483476D01*
X77154851Y-104466750D01*
X77177131Y-104464556D01*
X77195550Y-104464556D01*
X77207801Y-104463954D01*
X77226139Y-104462148D01*
X77713861Y-104462148D01*
X77732199Y-104463954D01*
G37*
G36*
X116555797Y-101332567D02*
G01*
X116610575Y-101355257D01*
X116610577Y-101355258D01*
X116659876Y-101388198D01*
X116701802Y-101430124D01*
X116734742Y-101479423D01*
X116734743Y-101479425D01*
X116757433Y-101534203D01*
X116769000Y-101592353D01*
X116769000Y-101651647D01*
X116757433Y-101709797D01*
X116734743Y-101764575D01*
X116734742Y-101764577D01*
X116701802Y-101813876D01*
X116659876Y-101855802D01*
X116610577Y-101888742D01*
X116610576Y-101888743D01*
X116610575Y-101888743D01*
X116567668Y-101906516D01*
X116546057Y-101918067D01*
X116527115Y-101933613D01*
X116511570Y-101952555D01*
X116500019Y-101974165D01*
X116492906Y-101997614D01*
X116490504Y-102022000D01*
X116492906Y-102046387D01*
X116500019Y-102069835D01*
X116511570Y-102091446D01*
X116527116Y-102110388D01*
X116546058Y-102125933D01*
X116567668Y-102137484D01*
X116610575Y-102155257D01*
X116610577Y-102155258D01*
X116659876Y-102188198D01*
X116701802Y-102230124D01*
X116734742Y-102279423D01*
X116734743Y-102279425D01*
X116757433Y-102334203D01*
X116769000Y-102392353D01*
X116769000Y-102451647D01*
X116757433Y-102509797D01*
X116734743Y-102564575D01*
X116734742Y-102564577D01*
X116701802Y-102613876D01*
X116659876Y-102655802D01*
X116610577Y-102688742D01*
X116610576Y-102688743D01*
X116610575Y-102688743D01*
X116567668Y-102706516D01*
X116546057Y-102718067D01*
X116527115Y-102733613D01*
X116511570Y-102752555D01*
X116500019Y-102774165D01*
X116492906Y-102797614D01*
X116490504Y-102822000D01*
X116492906Y-102846387D01*
X116500019Y-102869835D01*
X116511570Y-102891446D01*
X116527116Y-102910388D01*
X116546058Y-102925933D01*
X116567668Y-102937484D01*
X116610575Y-102955257D01*
X116610577Y-102955258D01*
X116659876Y-102988198D01*
X116701802Y-103030124D01*
X116734742Y-103079423D01*
X116734743Y-103079425D01*
X116757433Y-103134203D01*
X116769000Y-103192353D01*
X116769000Y-103251647D01*
X116757433Y-103309797D01*
X116734743Y-103364575D01*
X116734742Y-103364577D01*
X116701802Y-103413876D01*
X116659876Y-103455802D01*
X116610577Y-103488742D01*
X116610576Y-103488743D01*
X116610575Y-103488743D01*
X116567668Y-103506516D01*
X116546057Y-103518067D01*
X116527115Y-103533613D01*
X116511570Y-103552555D01*
X116500019Y-103574165D01*
X116492906Y-103597614D01*
X116490504Y-103622000D01*
X116492906Y-103646387D01*
X116500019Y-103669835D01*
X116511570Y-103691446D01*
X116527116Y-103710388D01*
X116546058Y-103725933D01*
X116567668Y-103737484D01*
X116610575Y-103755257D01*
X116610577Y-103755258D01*
X116659876Y-103788198D01*
X116701802Y-103830124D01*
X116734742Y-103879423D01*
X116734743Y-103879425D01*
X116757433Y-103934203D01*
X116769000Y-103992353D01*
X116769000Y-104051647D01*
X116757433Y-104109797D01*
X116734743Y-104164575D01*
X116734742Y-104164577D01*
X116701802Y-104213876D01*
X116659876Y-104255802D01*
X116610577Y-104288742D01*
X116610576Y-104288743D01*
X116610575Y-104288743D01*
X116555797Y-104311433D01*
X116497647Y-104323000D01*
X116438353Y-104323000D01*
X116380203Y-104311433D01*
X116325425Y-104288743D01*
X116325424Y-104288743D01*
X116325423Y-104288742D01*
X116276124Y-104255802D01*
X116234198Y-104213876D01*
X116201258Y-104164577D01*
X116201257Y-104164575D01*
X116178567Y-104109797D01*
X116167000Y-104051647D01*
X116167000Y-103992353D01*
X116178567Y-103934203D01*
X116201257Y-103879425D01*
X116201258Y-103879423D01*
X116234198Y-103830124D01*
X116276124Y-103788198D01*
X116325423Y-103755258D01*
X116325425Y-103755257D01*
X116368332Y-103737484D01*
X116389943Y-103725933D01*
X116408885Y-103710387D01*
X116424430Y-103691445D01*
X116435981Y-103669835D01*
X116443094Y-103646386D01*
X116445496Y-103622000D01*
X116443094Y-103597613D01*
X116435981Y-103574165D01*
X116424430Y-103552554D01*
X116408884Y-103533612D01*
X116389942Y-103518067D01*
X116368332Y-103506516D01*
X116325425Y-103488743D01*
X116325424Y-103488743D01*
X116325423Y-103488742D01*
X116276124Y-103455802D01*
X116234198Y-103413876D01*
X116201258Y-103364577D01*
X116201257Y-103364575D01*
X116178567Y-103309797D01*
X116167000Y-103251647D01*
X116167000Y-103192353D01*
X116178567Y-103134203D01*
X116201257Y-103079425D01*
X116201258Y-103079423D01*
X116234198Y-103030124D01*
X116276124Y-102988198D01*
X116325423Y-102955258D01*
X116325425Y-102955257D01*
X116368332Y-102937484D01*
X116389943Y-102925933D01*
X116408885Y-102910387D01*
X116424430Y-102891445D01*
X116435981Y-102869835D01*
X116443094Y-102846386D01*
X116445496Y-102822000D01*
X116443094Y-102797613D01*
X116435981Y-102774165D01*
X116424430Y-102752554D01*
X116408884Y-102733612D01*
X116389942Y-102718067D01*
X116368332Y-102706516D01*
X116325425Y-102688743D01*
X116325424Y-102688743D01*
X116325423Y-102688742D01*
X116276124Y-102655802D01*
X116234198Y-102613876D01*
X116201258Y-102564577D01*
X116201257Y-102564575D01*
X116178567Y-102509797D01*
X116167000Y-102451647D01*
X116167000Y-102392353D01*
X116178567Y-102334203D01*
X116201257Y-102279425D01*
X116201258Y-102279423D01*
X116234198Y-102230124D01*
X116276124Y-102188198D01*
X116325423Y-102155258D01*
X116325425Y-102155257D01*
X116368332Y-102137484D01*
X116389943Y-102125933D01*
X116408885Y-102110387D01*
X116424430Y-102091445D01*
X116435981Y-102069835D01*
X116443094Y-102046386D01*
X116445496Y-102022000D01*
X116443094Y-101997613D01*
X116435981Y-101974165D01*
X116424430Y-101952554D01*
X116408884Y-101933612D01*
X116389942Y-101918067D01*
X116368332Y-101906516D01*
X116325425Y-101888743D01*
X116325424Y-101888743D01*
X116325423Y-101888742D01*
X116276124Y-101855802D01*
X116234198Y-101813876D01*
X116201258Y-101764577D01*
X116201257Y-101764575D01*
X116178567Y-101709797D01*
X116167000Y-101651647D01*
X116167000Y-101592353D01*
X116178567Y-101534203D01*
X116201257Y-101479425D01*
X116201258Y-101479423D01*
X116234198Y-101430124D01*
X116276124Y-101388198D01*
X116325423Y-101355258D01*
X116325425Y-101355257D01*
X116380203Y-101332567D01*
X116438353Y-101321000D01*
X116497647Y-101321000D01*
X116555797Y-101332567D01*
G37*
G36*
X118587797Y-101332567D02*
G01*
X118642575Y-101355257D01*
X118642577Y-101355258D01*
X118691876Y-101388198D01*
X118733802Y-101430124D01*
X118766742Y-101479423D01*
X118766743Y-101479425D01*
X118789433Y-101534203D01*
X118801000Y-101592353D01*
X118801000Y-101651647D01*
X118789433Y-101709797D01*
X118766743Y-101764575D01*
X118766742Y-101764577D01*
X118733802Y-101813876D01*
X118691876Y-101855802D01*
X118642577Y-101888742D01*
X118642576Y-101888743D01*
X118642575Y-101888743D01*
X118599668Y-101906516D01*
X118578057Y-101918067D01*
X118559115Y-101933613D01*
X118543570Y-101952555D01*
X118532019Y-101974165D01*
X118524906Y-101997614D01*
X118522504Y-102022000D01*
X118524906Y-102046387D01*
X118532019Y-102069835D01*
X118543570Y-102091446D01*
X118559116Y-102110388D01*
X118578058Y-102125933D01*
X118599668Y-102137484D01*
X118642575Y-102155257D01*
X118642577Y-102155258D01*
X118691876Y-102188198D01*
X118733802Y-102230124D01*
X118766742Y-102279423D01*
X118766743Y-102279425D01*
X118789433Y-102334203D01*
X118801000Y-102392353D01*
X118801000Y-102451647D01*
X118789433Y-102509797D01*
X118766743Y-102564575D01*
X118766742Y-102564577D01*
X118733802Y-102613876D01*
X118691876Y-102655802D01*
X118642577Y-102688742D01*
X118642576Y-102688743D01*
X118642575Y-102688743D01*
X118599668Y-102706516D01*
X118578057Y-102718067D01*
X118559115Y-102733613D01*
X118543570Y-102752555D01*
X118532019Y-102774165D01*
X118524906Y-102797614D01*
X118522504Y-102822000D01*
X118524906Y-102846387D01*
X118532019Y-102869835D01*
X118543570Y-102891446D01*
X118559116Y-102910388D01*
X118578058Y-102925933D01*
X118599668Y-102937484D01*
X118642575Y-102955257D01*
X118642577Y-102955258D01*
X118691876Y-102988198D01*
X118733802Y-103030124D01*
X118766742Y-103079423D01*
X118766743Y-103079425D01*
X118789433Y-103134203D01*
X118801000Y-103192353D01*
X118801000Y-103251647D01*
X118789433Y-103309797D01*
X118766743Y-103364575D01*
X118766742Y-103364577D01*
X118733802Y-103413876D01*
X118691876Y-103455802D01*
X118642577Y-103488742D01*
X118642576Y-103488743D01*
X118642575Y-103488743D01*
X118599668Y-103506516D01*
X118578057Y-103518067D01*
X118559115Y-103533613D01*
X118543570Y-103552555D01*
X118532019Y-103574165D01*
X118524906Y-103597614D01*
X118522504Y-103622000D01*
X118524906Y-103646387D01*
X118532019Y-103669835D01*
X118543570Y-103691446D01*
X118559116Y-103710388D01*
X118578058Y-103725933D01*
X118599668Y-103737484D01*
X118642575Y-103755257D01*
X118642577Y-103755258D01*
X118691876Y-103788198D01*
X118733802Y-103830124D01*
X118766742Y-103879423D01*
X118766743Y-103879425D01*
X118789433Y-103934203D01*
X118801000Y-103992353D01*
X118801000Y-104051647D01*
X118789433Y-104109797D01*
X118766743Y-104164575D01*
X118766742Y-104164577D01*
X118733802Y-104213876D01*
X118691876Y-104255802D01*
X118642577Y-104288742D01*
X118642576Y-104288743D01*
X118642575Y-104288743D01*
X118587797Y-104311433D01*
X118529647Y-104323000D01*
X118470353Y-104323000D01*
X118412203Y-104311433D01*
X118357425Y-104288743D01*
X118357424Y-104288743D01*
X118357423Y-104288742D01*
X118308124Y-104255802D01*
X118266198Y-104213876D01*
X118233258Y-104164577D01*
X118233257Y-104164575D01*
X118210567Y-104109797D01*
X118199000Y-104051647D01*
X118199000Y-103992353D01*
X118210567Y-103934203D01*
X118233257Y-103879425D01*
X118233258Y-103879423D01*
X118266198Y-103830124D01*
X118308124Y-103788198D01*
X118357423Y-103755258D01*
X118357425Y-103755257D01*
X118400332Y-103737484D01*
X118421943Y-103725933D01*
X118440885Y-103710387D01*
X118456430Y-103691445D01*
X118467981Y-103669835D01*
X118475094Y-103646386D01*
X118477496Y-103622000D01*
X118475094Y-103597613D01*
X118467981Y-103574165D01*
X118456430Y-103552554D01*
X118440884Y-103533612D01*
X118421942Y-103518067D01*
X118400332Y-103506516D01*
X118357425Y-103488743D01*
X118357424Y-103488743D01*
X118357423Y-103488742D01*
X118308124Y-103455802D01*
X118266198Y-103413876D01*
X118233258Y-103364577D01*
X118233257Y-103364575D01*
X118210567Y-103309797D01*
X118199000Y-103251647D01*
X118199000Y-103192353D01*
X118210567Y-103134203D01*
X118233257Y-103079425D01*
X118233258Y-103079423D01*
X118266198Y-103030124D01*
X118308124Y-102988198D01*
X118357423Y-102955258D01*
X118357425Y-102955257D01*
X118400332Y-102937484D01*
X118421943Y-102925933D01*
X118440885Y-102910387D01*
X118456430Y-102891445D01*
X118467981Y-102869835D01*
X118475094Y-102846386D01*
X118477496Y-102822000D01*
X118475094Y-102797613D01*
X118467981Y-102774165D01*
X118456430Y-102752554D01*
X118440884Y-102733612D01*
X118421942Y-102718067D01*
X118400332Y-102706516D01*
X118357425Y-102688743D01*
X118357424Y-102688743D01*
X118357423Y-102688742D01*
X118308124Y-102655802D01*
X118266198Y-102613876D01*
X118233258Y-102564577D01*
X118233257Y-102564575D01*
X118210567Y-102509797D01*
X118199000Y-102451647D01*
X118199000Y-102392353D01*
X118210567Y-102334203D01*
X118233257Y-102279425D01*
X118233258Y-102279423D01*
X118266198Y-102230124D01*
X118308124Y-102188198D01*
X118357423Y-102155258D01*
X118357425Y-102155257D01*
X118400332Y-102137484D01*
X118421943Y-102125933D01*
X118440885Y-102110387D01*
X118456430Y-102091445D01*
X118467981Y-102069835D01*
X118475094Y-102046386D01*
X118477496Y-102022000D01*
X118475094Y-101997613D01*
X118467981Y-101974165D01*
X118456430Y-101952554D01*
X118440884Y-101933612D01*
X118421942Y-101918067D01*
X118400332Y-101906516D01*
X118357425Y-101888743D01*
X118357424Y-101888743D01*
X118357423Y-101888742D01*
X118308124Y-101855802D01*
X118266198Y-101813876D01*
X118233258Y-101764577D01*
X118233257Y-101764575D01*
X118210567Y-101709797D01*
X118199000Y-101651647D01*
X118199000Y-101592353D01*
X118210567Y-101534203D01*
X118233257Y-101479425D01*
X118233258Y-101479423D01*
X118266198Y-101430124D01*
X118308124Y-101388198D01*
X118357423Y-101355258D01*
X118357425Y-101355257D01*
X118412203Y-101332567D01*
X118470353Y-101321000D01*
X118529647Y-101321000D01*
X118587797Y-101332567D01*
G37*
G36*
X122573020Y-95449969D02*
G01*
X122672804Y-95491301D01*
X122743362Y-95520527D01*
X122896665Y-95622961D01*
X123027039Y-95753335D01*
X123129473Y-95906638D01*
X123129473Y-95906639D01*
X123200031Y-96076980D01*
X123236000Y-96257811D01*
X123236000Y-96442189D01*
X123200031Y-96623020D01*
X123158699Y-96722804D01*
X123129473Y-96793362D01*
X123027039Y-96946665D01*
X122896665Y-97077039D01*
X122743362Y-97179473D01*
X122672804Y-97208699D01*
X122573020Y-97250031D01*
X122392189Y-97286000D01*
X122207811Y-97286000D01*
X122026980Y-97250031D01*
X121927196Y-97208699D01*
X121856638Y-97179473D01*
X121703335Y-97077039D01*
X121572961Y-96946665D01*
X121470527Y-96793362D01*
X121441301Y-96722804D01*
X121399969Y-96623020D01*
X121364000Y-96442189D01*
X121364000Y-96257811D01*
X121399969Y-96076980D01*
X121470527Y-95906639D01*
X121470527Y-95906638D01*
X121572961Y-95753335D01*
X121703335Y-95622961D01*
X121856638Y-95520527D01*
X121927196Y-95491301D01*
X122026980Y-95449969D01*
X122207811Y-95414000D01*
X122392189Y-95414000D01*
X122573020Y-95449969D01*
G37*
G36*
X122592020Y-92699969D02*
G01*
X122691804Y-92741301D01*
X122762362Y-92770527D01*
X122915665Y-92872961D01*
X123046039Y-93003335D01*
X123148473Y-93156638D01*
X123148473Y-93156639D01*
X123219031Y-93326980D01*
X123255000Y-93507811D01*
X123255000Y-93692189D01*
X123219031Y-93873020D01*
X123177699Y-93972804D01*
X123148473Y-94043362D01*
X123046039Y-94196665D01*
X122915665Y-94327039D01*
X122762362Y-94429473D01*
X122691804Y-94458699D01*
X122592020Y-94500031D01*
X122411189Y-94536000D01*
X122226811Y-94536000D01*
X122045980Y-94500031D01*
X121946196Y-94458699D01*
X121875638Y-94429473D01*
X121722335Y-94327039D01*
X121591961Y-94196665D01*
X121489527Y-94043362D01*
X121460301Y-93972804D01*
X121418969Y-93873020D01*
X121383000Y-93692189D01*
X121383000Y-93507811D01*
X121418969Y-93326980D01*
X121489527Y-93156639D01*
X121489527Y-93156638D01*
X121591961Y-93003335D01*
X121722335Y-92872961D01*
X121875638Y-92770527D01*
X121946196Y-92741301D01*
X122045980Y-92699969D01*
X122226811Y-92664000D01*
X122411189Y-92664000D01*
X122592020Y-92699969D01*
G37*
G36*
X122592020Y-89949969D02*
G01*
X122691804Y-89991301D01*
X122762362Y-90020527D01*
X122915665Y-90122961D01*
X123046039Y-90253335D01*
X123148473Y-90406638D01*
X123148473Y-90406639D01*
X123219031Y-90576980D01*
X123255000Y-90757811D01*
X123255000Y-90942189D01*
X123219031Y-91123020D01*
X123177699Y-91222804D01*
X123148473Y-91293362D01*
X123046039Y-91446665D01*
X122915665Y-91577039D01*
X122762362Y-91679473D01*
X122691804Y-91708699D01*
X122592020Y-91750031D01*
X122411189Y-91786000D01*
X122226811Y-91786000D01*
X122045980Y-91750031D01*
X121946196Y-91708699D01*
X121875638Y-91679473D01*
X121722335Y-91577039D01*
X121591961Y-91446665D01*
X121489527Y-91293362D01*
X121460301Y-91222804D01*
X121418969Y-91123020D01*
X121383000Y-90942189D01*
X121383000Y-90757811D01*
X121418969Y-90576980D01*
X121489527Y-90406639D01*
X121489527Y-90406638D01*
X121591961Y-90253335D01*
X121722335Y-90122961D01*
X121875638Y-90020527D01*
X121946196Y-89991301D01*
X122045980Y-89949969D01*
X122226811Y-89914000D01*
X122411189Y-89914000D01*
X122592020Y-89949969D01*
G37*
G36*
X122592020Y-87199969D02*
G01*
X122691804Y-87241301D01*
X122762362Y-87270527D01*
X122915665Y-87372961D01*
X123046039Y-87503335D01*
X123148473Y-87656638D01*
X123148473Y-87656639D01*
X123219031Y-87826980D01*
X123255000Y-88007811D01*
X123255000Y-88192189D01*
X123219031Y-88373020D01*
X123177699Y-88472804D01*
X123148473Y-88543362D01*
X123046039Y-88696665D01*
X122915665Y-88827039D01*
X122762362Y-88929473D01*
X122691804Y-88958699D01*
X122592020Y-89000031D01*
X122411189Y-89036000D01*
X122226811Y-89036000D01*
X122045980Y-89000031D01*
X121946196Y-88958699D01*
X121875638Y-88929473D01*
X121722335Y-88827039D01*
X121591961Y-88696665D01*
X121489527Y-88543362D01*
X121460301Y-88472804D01*
X121418969Y-88373020D01*
X121383000Y-88192189D01*
X121383000Y-88007811D01*
X121418969Y-87826980D01*
X121489527Y-87656639D01*
X121489527Y-87656638D01*
X121591961Y-87503335D01*
X121722335Y-87372961D01*
X121875638Y-87270527D01*
X121946196Y-87241301D01*
X122045980Y-87199969D01*
X122226811Y-87164000D01*
X122411189Y-87164000D01*
X122592020Y-87199969D01*
G37*
G36*
X122592020Y-84449969D02*
G01*
X122691804Y-84491301D01*
X122762362Y-84520527D01*
X122915665Y-84622961D01*
X123046039Y-84753335D01*
X123148473Y-84906638D01*
X123148473Y-84906639D01*
X123219031Y-85076980D01*
X123255000Y-85257811D01*
X123255000Y-85442189D01*
X123219031Y-85623020D01*
X123177699Y-85722804D01*
X123148473Y-85793362D01*
X123046039Y-85946665D01*
X122915665Y-86077039D01*
X122762362Y-86179473D01*
X122691804Y-86208699D01*
X122592020Y-86250031D01*
X122411189Y-86286000D01*
X122226811Y-86286000D01*
X122045980Y-86250031D01*
X121946196Y-86208699D01*
X121875638Y-86179473D01*
X121722335Y-86077039D01*
X121591961Y-85946665D01*
X121489527Y-85793362D01*
X121460301Y-85722804D01*
X121418969Y-85623020D01*
X121383000Y-85442189D01*
X121383000Y-85257811D01*
X121418969Y-85076980D01*
X121489527Y-84906639D01*
X121489527Y-84906638D01*
X121591961Y-84753335D01*
X121722335Y-84622961D01*
X121875638Y-84520527D01*
X121946196Y-84491301D01*
X122045980Y-84449969D01*
X122226811Y-84414000D01*
X122411189Y-84414000D01*
X122592020Y-84449969D01*
G37*
G36*
X122592020Y-81810969D02*
G01*
X122691804Y-81852301D01*
X122762362Y-81881527D01*
X122915665Y-81983961D01*
X123046039Y-82114335D01*
X123148473Y-82267638D01*
X123148473Y-82267639D01*
X123219031Y-82437980D01*
X123255000Y-82618811D01*
X123255000Y-82803189D01*
X123219031Y-82984020D01*
X123177699Y-83083804D01*
X123148473Y-83154362D01*
X123046039Y-83307665D01*
X122915665Y-83438039D01*
X122762362Y-83540473D01*
X122691804Y-83569699D01*
X122592020Y-83611031D01*
X122411189Y-83647000D01*
X122226811Y-83647000D01*
X122045980Y-83611031D01*
X121946196Y-83569699D01*
X121875638Y-83540473D01*
X121722335Y-83438039D01*
X121591961Y-83307665D01*
X121489527Y-83154362D01*
X121460301Y-83083804D01*
X121418969Y-82984020D01*
X121383000Y-82803189D01*
X121383000Y-82618811D01*
X121418969Y-82437980D01*
X121489527Y-82267639D01*
X121489527Y-82267638D01*
X121591961Y-82114335D01*
X121722335Y-81983961D01*
X121875638Y-81881527D01*
X121946196Y-81852301D01*
X122045980Y-81810969D01*
X122226811Y-81775000D01*
X122411189Y-81775000D01*
X122592020Y-81810969D01*
G37*
G36*
X154318388Y-69996919D02*
G01*
X154780320Y-70137045D01*
X155206032Y-70364592D01*
X155579177Y-70670823D01*
X155885408Y-71043968D01*
X156112955Y-71469680D01*
X156253081Y-71931612D01*
X156301000Y-72418140D01*
X156301000Y-77581860D01*
X156253081Y-78068388D01*
X156112955Y-78530320D01*
X155885408Y-78956032D01*
X155579177Y-79329177D01*
X155206032Y-79635408D01*
X154780320Y-79862955D01*
X154318388Y-80003081D01*
X153831860Y-80051000D01*
X148668140Y-80051000D01*
X148181612Y-80003081D01*
X147719680Y-79862955D01*
X147293968Y-79635408D01*
X146920823Y-79329177D01*
X146614592Y-78956032D01*
X146387045Y-78530320D01*
X146246919Y-78068388D01*
X146199000Y-77581860D01*
X146199000Y-72418140D01*
X146246919Y-71931612D01*
X146387045Y-71469680D01*
X146614592Y-71043968D01*
X146920823Y-70670823D01*
X147293968Y-70364592D01*
X147719680Y-70137045D01*
X148181612Y-69996919D01*
X148668140Y-69949000D01*
X153831860Y-69949000D01*
X154318388Y-69996919D01*
G37*
G36*
X129318388Y-69996919D02*
G01*
X129780320Y-70137045D01*
X130206032Y-70364592D01*
X130579177Y-70670823D01*
X130885408Y-71043968D01*
X131112955Y-71469680D01*
X131253081Y-71931612D01*
X131301000Y-72418140D01*
X131301000Y-77581860D01*
X131253081Y-78068388D01*
X131112955Y-78530320D01*
X130885408Y-78956032D01*
X130579177Y-79329177D01*
X130206032Y-79635408D01*
X129780320Y-79862955D01*
X129318388Y-80003081D01*
X128831860Y-80051000D01*
X123668140Y-80051000D01*
X123181612Y-80003081D01*
X122719680Y-79862955D01*
X122293968Y-79635408D01*
X121920823Y-79329177D01*
X121614592Y-78956032D01*
X121387045Y-78530320D01*
X121246919Y-78068388D01*
X121199000Y-77581860D01*
X121199000Y-72418140D01*
X121246919Y-71931612D01*
X121387045Y-71469680D01*
X121614592Y-71043968D01*
X121920823Y-70670823D01*
X122293968Y-70364592D01*
X122719680Y-70137045D01*
X123181612Y-69996919D01*
X123668140Y-69949000D01*
X128831860Y-69949000D01*
X129318388Y-69996919D01*
G37*
G36*
X166818388Y-69996919D02*
G01*
X167280320Y-70137045D01*
X167706032Y-70364592D01*
X168079177Y-70670823D01*
X168385408Y-71043968D01*
X168612955Y-71469680D01*
X168753081Y-71931612D01*
X168801000Y-72418140D01*
X168801000Y-77581860D01*
X168753081Y-78068388D01*
X168612955Y-78530320D01*
X168385408Y-78956032D01*
X168079177Y-79329177D01*
X167706032Y-79635408D01*
X167280320Y-79862955D01*
X166818388Y-80003081D01*
X166331860Y-80051000D01*
X161168140Y-80051000D01*
X160681612Y-80003081D01*
X160219680Y-79862955D01*
X159793968Y-79635408D01*
X159420823Y-79329177D01*
X159114592Y-78956032D01*
X158887045Y-78530320D01*
X158746919Y-78068388D01*
X158699000Y-77581860D01*
X158699000Y-72418140D01*
X158746919Y-71931612D01*
X158887045Y-71469680D01*
X159114592Y-71043968D01*
X159420823Y-70670823D01*
X159793968Y-70364592D01*
X160219680Y-70137045D01*
X160681612Y-69996919D01*
X161168140Y-69949000D01*
X166331860Y-69949000D01*
X166818388Y-69996919D01*
G37*
G36*
X143773020Y-75999969D02*
G01*
X143872804Y-76041301D01*
X143943362Y-76070527D01*
X144096665Y-76172961D01*
X144227039Y-76303335D01*
X144329473Y-76456638D01*
X144329473Y-76456639D01*
X144400031Y-76626980D01*
X144436000Y-76807811D01*
X144436000Y-76992189D01*
X144400031Y-77173020D01*
X144358699Y-77272804D01*
X144329473Y-77343362D01*
X144227039Y-77496665D01*
X144096665Y-77627039D01*
X143943362Y-77729473D01*
X143872804Y-77758699D01*
X143773020Y-77800031D01*
X143592189Y-77836000D01*
X143407811Y-77836000D01*
X143226980Y-77800031D01*
X143127196Y-77758699D01*
X143056638Y-77729473D01*
X142903335Y-77627039D01*
X142772961Y-77496665D01*
X142670527Y-77343362D01*
X142641301Y-77272804D01*
X142599969Y-77173020D01*
X142564000Y-76992189D01*
X142564000Y-76807811D01*
X142599969Y-76626980D01*
X142670527Y-76456639D01*
X142670527Y-76456638D01*
X142772961Y-76303335D01*
X142903335Y-76172961D01*
X143056638Y-76070527D01*
X143127196Y-76041301D01*
X143226980Y-75999969D01*
X143407811Y-75964000D01*
X143592189Y-75964000D01*
X143773020Y-75999969D01*
G37*
G36*
X143773020Y-72199969D02*
G01*
X143872804Y-72241301D01*
X143943362Y-72270527D01*
X144096665Y-72372961D01*
X144227039Y-72503335D01*
X144329473Y-72656638D01*
X144329473Y-72656639D01*
X144400031Y-72826980D01*
X144436000Y-73007811D01*
X144436000Y-73192189D01*
X144400031Y-73373020D01*
X144358699Y-73472804D01*
X144329473Y-73543362D01*
X144227039Y-73696665D01*
X144096665Y-73827039D01*
X143943362Y-73929473D01*
X143872804Y-73958699D01*
X143773020Y-74000031D01*
X143592189Y-74036000D01*
X143407811Y-74036000D01*
X143226980Y-74000031D01*
X143127196Y-73958699D01*
X143056638Y-73929473D01*
X142903335Y-73827039D01*
X142772961Y-73696665D01*
X142670527Y-73543362D01*
X142641301Y-73472804D01*
X142599969Y-73373020D01*
X142564000Y-73192189D01*
X142564000Y-73007811D01*
X142599969Y-72826980D01*
X142670527Y-72656639D01*
X142670527Y-72656638D01*
X142772961Y-72503335D01*
X142903335Y-72372961D01*
X143056638Y-72270527D01*
X143127196Y-72241301D01*
X143226980Y-72199969D01*
X143407811Y-72164000D01*
X143592189Y-72164000D01*
X143773020Y-72199969D01*
G37*
G36*
X129318388Y-56996919D02*
G01*
X129780320Y-57137045D01*
X130206032Y-57364592D01*
X130579177Y-57670823D01*
X130885408Y-58043968D01*
X131112955Y-58469680D01*
X131253081Y-58931612D01*
X131301000Y-59418140D01*
X131301000Y-64581860D01*
X131253081Y-65068388D01*
X131112955Y-65530320D01*
X130885408Y-65956032D01*
X130579177Y-66329177D01*
X130206032Y-66635408D01*
X129780320Y-66862955D01*
X129318388Y-67003081D01*
X128831860Y-67051000D01*
X123668140Y-67051000D01*
X123181612Y-67003081D01*
X122719680Y-66862955D01*
X122293968Y-66635408D01*
X121920823Y-66329177D01*
X121614592Y-65956032D01*
X121387045Y-65530320D01*
X121246919Y-65068388D01*
X121199000Y-64581860D01*
X121199000Y-59418140D01*
X121246919Y-58931612D01*
X121387045Y-58469680D01*
X121614592Y-58043968D01*
X121920823Y-57670823D01*
X122293968Y-57364592D01*
X122719680Y-57137045D01*
X123181612Y-56996919D01*
X123668140Y-56949000D01*
X128831860Y-56949000D01*
X129318388Y-56996919D01*
G37*
G36*
X154318388Y-56996919D02*
G01*
X154780320Y-57137045D01*
X155206032Y-57364592D01*
X155579177Y-57670823D01*
X155885408Y-58043968D01*
X156112955Y-58469680D01*
X156253081Y-58931612D01*
X156301000Y-59418140D01*
X156301000Y-64581860D01*
X156253081Y-65068388D01*
X156112955Y-65530320D01*
X155885408Y-65956032D01*
X155579177Y-66329177D01*
X155206032Y-66635408D01*
X154780320Y-66862955D01*
X154318388Y-67003081D01*
X153831860Y-67051000D01*
X148668140Y-67051000D01*
X148181612Y-67003081D01*
X147719680Y-66862955D01*
X147293968Y-66635408D01*
X146920823Y-66329177D01*
X146614592Y-65956032D01*
X146387045Y-65530320D01*
X146246919Y-65068388D01*
X146199000Y-64581860D01*
X146199000Y-59418140D01*
X146246919Y-58931612D01*
X146387045Y-58469680D01*
X146614592Y-58043968D01*
X146920823Y-57670823D01*
X147293968Y-57364592D01*
X147719680Y-57137045D01*
X148181612Y-56996919D01*
X148668140Y-56949000D01*
X153831860Y-56949000D01*
X154318388Y-56996919D01*
G37*
G36*
X141818388Y-56996919D02*
G01*
X142280320Y-57137045D01*
X142706032Y-57364592D01*
X143079177Y-57670823D01*
X143385408Y-58043968D01*
X143612955Y-58469680D01*
X143753081Y-58931612D01*
X143801000Y-59418140D01*
X143801000Y-64581860D01*
X143753081Y-65068388D01*
X143612955Y-65530320D01*
X143385408Y-65956032D01*
X143079177Y-66329177D01*
X142706032Y-66635408D01*
X142280320Y-66862955D01*
X141818388Y-67003081D01*
X141331860Y-67051000D01*
X136168140Y-67051000D01*
X135681612Y-67003081D01*
X135219680Y-66862955D01*
X134793968Y-66635408D01*
X134420823Y-66329177D01*
X134114592Y-65956032D01*
X133887045Y-65530320D01*
X133746919Y-65068388D01*
X133699000Y-64581860D01*
X133699000Y-59418140D01*
X133746919Y-58931612D01*
X133887045Y-58469680D01*
X134114592Y-58043968D01*
X134420823Y-57670823D01*
X134793968Y-57364592D01*
X135219680Y-57137045D01*
X135681612Y-56996919D01*
X136168140Y-56949000D01*
X141331860Y-56949000D01*
X141818388Y-56996919D01*
G37*
G36*
X166818388Y-56996919D02*
G01*
X167280320Y-57137045D01*
X167706032Y-57364592D01*
X168079177Y-57670823D01*
X168385408Y-58043968D01*
X168612955Y-58469680D01*
X168753081Y-58931612D01*
X168801000Y-59418140D01*
X168801000Y-64581860D01*
X168753081Y-65068388D01*
X168612955Y-65530320D01*
X168385408Y-65956032D01*
X168079177Y-66329177D01*
X167706032Y-66635408D01*
X167280320Y-66862955D01*
X166818388Y-67003081D01*
X166331860Y-67051000D01*
X161168140Y-67051000D01*
X160681612Y-67003081D01*
X160219680Y-66862955D01*
X159793968Y-66635408D01*
X159420823Y-66329177D01*
X159114592Y-65956032D01*
X158887045Y-65530320D01*
X158746919Y-65068388D01*
X158699000Y-64581860D01*
X158699000Y-59418140D01*
X158746919Y-58931612D01*
X158887045Y-58469680D01*
X159114592Y-58043968D01*
X159420823Y-57670823D01*
X159793968Y-57364592D01*
X160219680Y-57137045D01*
X160681612Y-56996919D01*
X161168140Y-56949000D01*
X166331860Y-56949000D01*
X166818388Y-56996919D01*
G37*
M02*
