M48
; DRILL file {KiCad (5.1.5-0-10_14)} date 2020 November 25, Wednesday 20:39:03
; FORMAT={-:-/ absolute / metric / decimal}
; #@! TF.CreationDate,2020-11-25T20:39:03+01:00
; #@! TF.GenerationSoftware,Kicad,Pcbnew,(5.1.5-0-10_14)
; #@! TF.FileFunction,NonPlated,1,4,NPTH
FMAT,2
METRIC
T1C0.500
T2C0.750
T3C0.800
T4C1.770
%
G90
G05
T1
X118.5Y-101.622
X118.5Y-102.422
X118.5Y-103.222
X118.5Y-104.022
X116.468Y-121.688
X116.468Y-122.488
X116.468Y-123.288
X116.468Y-124.088
X116.468Y-101.622
X116.468Y-102.422
X116.468Y-103.222
X116.468Y-104.022
X118.5Y-121.688
X118.5Y-122.488
X118.5Y-123.288
X118.5Y-124.088
T2
X83.321Y-126.339
X83.321Y-129.089
X112.875Y-114.25
X115.625Y-114.25
T3
X102.0Y-124.882
X107.0Y-124.882
T4
X122.3Y-109.045
X122.3Y-96.35
X122.319Y-93.6
X122.319Y-90.85
X122.319Y-88.1
X122.319Y-85.35
X122.319Y-82.711
X143.5Y-76.9
X143.5Y-73.1
X126.25Y-75.0
X151.25Y-75.0
X163.75Y-75.0
X163.75Y-62.0
X151.25Y-62.0
X126.25Y-62.0
X138.75Y-62.0
T0
M30
