G04 #@! TF.GenerationSoftware,KiCad,Pcbnew,(5.1.5-0-10_14)*
G04 #@! TF.CreationDate,2020-11-25T20:38:56+01:00*
G04 #@! TF.ProjectId,fl-remote,666c2d72-656d-46f7-9465-2e6b69636164,rev?*
G04 #@! TF.SameCoordinates,Original*
G04 #@! TF.FileFunction,Legend,Top*
G04 #@! TF.FilePolarity,Positive*
%FSLAX46Y46*%
G04 Gerber Fmt 4.6, Leading zero omitted, Abs format (unit mm)*
G04 Created by KiCad (PCBNEW (5.1.5-0-10_14)) date 2020-11-25 20:38:56*
%MOMM*%
%LPD*%
G04 APERTURE LIST*
%ADD10C,0.300000*%
%ADD11C,0.250000*%
%ADD12C,0.120000*%
%ADD13C,0.100000*%
%ADD14C,0.150000*%
G04 APERTURE END LIST*
D10*
X71120285Y-94936571D02*
X71620285Y-96436571D01*
X72120285Y-94936571D01*
X73406000Y-96436571D02*
X72548857Y-96436571D01*
X72977428Y-96436571D02*
X72977428Y-94936571D01*
X72834571Y-95150857D01*
X72691714Y-95293714D01*
X72548857Y-95365142D01*
X74048857Y-96293714D02*
X74120285Y-96365142D01*
X74048857Y-96436571D01*
X73977428Y-96365142D01*
X74048857Y-96293714D01*
X74048857Y-96436571D01*
X75048857Y-94936571D02*
X75191714Y-94936571D01*
X75334571Y-95008000D01*
X75406000Y-95079428D01*
X75477428Y-95222285D01*
X75548857Y-95508000D01*
X75548857Y-95865142D01*
X75477428Y-96150857D01*
X75406000Y-96293714D01*
X75334571Y-96365142D01*
X75191714Y-96436571D01*
X75048857Y-96436571D01*
X74906000Y-96365142D01*
X74834571Y-96293714D01*
X74763142Y-96150857D01*
X74691714Y-95865142D01*
X74691714Y-95508000D01*
X74763142Y-95222285D01*
X74834571Y-95079428D01*
X74906000Y-95008000D01*
X75048857Y-94936571D01*
D11*
X79472857Y-123548857D02*
X78787142Y-123548857D01*
X79130000Y-123548857D02*
X79130000Y-122348857D01*
X79015714Y-122520285D01*
X78901428Y-122634571D01*
X78787142Y-122691714D01*
X78787142Y-124513142D02*
X78844285Y-124456000D01*
X78958571Y-124398857D01*
X79244285Y-124398857D01*
X79358571Y-124456000D01*
X79415714Y-124513142D01*
X79472857Y-124627428D01*
X79472857Y-124741714D01*
X79415714Y-124913142D01*
X78730000Y-125598857D01*
X79472857Y-125598857D01*
D12*
X75113000Y-119255000D02*
X75113000Y-120715000D01*
X71953000Y-119255000D02*
X71953000Y-121415000D01*
X71953000Y-119255000D02*
X72883000Y-119255000D01*
X75113000Y-119255000D02*
X74183000Y-119255000D01*
D13*
X91864500Y-109390000D02*
X92084500Y-109390000D01*
X91864500Y-110110000D02*
X91864500Y-109390000D01*
X94564500Y-109390000D02*
X94564500Y-110110000D01*
X94344500Y-109390000D02*
X94564500Y-109390000D01*
X94564500Y-112590000D02*
X94344500Y-112590000D01*
X94564500Y-112590000D02*
X94564500Y-111870000D01*
X91864500Y-112690000D02*
X91864500Y-111870000D01*
D12*
X93253779Y-113536000D02*
X92928221Y-113536000D01*
X93253779Y-114556000D02*
X92928221Y-114556000D01*
X93982000Y-107604779D02*
X93982000Y-107279221D01*
X92962000Y-107604779D02*
X92962000Y-107279221D01*
X100238779Y-106805000D02*
X99913221Y-106805000D01*
X100238779Y-107825000D02*
X99913221Y-107825000D01*
X99913221Y-106174000D02*
X100238779Y-106174000D01*
X99913221Y-105154000D02*
X100238779Y-105154000D01*
X75817000Y-119979221D02*
X75817000Y-120304779D01*
X76837000Y-119979221D02*
X76837000Y-120304779D01*
X91311000Y-107279221D02*
X91311000Y-107604779D01*
X92331000Y-107279221D02*
X92331000Y-107604779D01*
X96809779Y-112647000D02*
X96484221Y-112647000D01*
X96809779Y-113667000D02*
X96484221Y-113667000D01*
X96484221Y-110365000D02*
X96809779Y-110365000D01*
X96484221Y-109345000D02*
X96809779Y-109345000D01*
X96809779Y-110996000D02*
X96484221Y-110996000D01*
X96809779Y-112016000D02*
X96484221Y-112016000D01*
X97026000Y-106263221D02*
X97026000Y-106588779D01*
X98046000Y-106263221D02*
X98046000Y-106588779D01*
X102660779Y-109805000D02*
X102335221Y-109805000D01*
X102660779Y-110825000D02*
X102335221Y-110825000D01*
X110310500Y-113906779D02*
X110310500Y-113581221D01*
X109290500Y-113906779D02*
X109290500Y-113581221D01*
X101404000Y-115633000D02*
X101404000Y-116108000D01*
X105624000Y-111888000D02*
X105149000Y-111888000D01*
X105624000Y-112363000D02*
X105624000Y-111888000D01*
X105624000Y-116108000D02*
X105149000Y-116108000D01*
X105624000Y-115633000D02*
X105624000Y-116108000D01*
X101404000Y-111888000D02*
X101879000Y-111888000D01*
X101404000Y-112363000D02*
X101404000Y-111888000D01*
X107576000Y-113581221D02*
X107576000Y-113906779D01*
X108596000Y-113581221D02*
X108596000Y-113906779D01*
X93318221Y-101046000D02*
X93643779Y-101046000D01*
X93318221Y-100026000D02*
X93643779Y-100026000D01*
X63675000Y-103049000D02*
X65960000Y-103049000D01*
X63675000Y-101579000D02*
X63675000Y-103049000D01*
X65960000Y-101579000D02*
X63675000Y-101579000D01*
X108874779Y-110488000D02*
X108549221Y-110488000D01*
X108874779Y-111508000D02*
X108549221Y-111508000D01*
X81155000Y-123860779D02*
X81155000Y-123535221D01*
X80135000Y-123860779D02*
X80135000Y-123535221D01*
X87046000Y-123597779D02*
X87046000Y-123272221D01*
X86026000Y-123597779D02*
X86026000Y-123272221D01*
X85346000Y-123606779D02*
X85346000Y-123281221D01*
X84326000Y-123606779D02*
X84326000Y-123281221D01*
X97580779Y-94946000D02*
X97255221Y-94946000D01*
X97580779Y-95966000D02*
X97255221Y-95966000D01*
D14*
X106300000Y-123282000D02*
X107300000Y-123282000D01*
X102700000Y-123282000D02*
X101700000Y-123282000D01*
X102700000Y-122857000D02*
X102700000Y-123282000D01*
X103425000Y-122857000D02*
X102700000Y-122857000D01*
X108650000Y-126432000D02*
X108650000Y-125032000D01*
X108650000Y-128982000D02*
X108650000Y-128832000D01*
X108350000Y-128982000D02*
X108650000Y-128982000D01*
X108350000Y-129432000D02*
X108350000Y-128982000D01*
X100650000Y-128982000D02*
X100650000Y-129432000D01*
X100350000Y-128982000D02*
X100650000Y-128982000D01*
X100350000Y-128832000D02*
X100350000Y-128982000D01*
X100350000Y-125032000D02*
X100350000Y-126432000D01*
D12*
X116100000Y-112825000D02*
X116100000Y-111900000D01*
X113975000Y-116700000D02*
X114525000Y-116700000D01*
X113975000Y-111800000D02*
X114525000Y-111800000D01*
X112400000Y-116600000D02*
X112400000Y-111900000D01*
X116100000Y-116600000D02*
X116100000Y-115675000D01*
X84746000Y-129564000D02*
X85671000Y-129564000D01*
X80871000Y-127439000D02*
X80871000Y-127989000D01*
X85771000Y-127439000D02*
X85771000Y-127989000D01*
X80971000Y-125864000D02*
X85671000Y-125864000D01*
X80971000Y-129564000D02*
X81896000Y-129564000D01*
X108920779Y-106740000D02*
X108595221Y-106740000D01*
X108920779Y-107760000D02*
X108595221Y-107760000D01*
X108920779Y-108740000D02*
X108595221Y-108740000D01*
X108920779Y-109760000D02*
X108595221Y-109760000D01*
X98499500Y-121780779D02*
X98499500Y-121455221D01*
X97479500Y-121780779D02*
X97479500Y-121455221D01*
X96785000Y-121780779D02*
X96785000Y-121455221D01*
X95765000Y-121780779D02*
X95765000Y-121455221D01*
X116235000Y-106515000D02*
X113950000Y-106515000D01*
X116235000Y-107985000D02*
X116235000Y-106515000D01*
X113950000Y-107985000D02*
X116235000Y-107985000D01*
X116235000Y-108515000D02*
X113950000Y-108515000D01*
X116235000Y-109985000D02*
X116235000Y-108515000D01*
X113950000Y-109985000D02*
X116235000Y-109985000D01*
X98724500Y-129100000D02*
X98724500Y-126815000D01*
X97254500Y-129100000D02*
X98724500Y-129100000D01*
X97254500Y-126815000D02*
X97254500Y-129100000D01*
X96985000Y-129100000D02*
X96985000Y-126815000D01*
X95515000Y-129100000D02*
X96985000Y-129100000D01*
X95515000Y-126815000D02*
X95515000Y-129100000D01*
X64460000Y-119430000D02*
X65670000Y-119430000D01*
X65670000Y-126030000D02*
X65670000Y-129240000D01*
X65670000Y-120950000D02*
X65670000Y-124510000D01*
X65670000Y-118760000D02*
X65670000Y-119430000D01*
X65670000Y-129240000D02*
X68330000Y-129240000D01*
X68330000Y-128570000D02*
X68330000Y-129240000D01*
X68330000Y-123490000D02*
X68330000Y-127050000D01*
X68330000Y-118760000D02*
X68330000Y-121970000D01*
X65670000Y-118760000D02*
X68330000Y-118760000D01*
X110460000Y-119430000D02*
X111670000Y-119430000D01*
X111670000Y-126030000D02*
X111670000Y-129240000D01*
X111670000Y-120950000D02*
X111670000Y-124510000D01*
X111670000Y-118760000D02*
X111670000Y-119430000D01*
X111670000Y-129240000D02*
X114330000Y-129240000D01*
X114330000Y-128570000D02*
X114330000Y-129240000D01*
X114330000Y-123490000D02*
X114330000Y-127050000D01*
X114330000Y-118760000D02*
X114330000Y-121970000D01*
X111670000Y-118760000D02*
X114330000Y-118760000D01*
X110460000Y-100970000D02*
X111670000Y-100970000D01*
X111670000Y-102490000D02*
X111670000Y-105700000D01*
X111670000Y-100300000D02*
X111670000Y-100970000D01*
X111670000Y-105700000D02*
X114330000Y-105700000D01*
X114330000Y-105030000D02*
X114330000Y-105700000D01*
X114330000Y-100300000D02*
X114330000Y-103510000D01*
X111670000Y-100300000D02*
X114330000Y-100300000D01*
X64460000Y-95970000D02*
X65670000Y-95970000D01*
X65670000Y-97490000D02*
X65670000Y-100700000D01*
X65670000Y-95300000D02*
X65670000Y-95970000D01*
X65670000Y-100700000D02*
X68330000Y-100700000D01*
X68330000Y-100030000D02*
X68330000Y-100700000D01*
X68330000Y-95300000D02*
X68330000Y-98510000D01*
X65670000Y-95300000D02*
X68330000Y-95300000D01*
X166670000Y-126030000D02*
X166670000Y-129140000D01*
X166670000Y-120950000D02*
X166670000Y-124510000D01*
X169330000Y-123490000D02*
X169330000Y-127050000D01*
X169330000Y-128570000D02*
X169330000Y-129140000D01*
X166670000Y-118860000D02*
X166670000Y-119430000D01*
X166670000Y-119430000D02*
X165150000Y-119430000D01*
X169330000Y-118860000D02*
X169330000Y-121970000D01*
X166670000Y-129140000D02*
X169330000Y-129140000D01*
X166670000Y-118860000D02*
X169330000Y-118860000D01*
X120670000Y-126030000D02*
X120670000Y-129140000D01*
X120670000Y-120950000D02*
X120670000Y-124510000D01*
X123330000Y-123490000D02*
X123330000Y-127050000D01*
X123330000Y-128570000D02*
X123330000Y-129140000D01*
X120670000Y-118860000D02*
X120670000Y-119430000D01*
X120670000Y-119430000D02*
X119150000Y-119430000D01*
X123330000Y-118860000D02*
X123330000Y-121970000D01*
X120670000Y-129140000D02*
X123330000Y-129140000D01*
X120670000Y-118860000D02*
X123330000Y-118860000D01*
X120670000Y-102490000D02*
X120670000Y-105600000D01*
X123330000Y-105030000D02*
X123330000Y-105600000D01*
X120670000Y-100400000D02*
X120670000Y-100970000D01*
X120670000Y-100970000D02*
X119150000Y-100970000D01*
X123330000Y-100400000D02*
X123330000Y-103510000D01*
X120670000Y-105600000D02*
X123330000Y-105600000D01*
X120670000Y-100400000D02*
X123330000Y-100400000D01*
X166670000Y-97490000D02*
X166670000Y-100600000D01*
X169330000Y-100030000D02*
X169330000Y-100600000D01*
X166670000Y-95400000D02*
X166670000Y-95970000D01*
X166670000Y-95970000D02*
X165150000Y-95970000D01*
X169330000Y-95400000D02*
X169330000Y-98510000D01*
X166670000Y-100600000D02*
X169330000Y-100600000D01*
X166670000Y-95400000D02*
X169330000Y-95400000D01*
X135220000Y-122761000D02*
X135220000Y-119161000D01*
X135220000Y-122761000D02*
X135220000Y-124961000D01*
X128450000Y-122761000D02*
X128450000Y-120561000D01*
X128450000Y-122761000D02*
X128450000Y-124961000D01*
X147793000Y-122761000D02*
X147793000Y-119161000D01*
X147793000Y-122761000D02*
X147793000Y-124961000D01*
X141023000Y-122761000D02*
X141023000Y-120561000D01*
X141023000Y-122761000D02*
X141023000Y-124961000D01*
X136917000Y-121399779D02*
X136917000Y-121074221D01*
X135897000Y-121399779D02*
X135897000Y-121074221D01*
X149617000Y-121399779D02*
X149617000Y-121074221D01*
X148597000Y-121399779D02*
X148597000Y-121074221D01*
D14*
X124500000Y-109845000D02*
X124500000Y-108245000D01*
X124500000Y-108245000D02*
X123100000Y-108245000D01*
X123100000Y-109845000D02*
X124500000Y-109845000D01*
X124500000Y-97150000D02*
X124500000Y-95550000D01*
X124500000Y-95550000D02*
X123100000Y-95550000D01*
X123100000Y-97150000D02*
X124500000Y-97150000D01*
X124519000Y-94400000D02*
X124519000Y-92800000D01*
X124519000Y-92800000D02*
X123119000Y-92800000D01*
X123119000Y-94400000D02*
X124519000Y-94400000D01*
X124519000Y-91650000D02*
X124519000Y-90050000D01*
X124519000Y-90050000D02*
X123119000Y-90050000D01*
X123119000Y-91650000D02*
X124519000Y-91650000D01*
X124519000Y-88900000D02*
X124519000Y-87300000D01*
X124519000Y-87300000D02*
X123119000Y-87300000D01*
X123119000Y-88900000D02*
X124519000Y-88900000D01*
X124519000Y-86150000D02*
X124519000Y-84550000D01*
X124519000Y-84550000D02*
X123119000Y-84550000D01*
X123119000Y-86150000D02*
X124519000Y-86150000D01*
X124519000Y-83511000D02*
X124519000Y-81911000D01*
X124519000Y-81911000D02*
X123119000Y-81911000D01*
X123119000Y-83511000D02*
X124519000Y-83511000D01*
X141300000Y-76100000D02*
X141300000Y-77700000D01*
X141300000Y-77700000D02*
X142700000Y-77700000D01*
X142700000Y-76100000D02*
X141300000Y-76100000D01*
X141300000Y-72300000D02*
X141300000Y-73900000D01*
X141300000Y-73900000D02*
X142700000Y-73900000D01*
X142700000Y-72300000D02*
X141300000Y-72300000D01*
X125450000Y-77200000D02*
X127050000Y-77200000D01*
X127050000Y-77200000D02*
X127050000Y-75800000D01*
X125450000Y-75800000D02*
X125450000Y-77200000D01*
X150450000Y-77200000D02*
X152050000Y-77200000D01*
X152050000Y-77200000D02*
X152050000Y-75800000D01*
X150450000Y-75800000D02*
X150450000Y-77200000D01*
X162950000Y-77200000D02*
X164550000Y-77200000D01*
X164550000Y-77200000D02*
X164550000Y-75800000D01*
X162950000Y-75800000D02*
X162950000Y-77200000D01*
D12*
X137675000Y-126281221D02*
X137675000Y-126606779D01*
X138695000Y-126281221D02*
X138695000Y-126606779D01*
X148470000Y-126154221D02*
X148470000Y-126479779D01*
X149490000Y-126154221D02*
X149490000Y-126479779D01*
X135897000Y-126281221D02*
X135897000Y-126606779D01*
X136917000Y-126281221D02*
X136917000Y-126606779D01*
X150248000Y-126154221D02*
X150248000Y-126479779D01*
X151268000Y-126154221D02*
X151268000Y-126479779D01*
D14*
X162950000Y-64200000D02*
X164550000Y-64200000D01*
X164550000Y-64200000D02*
X164550000Y-62800000D01*
X162950000Y-62800000D02*
X162950000Y-64200000D01*
X150450000Y-64200000D02*
X152050000Y-64200000D01*
X152050000Y-64200000D02*
X152050000Y-62800000D01*
X150450000Y-62800000D02*
X150450000Y-64200000D01*
X137950000Y-64200000D02*
X139550000Y-64200000D01*
X139550000Y-64200000D02*
X139550000Y-62800000D01*
X137950000Y-62800000D02*
X137950000Y-64200000D01*
D12*
X78112000Y-122255000D02*
X78112000Y-123015000D01*
X77352000Y-122255000D02*
X78112000Y-122255000D01*
X72012000Y-129845000D02*
X72012000Y-125845000D01*
X72532000Y-129845000D02*
X72012000Y-129845000D01*
X72532000Y-125845000D02*
X72532000Y-129845000D01*
X72922323Y-124725000D02*
X72891677Y-124725000D01*
X72907000Y-124725000D02*
X72907000Y-125845000D01*
X73282000Y-129845000D02*
X73282000Y-125845000D01*
X73802000Y-129845000D02*
X73282000Y-129845000D01*
X73802000Y-125845000D02*
X73802000Y-129845000D01*
X74192323Y-124725000D02*
X74161677Y-124725000D01*
X74177000Y-124725000D02*
X74177000Y-125845000D01*
X74552000Y-129845000D02*
X74552000Y-125845000D01*
X75072000Y-129845000D02*
X74552000Y-129845000D01*
X75072000Y-125845000D02*
X75072000Y-129845000D01*
X75462323Y-124725000D02*
X75431677Y-124725000D01*
X75447000Y-124725000D02*
X75447000Y-125845000D01*
X75822000Y-129845000D02*
X75822000Y-125845000D01*
X76342000Y-129845000D02*
X75822000Y-129845000D01*
X76342000Y-125845000D02*
X76342000Y-129845000D01*
X76732323Y-124725000D02*
X76701677Y-124725000D01*
X76717000Y-124725000D02*
X76717000Y-125845000D01*
X77192000Y-125845000D02*
X77192000Y-129845000D01*
X77312000Y-125845000D02*
X77312000Y-129845000D01*
X77432000Y-125845000D02*
X77432000Y-129845000D01*
X77552000Y-125845000D02*
X77552000Y-129845000D01*
X77092000Y-129845000D02*
X77092000Y-125845000D01*
X77612000Y-129845000D02*
X77092000Y-129845000D01*
X77612000Y-125845000D02*
X77612000Y-129845000D01*
X71577000Y-124725000D02*
X71652323Y-124725000D01*
X71577000Y-125845000D02*
X71577000Y-124725000D01*
X78047000Y-125845000D02*
X71577000Y-125845000D01*
X78047000Y-124725000D02*
X78047000Y-125845000D01*
X77971677Y-124725000D02*
X78047000Y-124725000D01*
D14*
X125450000Y-64200000D02*
X127050000Y-64200000D01*
X127050000Y-64200000D02*
X127050000Y-62800000D01*
X125450000Y-62800000D02*
X125450000Y-64200000D01*
X83700000Y-103776000D02*
X81900000Y-103776000D01*
X67100000Y-103776000D02*
X63500000Y-103776000D01*
X63500000Y-115776000D02*
X63500000Y-103776000D01*
X71300000Y-115776000D02*
X63500000Y-115776000D01*
D12*
X83310000Y-98082000D02*
X85760000Y-98082000D01*
X85110000Y-94862000D02*
X83310000Y-94862000D01*
X94508000Y-94862000D02*
X92058000Y-94862000D01*
X92708000Y-98082000D02*
X94508000Y-98082000D01*
X162398000Y-102958000D02*
X162398000Y-99358000D01*
X162398000Y-102958000D02*
X162398000Y-105158000D01*
X155628000Y-102958000D02*
X155628000Y-100758000D01*
X155628000Y-102958000D02*
X155628000Y-105158000D01*
X154697000Y-106159779D02*
X154697000Y-105834221D01*
X153677000Y-106159779D02*
X153677000Y-105834221D01*
X153076273Y-96463522D02*
X153306478Y-96693727D01*
X153797522Y-95742273D02*
X154027727Y-95972478D01*
X154219273Y-95320522D02*
X154449478Y-95550727D01*
X154940522Y-94599273D02*
X155170727Y-94829478D01*
X155522200Y-92496421D02*
X155522200Y-92821979D01*
X156542200Y-92496421D02*
X156542200Y-92821979D01*
X157071600Y-92496421D02*
X157071600Y-92821979D01*
X158091600Y-92496421D02*
X158091600Y-92821979D01*
X158595600Y-92496421D02*
X158595600Y-92821979D01*
X159615600Y-92496421D02*
X159615600Y-92821979D01*
X160145000Y-92496421D02*
X160145000Y-92821979D01*
X161165000Y-92496421D02*
X161165000Y-92821979D01*
X161669000Y-92496421D02*
X161669000Y-92821979D01*
X162689000Y-92496421D02*
X162689000Y-92821979D01*
X163193000Y-92496421D02*
X163193000Y-92821979D01*
X164213000Y-92496421D02*
X164213000Y-92821979D01*
X164717000Y-92496421D02*
X164717000Y-92821979D01*
X165737000Y-92496421D02*
X165737000Y-92821979D01*
X161898221Y-129240000D02*
X162223779Y-129240000D01*
X161898221Y-128220000D02*
X162223779Y-128220000D01*
X161898221Y-127589000D02*
X162223779Y-127589000D01*
X161898221Y-126569000D02*
X162223779Y-126569000D01*
X106051000Y-119729000D02*
X108851000Y-119729000D01*
X108851000Y-119729000D02*
X108851000Y-121729000D01*
X108851000Y-121729000D02*
X106051000Y-121729000D01*
X106051000Y-121729000D02*
X106051000Y-119729000D01*
X107378000Y-94629000D02*
X102698000Y-94629000D01*
X101998000Y-100849000D02*
X103278000Y-100849000D01*
X101998000Y-102449000D02*
X101998000Y-100849000D01*
X100978000Y-102449000D02*
X101998000Y-102449000D01*
X100978000Y-98199000D02*
X100978000Y-102449000D01*
X106798000Y-100849000D02*
X106798000Y-103739000D01*
X108078000Y-100849000D02*
X106798000Y-100849000D01*
X108078000Y-102449000D02*
X108078000Y-100849000D01*
X109098000Y-102449000D02*
X108078000Y-102449000D01*
X109098000Y-98199000D02*
X109098000Y-102449000D01*
X94243000Y-118697000D02*
X94243000Y-119967000D01*
X92973000Y-118697000D02*
X94243000Y-118697000D01*
X90053000Y-121009929D02*
X90053000Y-121407000D01*
X90813000Y-121009929D02*
X90813000Y-121407000D01*
X90053000Y-130067000D02*
X90053000Y-124067000D01*
X90813000Y-130067000D02*
X90053000Y-130067000D01*
X90813000Y-124067000D02*
X90813000Y-130067000D01*
X91703000Y-121407000D02*
X91703000Y-124067000D01*
X92593000Y-121077000D02*
X92593000Y-121407000D01*
X93353000Y-121077000D02*
X93353000Y-121407000D01*
X92693000Y-124067000D02*
X92693000Y-130067000D01*
X92813000Y-124067000D02*
X92813000Y-130067000D01*
X92933000Y-124067000D02*
X92933000Y-130067000D01*
X93053000Y-124067000D02*
X93053000Y-130067000D01*
X93173000Y-124067000D02*
X93173000Y-130067000D01*
X93293000Y-124067000D02*
X93293000Y-130067000D01*
X92593000Y-130067000D02*
X92593000Y-124067000D01*
X93353000Y-130067000D02*
X92593000Y-130067000D01*
X93353000Y-124067000D02*
X93353000Y-130067000D01*
X94303000Y-124067000D02*
X94303000Y-121407000D01*
X89103000Y-124067000D02*
X94303000Y-124067000D01*
X89103000Y-121407000D02*
X89103000Y-124067000D01*
X94303000Y-121407000D02*
X89103000Y-121407000D01*
X104460000Y-118671000D02*
X101510000Y-118671000D01*
X102060000Y-121771000D02*
X104460000Y-121771000D01*
X83610779Y-119711000D02*
X83285221Y-119711000D01*
X83610779Y-120731000D02*
X83285221Y-120731000D01*
X79963779Y-117903000D02*
X79638221Y-117903000D01*
X79963779Y-118923000D02*
X79638221Y-118923000D01*
X79963779Y-119711000D02*
X79638221Y-119711000D01*
X79963779Y-120731000D02*
X79638221Y-120731000D01*
X81930000Y-119160000D02*
X85840000Y-119160000D01*
X81930000Y-117290000D02*
X81930000Y-119160000D01*
X85840000Y-117290000D02*
X81930000Y-117290000D01*
X108722279Y-117854000D02*
X108396721Y-117854000D01*
X108722279Y-118874000D02*
X108396721Y-118874000D01*
X106601500Y-117346000D02*
X110511500Y-117346000D01*
X106601500Y-115476000D02*
X106601500Y-117346000D01*
X110511500Y-115476000D02*
X106601500Y-115476000D01*
X91070000Y-97142779D02*
X91070000Y-96817221D01*
X90050000Y-97142779D02*
X90050000Y-96817221D01*
X80779000Y-96563221D02*
X80779000Y-96888779D01*
X81799000Y-96563221D02*
X81799000Y-96888779D01*
X80021000Y-96888779D02*
X80021000Y-96563221D01*
X79001000Y-96888779D02*
X79001000Y-96563221D01*
X88272000Y-96817221D02*
X88272000Y-97142779D01*
X89292000Y-96817221D02*
X89292000Y-97142779D01*
X97039000Y-98666779D02*
X97039000Y-98341221D01*
X96019000Y-98666779D02*
X96019000Y-98341221D01*
X87641000Y-97142779D02*
X87641000Y-96817221D01*
X86621000Y-97142779D02*
X86621000Y-96817221D01*
X97626000Y-98099000D02*
X97626000Y-102009000D01*
X99496000Y-98099000D02*
X97626000Y-98099000D01*
X99496000Y-102009000D02*
X99496000Y-98099000D01*
X156682221Y-110229000D02*
X157007779Y-110229000D01*
X156682221Y-109209000D02*
X157007779Y-109209000D01*
X156682221Y-108705000D02*
X157007779Y-108705000D01*
X156682221Y-107685000D02*
X157007779Y-107685000D01*
D14*
X71913761Y-118911619D02*
X71818523Y-118864000D01*
X71723285Y-118768761D01*
X71580428Y-118625904D01*
X71485190Y-118578285D01*
X71389952Y-118578285D01*
X71437571Y-118816380D02*
X71342333Y-118768761D01*
X71247095Y-118673523D01*
X71199476Y-118483047D01*
X71199476Y-118149714D01*
X71247095Y-117959238D01*
X71342333Y-117864000D01*
X71437571Y-117816380D01*
X71628047Y-117816380D01*
X71723285Y-117864000D01*
X71818523Y-117959238D01*
X71866142Y-118149714D01*
X71866142Y-118483047D01*
X71818523Y-118673523D01*
X71723285Y-118768761D01*
X71628047Y-118816380D01*
X71437571Y-118816380D01*
X72818523Y-118816380D02*
X72247095Y-118816380D01*
X72532809Y-118816380D02*
X72532809Y-117816380D01*
X72437571Y-117959238D01*
X72342333Y-118054476D01*
X72247095Y-118102095D01*
X90166880Y-111751904D02*
X90976404Y-111751904D01*
X91071642Y-111704285D01*
X91119261Y-111656666D01*
X91166880Y-111561428D01*
X91166880Y-111370952D01*
X91119261Y-111275714D01*
X91071642Y-111228095D01*
X90976404Y-111180476D01*
X90166880Y-111180476D01*
X90595452Y-110561428D02*
X90547833Y-110656666D01*
X90500214Y-110704285D01*
X90404976Y-110751904D01*
X90357357Y-110751904D01*
X90262119Y-110704285D01*
X90214500Y-110656666D01*
X90166880Y-110561428D01*
X90166880Y-110370952D01*
X90214500Y-110275714D01*
X90262119Y-110228095D01*
X90357357Y-110180476D01*
X90404976Y-110180476D01*
X90500214Y-110228095D01*
X90547833Y-110275714D01*
X90595452Y-110370952D01*
X90595452Y-110561428D01*
X90643071Y-110656666D01*
X90690690Y-110704285D01*
X90785928Y-110751904D01*
X90976404Y-110751904D01*
X91071642Y-110704285D01*
X91119261Y-110656666D01*
X91166880Y-110561428D01*
X91166880Y-110370952D01*
X91119261Y-110275714D01*
X91071642Y-110228095D01*
X90976404Y-110180476D01*
X90785928Y-110180476D01*
X90690690Y-110228095D01*
X90643071Y-110275714D01*
X90595452Y-110370952D01*
X92448142Y-115928380D02*
X92114809Y-115452190D01*
X91876714Y-115928380D02*
X91876714Y-114928380D01*
X92257666Y-114928380D01*
X92352904Y-114976000D01*
X92400523Y-115023619D01*
X92448142Y-115118857D01*
X92448142Y-115261714D01*
X92400523Y-115356952D01*
X92352904Y-115404571D01*
X92257666Y-115452190D01*
X91876714Y-115452190D01*
X92829095Y-115023619D02*
X92876714Y-114976000D01*
X92971952Y-114928380D01*
X93210047Y-114928380D01*
X93305285Y-114976000D01*
X93352904Y-115023619D01*
X93400523Y-115118857D01*
X93400523Y-115214095D01*
X93352904Y-115356952D01*
X92781476Y-115928380D01*
X93400523Y-115928380D01*
X93876714Y-115928380D02*
X94067190Y-115928380D01*
X94162428Y-115880761D01*
X94210047Y-115833142D01*
X94305285Y-115690285D01*
X94352904Y-115499809D01*
X94352904Y-115118857D01*
X94305285Y-115023619D01*
X94257666Y-114976000D01*
X94162428Y-114928380D01*
X93971952Y-114928380D01*
X93876714Y-114976000D01*
X93829095Y-115023619D01*
X93781476Y-115118857D01*
X93781476Y-115356952D01*
X93829095Y-115452190D01*
X93876714Y-115499809D01*
X93971952Y-115547428D01*
X94162428Y-115547428D01*
X94257666Y-115499809D01*
X94305285Y-115452190D01*
X94352904Y-115356952D01*
X95321380Y-107957857D02*
X94845190Y-108291190D01*
X95321380Y-108529285D02*
X94321380Y-108529285D01*
X94321380Y-108148333D01*
X94369000Y-108053095D01*
X94416619Y-108005476D01*
X94511857Y-107957857D01*
X94654714Y-107957857D01*
X94749952Y-108005476D01*
X94797571Y-108053095D01*
X94845190Y-108148333D01*
X94845190Y-108529285D01*
X94416619Y-107576904D02*
X94369000Y-107529285D01*
X94321380Y-107434047D01*
X94321380Y-107195952D01*
X94369000Y-107100714D01*
X94416619Y-107053095D01*
X94511857Y-107005476D01*
X94607095Y-107005476D01*
X94749952Y-107053095D01*
X95321380Y-107624523D01*
X95321380Y-107005476D01*
X94749952Y-106434047D02*
X94702333Y-106529285D01*
X94654714Y-106576904D01*
X94559476Y-106624523D01*
X94511857Y-106624523D01*
X94416619Y-106576904D01*
X94369000Y-106529285D01*
X94321380Y-106434047D01*
X94321380Y-106243571D01*
X94369000Y-106148333D01*
X94416619Y-106100714D01*
X94511857Y-106053095D01*
X94559476Y-106053095D01*
X94654714Y-106100714D01*
X94702333Y-106148333D01*
X94749952Y-106243571D01*
X94749952Y-106434047D01*
X94797571Y-106529285D01*
X94845190Y-106576904D01*
X94940428Y-106624523D01*
X95130904Y-106624523D01*
X95226142Y-106576904D01*
X95273761Y-106529285D01*
X95321380Y-106434047D01*
X95321380Y-106243571D01*
X95273761Y-106148333D01*
X95226142Y-106100714D01*
X95130904Y-106053095D01*
X94940428Y-106053095D01*
X94845190Y-106100714D01*
X94797571Y-106148333D01*
X94749952Y-106243571D01*
X102481142Y-107767380D02*
X102147809Y-107291190D01*
X101909714Y-107767380D02*
X101909714Y-106767380D01*
X102290666Y-106767380D01*
X102385904Y-106815000D01*
X102433523Y-106862619D01*
X102481142Y-106957857D01*
X102481142Y-107100714D01*
X102433523Y-107195952D01*
X102385904Y-107243571D01*
X102290666Y-107291190D01*
X101909714Y-107291190D01*
X102862095Y-106862619D02*
X102909714Y-106815000D01*
X103004952Y-106767380D01*
X103243047Y-106767380D01*
X103338285Y-106815000D01*
X103385904Y-106862619D01*
X103433523Y-106957857D01*
X103433523Y-107053095D01*
X103385904Y-107195952D01*
X102814476Y-107767380D01*
X103433523Y-107767380D01*
X104385904Y-107767380D02*
X103814476Y-107767380D01*
X104100190Y-107767380D02*
X104100190Y-106767380D01*
X104004952Y-106910238D01*
X103909714Y-107005476D01*
X103814476Y-107053095D01*
X102481142Y-106243380D02*
X102147809Y-105767190D01*
X101909714Y-106243380D02*
X101909714Y-105243380D01*
X102290666Y-105243380D01*
X102385904Y-105291000D01*
X102433523Y-105338619D01*
X102481142Y-105433857D01*
X102481142Y-105576714D01*
X102433523Y-105671952D01*
X102385904Y-105719571D01*
X102290666Y-105767190D01*
X101909714Y-105767190D01*
X102862095Y-105338619D02*
X102909714Y-105291000D01*
X103004952Y-105243380D01*
X103243047Y-105243380D01*
X103338285Y-105291000D01*
X103385904Y-105338619D01*
X103433523Y-105433857D01*
X103433523Y-105529095D01*
X103385904Y-105671952D01*
X102814476Y-106243380D01*
X103433523Y-106243380D01*
X104052571Y-105243380D02*
X104147809Y-105243380D01*
X104243047Y-105291000D01*
X104290666Y-105338619D01*
X104338285Y-105433857D01*
X104385904Y-105624333D01*
X104385904Y-105862428D01*
X104338285Y-106052904D01*
X104290666Y-106148142D01*
X104243047Y-106195761D01*
X104147809Y-106243380D01*
X104052571Y-106243380D01*
X103957333Y-106195761D01*
X103909714Y-106148142D01*
X103862095Y-106052904D01*
X103814476Y-105862428D01*
X103814476Y-105624333D01*
X103862095Y-105433857D01*
X103909714Y-105338619D01*
X103957333Y-105291000D01*
X104052571Y-105243380D01*
X78209380Y-120784857D02*
X77733190Y-121118190D01*
X78209380Y-121356285D02*
X77209380Y-121356285D01*
X77209380Y-120975333D01*
X77257000Y-120880095D01*
X77304619Y-120832476D01*
X77399857Y-120784857D01*
X77542714Y-120784857D01*
X77637952Y-120832476D01*
X77685571Y-120880095D01*
X77733190Y-120975333D01*
X77733190Y-121356285D01*
X78209380Y-119832476D02*
X78209380Y-120403904D01*
X78209380Y-120118190D02*
X77209380Y-120118190D01*
X77352238Y-120213428D01*
X77447476Y-120308666D01*
X77495095Y-120403904D01*
X78209380Y-119356285D02*
X78209380Y-119165809D01*
X78161761Y-119070571D01*
X78114142Y-119022952D01*
X77971285Y-118927714D01*
X77780809Y-118880095D01*
X77399857Y-118880095D01*
X77304619Y-118927714D01*
X77257000Y-118975333D01*
X77209380Y-119070571D01*
X77209380Y-119261047D01*
X77257000Y-119356285D01*
X77304619Y-119403904D01*
X77399857Y-119451523D01*
X77637952Y-119451523D01*
X77733190Y-119403904D01*
X77780809Y-119356285D01*
X77828428Y-119261047D01*
X77828428Y-119070571D01*
X77780809Y-118975333D01*
X77733190Y-118927714D01*
X77637952Y-118880095D01*
X90654142Y-107957857D02*
X90701761Y-108005476D01*
X90749380Y-108148333D01*
X90749380Y-108243571D01*
X90701761Y-108386428D01*
X90606523Y-108481666D01*
X90511285Y-108529285D01*
X90320809Y-108576904D01*
X90177952Y-108576904D01*
X89987476Y-108529285D01*
X89892238Y-108481666D01*
X89797000Y-108386428D01*
X89749380Y-108243571D01*
X89749380Y-108148333D01*
X89797000Y-108005476D01*
X89844619Y-107957857D01*
X89844619Y-107576904D02*
X89797000Y-107529285D01*
X89749380Y-107434047D01*
X89749380Y-107195952D01*
X89797000Y-107100714D01*
X89844619Y-107053095D01*
X89939857Y-107005476D01*
X90035095Y-107005476D01*
X90177952Y-107053095D01*
X90749380Y-107624523D01*
X90749380Y-107005476D01*
X89749380Y-106672142D02*
X89749380Y-106005476D01*
X90749380Y-106434047D01*
X96004142Y-115038142D02*
X95956523Y-115085761D01*
X95813666Y-115133380D01*
X95718428Y-115133380D01*
X95575571Y-115085761D01*
X95480333Y-114990523D01*
X95432714Y-114895285D01*
X95385095Y-114704809D01*
X95385095Y-114561952D01*
X95432714Y-114371476D01*
X95480333Y-114276238D01*
X95575571Y-114181000D01*
X95718428Y-114133380D01*
X95813666Y-114133380D01*
X95956523Y-114181000D01*
X96004142Y-114228619D01*
X96385095Y-114228619D02*
X96432714Y-114181000D01*
X96527952Y-114133380D01*
X96766047Y-114133380D01*
X96861285Y-114181000D01*
X96908904Y-114228619D01*
X96956523Y-114323857D01*
X96956523Y-114419095D01*
X96908904Y-114561952D01*
X96337476Y-115133380D01*
X96956523Y-115133380D01*
X97813666Y-114133380D02*
X97623190Y-114133380D01*
X97527952Y-114181000D01*
X97480333Y-114228619D01*
X97385095Y-114371476D01*
X97337476Y-114561952D01*
X97337476Y-114942904D01*
X97385095Y-115038142D01*
X97432714Y-115085761D01*
X97527952Y-115133380D01*
X97718428Y-115133380D01*
X97813666Y-115085761D01*
X97861285Y-115038142D01*
X97908904Y-114942904D01*
X97908904Y-114704809D01*
X97861285Y-114609571D01*
X97813666Y-114561952D01*
X97718428Y-114514333D01*
X97527952Y-114514333D01*
X97432714Y-114561952D01*
X97385095Y-114609571D01*
X97337476Y-114704809D01*
X98925142Y-110212142D02*
X98877523Y-110259761D01*
X98734666Y-110307380D01*
X98639428Y-110307380D01*
X98496571Y-110259761D01*
X98401333Y-110164523D01*
X98353714Y-110069285D01*
X98306095Y-109878809D01*
X98306095Y-109735952D01*
X98353714Y-109545476D01*
X98401333Y-109450238D01*
X98496571Y-109355000D01*
X98639428Y-109307380D01*
X98734666Y-109307380D01*
X98877523Y-109355000D01*
X98925142Y-109402619D01*
X99306095Y-109402619D02*
X99353714Y-109355000D01*
X99448952Y-109307380D01*
X99687047Y-109307380D01*
X99782285Y-109355000D01*
X99829904Y-109402619D01*
X99877523Y-109497857D01*
X99877523Y-109593095D01*
X99829904Y-109735952D01*
X99258476Y-110307380D01*
X99877523Y-110307380D01*
X100782285Y-109307380D02*
X100306095Y-109307380D01*
X100258476Y-109783571D01*
X100306095Y-109735952D01*
X100401333Y-109688333D01*
X100639428Y-109688333D01*
X100734666Y-109735952D01*
X100782285Y-109783571D01*
X100829904Y-109878809D01*
X100829904Y-110116904D01*
X100782285Y-110212142D01*
X100734666Y-110259761D01*
X100639428Y-110307380D01*
X100401333Y-110307380D01*
X100306095Y-110259761D01*
X100258476Y-110212142D01*
X98925142Y-111863142D02*
X98877523Y-111910761D01*
X98734666Y-111958380D01*
X98639428Y-111958380D01*
X98496571Y-111910761D01*
X98401333Y-111815523D01*
X98353714Y-111720285D01*
X98306095Y-111529809D01*
X98306095Y-111386952D01*
X98353714Y-111196476D01*
X98401333Y-111101238D01*
X98496571Y-111006000D01*
X98639428Y-110958380D01*
X98734666Y-110958380D01*
X98877523Y-111006000D01*
X98925142Y-111053619D01*
X99306095Y-111053619D02*
X99353714Y-111006000D01*
X99448952Y-110958380D01*
X99687047Y-110958380D01*
X99782285Y-111006000D01*
X99829904Y-111053619D01*
X99877523Y-111148857D01*
X99877523Y-111244095D01*
X99829904Y-111386952D01*
X99258476Y-111958380D01*
X99877523Y-111958380D01*
X100734666Y-111291714D02*
X100734666Y-111958380D01*
X100496571Y-110910761D02*
X100258476Y-111625047D01*
X100877523Y-111625047D01*
X96496142Y-107068857D02*
X96543761Y-107116476D01*
X96591380Y-107259333D01*
X96591380Y-107354571D01*
X96543761Y-107497428D01*
X96448523Y-107592666D01*
X96353285Y-107640285D01*
X96162809Y-107687904D01*
X96019952Y-107687904D01*
X95829476Y-107640285D01*
X95734238Y-107592666D01*
X95639000Y-107497428D01*
X95591380Y-107354571D01*
X95591380Y-107259333D01*
X95639000Y-107116476D01*
X95686619Y-107068857D01*
X95686619Y-106687904D02*
X95639000Y-106640285D01*
X95591380Y-106545047D01*
X95591380Y-106306952D01*
X95639000Y-106211714D01*
X95686619Y-106164095D01*
X95781857Y-106116476D01*
X95877095Y-106116476D01*
X96019952Y-106164095D01*
X96591380Y-106735523D01*
X96591380Y-106116476D01*
X95591380Y-105783142D02*
X95591380Y-105164095D01*
X95972333Y-105497428D01*
X95972333Y-105354571D01*
X96019952Y-105259333D01*
X96067571Y-105211714D01*
X96162809Y-105164095D01*
X96400904Y-105164095D01*
X96496142Y-105211714D01*
X96543761Y-105259333D01*
X96591380Y-105354571D01*
X96591380Y-105640285D01*
X96543761Y-105735523D01*
X96496142Y-105783142D01*
X101728142Y-109148142D02*
X101680523Y-109195761D01*
X101537666Y-109243380D01*
X101442428Y-109243380D01*
X101299571Y-109195761D01*
X101204333Y-109100523D01*
X101156714Y-109005285D01*
X101109095Y-108814809D01*
X101109095Y-108671952D01*
X101156714Y-108481476D01*
X101204333Y-108386238D01*
X101299571Y-108291000D01*
X101442428Y-108243380D01*
X101537666Y-108243380D01*
X101680523Y-108291000D01*
X101728142Y-108338619D01*
X102109095Y-108338619D02*
X102156714Y-108291000D01*
X102251952Y-108243380D01*
X102490047Y-108243380D01*
X102585285Y-108291000D01*
X102632904Y-108338619D01*
X102680523Y-108433857D01*
X102680523Y-108529095D01*
X102632904Y-108671952D01*
X102061476Y-109243380D01*
X102680523Y-109243380D01*
X103061476Y-108338619D02*
X103109095Y-108291000D01*
X103204333Y-108243380D01*
X103442428Y-108243380D01*
X103537666Y-108291000D01*
X103585285Y-108338619D01*
X103632904Y-108433857D01*
X103632904Y-108529095D01*
X103585285Y-108671952D01*
X103013857Y-109243380D01*
X103632904Y-109243380D01*
X111618142Y-114386857D02*
X111665761Y-114434476D01*
X111713380Y-114577333D01*
X111713380Y-114672571D01*
X111665761Y-114815428D01*
X111570523Y-114910666D01*
X111475285Y-114958285D01*
X111284809Y-115005904D01*
X111141952Y-115005904D01*
X110951476Y-114958285D01*
X110856238Y-114910666D01*
X110761000Y-114815428D01*
X110713380Y-114672571D01*
X110713380Y-114577333D01*
X110761000Y-114434476D01*
X110808619Y-114386857D01*
X110808619Y-114005904D02*
X110761000Y-113958285D01*
X110713380Y-113863047D01*
X110713380Y-113624952D01*
X110761000Y-113529714D01*
X110808619Y-113482095D01*
X110903857Y-113434476D01*
X110999095Y-113434476D01*
X111141952Y-113482095D01*
X111713380Y-114053523D01*
X111713380Y-113434476D01*
X110713380Y-112815428D02*
X110713380Y-112720190D01*
X110761000Y-112624952D01*
X110808619Y-112577333D01*
X110903857Y-112529714D01*
X111094333Y-112482095D01*
X111332428Y-112482095D01*
X111522904Y-112529714D01*
X111618142Y-112577333D01*
X111665761Y-112624952D01*
X111713380Y-112720190D01*
X111713380Y-112815428D01*
X111665761Y-112910666D01*
X111618142Y-112958285D01*
X111522904Y-113005904D01*
X111332428Y-113053523D01*
X111094333Y-113053523D01*
X110903857Y-113005904D01*
X110808619Y-112958285D01*
X110761000Y-112910666D01*
X110713380Y-112815428D01*
X99666380Y-114759904D02*
X100475904Y-114759904D01*
X100571142Y-114712285D01*
X100618761Y-114664666D01*
X100666380Y-114569428D01*
X100666380Y-114378952D01*
X100618761Y-114283714D01*
X100571142Y-114236095D01*
X100475904Y-114188476D01*
X99666380Y-114188476D01*
X99666380Y-113283714D02*
X99666380Y-113474190D01*
X99714000Y-113569428D01*
X99761619Y-113617047D01*
X99904476Y-113712285D01*
X100094952Y-113759904D01*
X100475904Y-113759904D01*
X100571142Y-113712285D01*
X100618761Y-113664666D01*
X100666380Y-113569428D01*
X100666380Y-113378952D01*
X100618761Y-113283714D01*
X100571142Y-113236095D01*
X100475904Y-113188476D01*
X100237809Y-113188476D01*
X100142571Y-113236095D01*
X100094952Y-113283714D01*
X100047333Y-113378952D01*
X100047333Y-113569428D01*
X100094952Y-113664666D01*
X100142571Y-113712285D01*
X100237809Y-113759904D01*
X107037142Y-114434857D02*
X107084761Y-114482476D01*
X107132380Y-114625333D01*
X107132380Y-114720571D01*
X107084761Y-114863428D01*
X106989523Y-114958666D01*
X106894285Y-115006285D01*
X106703809Y-115053904D01*
X106560952Y-115053904D01*
X106370476Y-115006285D01*
X106275238Y-114958666D01*
X106180000Y-114863428D01*
X106132380Y-114720571D01*
X106132380Y-114625333D01*
X106180000Y-114482476D01*
X106227619Y-114434857D01*
X106227619Y-114053904D02*
X106180000Y-114006285D01*
X106132380Y-113911047D01*
X106132380Y-113672952D01*
X106180000Y-113577714D01*
X106227619Y-113530095D01*
X106322857Y-113482476D01*
X106418095Y-113482476D01*
X106560952Y-113530095D01*
X107132380Y-114101523D01*
X107132380Y-113482476D01*
X107132380Y-112530095D02*
X107132380Y-113101523D01*
X107132380Y-112815809D02*
X106132380Y-112815809D01*
X106275238Y-112911047D01*
X106370476Y-113006285D01*
X106418095Y-113101523D01*
X92829142Y-102560380D02*
X92495809Y-102084190D01*
X92257714Y-102560380D02*
X92257714Y-101560380D01*
X92638666Y-101560380D01*
X92733904Y-101608000D01*
X92781523Y-101655619D01*
X92829142Y-101750857D01*
X92829142Y-101893714D01*
X92781523Y-101988952D01*
X92733904Y-102036571D01*
X92638666Y-102084190D01*
X92257714Y-102084190D01*
X93210095Y-101655619D02*
X93257714Y-101608000D01*
X93352952Y-101560380D01*
X93591047Y-101560380D01*
X93686285Y-101608000D01*
X93733904Y-101655619D01*
X93781523Y-101750857D01*
X93781523Y-101846095D01*
X93733904Y-101988952D01*
X93162476Y-102560380D01*
X93781523Y-102560380D01*
X94114857Y-101560380D02*
X94781523Y-101560380D01*
X94352952Y-102560380D01*
X65358380Y-101242285D02*
X64358380Y-101242285D01*
X64358380Y-101004190D01*
X64406000Y-100861333D01*
X64501238Y-100766095D01*
X64596476Y-100718476D01*
X64786952Y-100670857D01*
X64929809Y-100670857D01*
X65120285Y-100718476D01*
X65215523Y-100766095D01*
X65310761Y-100861333D01*
X65358380Y-101004190D01*
X65358380Y-101242285D01*
X64453619Y-100289904D02*
X64406000Y-100242285D01*
X64358380Y-100147047D01*
X64358380Y-99908952D01*
X64406000Y-99813714D01*
X64453619Y-99766095D01*
X64548857Y-99718476D01*
X64644095Y-99718476D01*
X64786952Y-99766095D01*
X65358380Y-100337523D01*
X65358380Y-99718476D01*
X64453619Y-99337523D02*
X64406000Y-99289904D01*
X64358380Y-99194666D01*
X64358380Y-98956571D01*
X64406000Y-98861333D01*
X64453619Y-98813714D01*
X64548857Y-98766095D01*
X64644095Y-98766095D01*
X64786952Y-98813714D01*
X65358380Y-99385142D01*
X65358380Y-98766095D01*
X105148142Y-111323380D02*
X104814809Y-110847190D01*
X104576714Y-111323380D02*
X104576714Y-110323380D01*
X104957666Y-110323380D01*
X105052904Y-110371000D01*
X105100523Y-110418619D01*
X105148142Y-110513857D01*
X105148142Y-110656714D01*
X105100523Y-110751952D01*
X105052904Y-110799571D01*
X104957666Y-110847190D01*
X104576714Y-110847190D01*
X105529095Y-110418619D02*
X105576714Y-110371000D01*
X105671952Y-110323380D01*
X105910047Y-110323380D01*
X106005285Y-110371000D01*
X106052904Y-110418619D01*
X106100523Y-110513857D01*
X106100523Y-110609095D01*
X106052904Y-110751952D01*
X105481476Y-111323380D01*
X106100523Y-111323380D01*
X106957666Y-110323380D02*
X106767190Y-110323380D01*
X106671952Y-110371000D01*
X106624333Y-110418619D01*
X106529095Y-110561476D01*
X106481476Y-110751952D01*
X106481476Y-111132904D01*
X106529095Y-111228142D01*
X106576714Y-111275761D01*
X106671952Y-111323380D01*
X106862428Y-111323380D01*
X106957666Y-111275761D01*
X107005285Y-111228142D01*
X107052904Y-111132904D01*
X107052904Y-110894809D01*
X107005285Y-110799571D01*
X106957666Y-110751952D01*
X106862428Y-110704333D01*
X106671952Y-110704333D01*
X106576714Y-110751952D01*
X106529095Y-110799571D01*
X106481476Y-110894809D01*
X82621380Y-123737666D02*
X82145190Y-124071000D01*
X82621380Y-124309095D02*
X81621380Y-124309095D01*
X81621380Y-123928142D01*
X81669000Y-123832904D01*
X81716619Y-123785285D01*
X81811857Y-123737666D01*
X81954714Y-123737666D01*
X82049952Y-123785285D01*
X82097571Y-123832904D01*
X82145190Y-123928142D01*
X82145190Y-124309095D01*
X81621380Y-122880523D02*
X81621380Y-123071000D01*
X81669000Y-123166238D01*
X81716619Y-123213857D01*
X81859476Y-123309095D01*
X82049952Y-123356714D01*
X82430904Y-123356714D01*
X82526142Y-123309095D01*
X82573761Y-123261476D01*
X82621380Y-123166238D01*
X82621380Y-122975761D01*
X82573761Y-122880523D01*
X82526142Y-122832904D01*
X82430904Y-122785285D01*
X82192809Y-122785285D01*
X82097571Y-122832904D01*
X82049952Y-122880523D01*
X82002333Y-122975761D01*
X82002333Y-123166238D01*
X82049952Y-123261476D01*
X82097571Y-123309095D01*
X82192809Y-123356714D01*
X88590380Y-123483666D02*
X88114190Y-123817000D01*
X88590380Y-124055095D02*
X87590380Y-124055095D01*
X87590380Y-123674142D01*
X87638000Y-123578904D01*
X87685619Y-123531285D01*
X87780857Y-123483666D01*
X87923714Y-123483666D01*
X88018952Y-123531285D01*
X88066571Y-123578904D01*
X88114190Y-123674142D01*
X88114190Y-124055095D01*
X87685619Y-123102714D02*
X87638000Y-123055095D01*
X87590380Y-122959857D01*
X87590380Y-122721761D01*
X87638000Y-122626523D01*
X87685619Y-122578904D01*
X87780857Y-122531285D01*
X87876095Y-122531285D01*
X88018952Y-122578904D01*
X88590380Y-123150333D01*
X88590380Y-122531285D01*
X83858380Y-123610666D02*
X83382190Y-123944000D01*
X83858380Y-124182095D02*
X82858380Y-124182095D01*
X82858380Y-123801142D01*
X82906000Y-123705904D01*
X82953619Y-123658285D01*
X83048857Y-123610666D01*
X83191714Y-123610666D01*
X83286952Y-123658285D01*
X83334571Y-123705904D01*
X83382190Y-123801142D01*
X83382190Y-124182095D01*
X83858380Y-122658285D02*
X83858380Y-123229714D01*
X83858380Y-122944000D02*
X82858380Y-122944000D01*
X83001238Y-123039238D01*
X83096476Y-123134476D01*
X83144095Y-123229714D01*
X100283380Y-95622666D02*
X99807190Y-95956000D01*
X100283380Y-96194095D02*
X99283380Y-96194095D01*
X99283380Y-95813142D01*
X99331000Y-95717904D01*
X99378619Y-95670285D01*
X99473857Y-95622666D01*
X99616714Y-95622666D01*
X99711952Y-95670285D01*
X99759571Y-95717904D01*
X99807190Y-95813142D01*
X99807190Y-96194095D01*
X99283380Y-94717904D02*
X99283380Y-95194095D01*
X99759571Y-95241714D01*
X99711952Y-95194095D01*
X99664333Y-95098857D01*
X99664333Y-94860761D01*
X99711952Y-94765523D01*
X99759571Y-94717904D01*
X99854809Y-94670285D01*
X100092904Y-94670285D01*
X100188142Y-94717904D01*
X100235761Y-94765523D01*
X100283380Y-94860761D01*
X100283380Y-95098857D01*
X100235761Y-95194095D01*
X100188142Y-95241714D01*
X109443380Y-128777523D02*
X110157666Y-128777523D01*
X110300523Y-128825142D01*
X110395761Y-128920380D01*
X110443380Y-129063238D01*
X110443380Y-129158476D01*
X110443380Y-127777523D02*
X110443380Y-128348952D01*
X110443380Y-128063238D02*
X109443380Y-128063238D01*
X109586238Y-128158476D01*
X109681476Y-128253714D01*
X109729095Y-128348952D01*
X109443380Y-127158476D02*
X109443380Y-127063238D01*
X109491000Y-126968000D01*
X109538619Y-126920380D01*
X109633857Y-126872761D01*
X109824333Y-126825142D01*
X110062428Y-126825142D01*
X110252904Y-126872761D01*
X110348142Y-126920380D01*
X110395761Y-126968000D01*
X110443380Y-127063238D01*
X110443380Y-127158476D01*
X110395761Y-127253714D01*
X110348142Y-127301333D01*
X110252904Y-127348952D01*
X110062428Y-127396571D01*
X109824333Y-127396571D01*
X109633857Y-127348952D01*
X109538619Y-127301333D01*
X109491000Y-127253714D01*
X109443380Y-127158476D01*
X114704761Y-115506333D02*
X114752380Y-115363476D01*
X114752380Y-115125380D01*
X114704761Y-115030142D01*
X114657142Y-114982523D01*
X114561904Y-114934904D01*
X114466666Y-114934904D01*
X114371428Y-114982523D01*
X114323809Y-115030142D01*
X114276190Y-115125380D01*
X114228571Y-115315857D01*
X114180952Y-115411095D01*
X114133333Y-115458714D01*
X114038095Y-115506333D01*
X113942857Y-115506333D01*
X113847619Y-115458714D01*
X113800000Y-115411095D01*
X113752380Y-115315857D01*
X113752380Y-115077761D01*
X113800000Y-114934904D01*
X113752380Y-114601571D02*
X114752380Y-114363476D01*
X114038095Y-114173000D01*
X114752380Y-113982523D01*
X113752380Y-113744428D01*
X113847619Y-113411095D02*
X113800000Y-113363476D01*
X113752380Y-113268238D01*
X113752380Y-113030142D01*
X113800000Y-112934904D01*
X113847619Y-112887285D01*
X113942857Y-112839666D01*
X114038095Y-112839666D01*
X114180952Y-112887285D01*
X114752380Y-113458714D01*
X114752380Y-112839666D01*
X81978666Y-125499761D02*
X82121523Y-125547380D01*
X82359619Y-125547380D01*
X82454857Y-125499761D01*
X82502476Y-125452142D01*
X82550095Y-125356904D01*
X82550095Y-125261666D01*
X82502476Y-125166428D01*
X82454857Y-125118809D01*
X82359619Y-125071190D01*
X82169142Y-125023571D01*
X82073904Y-124975952D01*
X82026285Y-124928333D01*
X81978666Y-124833095D01*
X81978666Y-124737857D01*
X82026285Y-124642619D01*
X82073904Y-124595000D01*
X82169142Y-124547380D01*
X82407238Y-124547380D01*
X82550095Y-124595000D01*
X82883428Y-124547380D02*
X83121523Y-125547380D01*
X83312000Y-124833095D01*
X83502476Y-125547380D01*
X83740571Y-124547380D01*
X84645333Y-125547380D02*
X84073904Y-125547380D01*
X84359619Y-125547380D02*
X84359619Y-124547380D01*
X84264380Y-124690238D01*
X84169142Y-124785476D01*
X84073904Y-124833095D01*
X105093642Y-109687880D02*
X104760309Y-109211690D01*
X104522214Y-109687880D02*
X104522214Y-108687880D01*
X104903166Y-108687880D01*
X104998404Y-108735500D01*
X105046023Y-108783119D01*
X105093642Y-108878357D01*
X105093642Y-109021214D01*
X105046023Y-109116452D01*
X104998404Y-109164071D01*
X104903166Y-109211690D01*
X104522214Y-109211690D01*
X105474595Y-108783119D02*
X105522214Y-108735500D01*
X105617452Y-108687880D01*
X105855547Y-108687880D01*
X105950785Y-108735500D01*
X105998404Y-108783119D01*
X106046023Y-108878357D01*
X106046023Y-108973595D01*
X105998404Y-109116452D01*
X105426976Y-109687880D01*
X106046023Y-109687880D01*
X106950785Y-108687880D02*
X106474595Y-108687880D01*
X106426976Y-109164071D01*
X106474595Y-109116452D01*
X106569833Y-109068833D01*
X106807928Y-109068833D01*
X106903166Y-109116452D01*
X106950785Y-109164071D01*
X106998404Y-109259309D01*
X106998404Y-109497404D01*
X106950785Y-109592642D01*
X106903166Y-109640261D01*
X106807928Y-109687880D01*
X106569833Y-109687880D01*
X106474595Y-109640261D01*
X106426976Y-109592642D01*
X105093642Y-107719380D02*
X104760309Y-107243190D01*
X104522214Y-107719380D02*
X104522214Y-106719380D01*
X104903166Y-106719380D01*
X104998404Y-106767000D01*
X105046023Y-106814619D01*
X105093642Y-106909857D01*
X105093642Y-107052714D01*
X105046023Y-107147952D01*
X104998404Y-107195571D01*
X104903166Y-107243190D01*
X104522214Y-107243190D01*
X105474595Y-106814619D02*
X105522214Y-106767000D01*
X105617452Y-106719380D01*
X105855547Y-106719380D01*
X105950785Y-106767000D01*
X105998404Y-106814619D01*
X106046023Y-106909857D01*
X106046023Y-107005095D01*
X105998404Y-107147952D01*
X105426976Y-107719380D01*
X106046023Y-107719380D01*
X106903166Y-107052714D02*
X106903166Y-107719380D01*
X106665071Y-106671761D02*
X106426976Y-107386047D01*
X107046023Y-107386047D01*
X98568880Y-119212857D02*
X98092690Y-119546190D01*
X98568880Y-119784285D02*
X97568880Y-119784285D01*
X97568880Y-119403333D01*
X97616500Y-119308095D01*
X97664119Y-119260476D01*
X97759357Y-119212857D01*
X97902214Y-119212857D01*
X97997452Y-119260476D01*
X98045071Y-119308095D01*
X98092690Y-119403333D01*
X98092690Y-119784285D01*
X97664119Y-118831904D02*
X97616500Y-118784285D01*
X97568880Y-118689047D01*
X97568880Y-118450952D01*
X97616500Y-118355714D01*
X97664119Y-118308095D01*
X97759357Y-118260476D01*
X97854595Y-118260476D01*
X97997452Y-118308095D01*
X98568880Y-118879523D01*
X98568880Y-118260476D01*
X97568880Y-117927142D02*
X97568880Y-117308095D01*
X97949833Y-117641428D01*
X97949833Y-117498571D01*
X97997452Y-117403333D01*
X98045071Y-117355714D01*
X98140309Y-117308095D01*
X98378404Y-117308095D01*
X98473642Y-117355714D01*
X98521261Y-117403333D01*
X98568880Y-117498571D01*
X98568880Y-117784285D01*
X98521261Y-117879523D01*
X98473642Y-117927142D01*
X96727380Y-119212857D02*
X96251190Y-119546190D01*
X96727380Y-119784285D02*
X95727380Y-119784285D01*
X95727380Y-119403333D01*
X95775000Y-119308095D01*
X95822619Y-119260476D01*
X95917857Y-119212857D01*
X96060714Y-119212857D01*
X96155952Y-119260476D01*
X96203571Y-119308095D01*
X96251190Y-119403333D01*
X96251190Y-119784285D01*
X95822619Y-118831904D02*
X95775000Y-118784285D01*
X95727380Y-118689047D01*
X95727380Y-118450952D01*
X95775000Y-118355714D01*
X95822619Y-118308095D01*
X95917857Y-118260476D01*
X96013095Y-118260476D01*
X96155952Y-118308095D01*
X96727380Y-118879523D01*
X96727380Y-118260476D01*
X95822619Y-117879523D02*
X95775000Y-117831904D01*
X95727380Y-117736666D01*
X95727380Y-117498571D01*
X95775000Y-117403333D01*
X95822619Y-117355714D01*
X95917857Y-117308095D01*
X96013095Y-117308095D01*
X96155952Y-117355714D01*
X96727380Y-117927142D01*
X96727380Y-117308095D01*
X110535714Y-107702380D02*
X110535714Y-106702380D01*
X110773809Y-106702380D01*
X110916666Y-106750000D01*
X111011904Y-106845238D01*
X111059523Y-106940476D01*
X111107142Y-107130952D01*
X111107142Y-107273809D01*
X111059523Y-107464285D01*
X111011904Y-107559523D01*
X110916666Y-107654761D01*
X110773809Y-107702380D01*
X110535714Y-107702380D01*
X111488095Y-106797619D02*
X111535714Y-106750000D01*
X111630952Y-106702380D01*
X111869047Y-106702380D01*
X111964285Y-106750000D01*
X112011904Y-106797619D01*
X112059523Y-106892857D01*
X112059523Y-106988095D01*
X112011904Y-107130952D01*
X111440476Y-107702380D01*
X112059523Y-107702380D01*
X113011904Y-107702380D02*
X112440476Y-107702380D01*
X112726190Y-107702380D02*
X112726190Y-106702380D01*
X112630952Y-106845238D01*
X112535714Y-106940476D01*
X112440476Y-106988095D01*
X110535714Y-109702380D02*
X110535714Y-108702380D01*
X110773809Y-108702380D01*
X110916666Y-108750000D01*
X111011904Y-108845238D01*
X111059523Y-108940476D01*
X111107142Y-109130952D01*
X111107142Y-109273809D01*
X111059523Y-109464285D01*
X111011904Y-109559523D01*
X110916666Y-109654761D01*
X110773809Y-109702380D01*
X110535714Y-109702380D01*
X111488095Y-108797619D02*
X111535714Y-108750000D01*
X111630952Y-108702380D01*
X111869047Y-108702380D01*
X111964285Y-108750000D01*
X112011904Y-108797619D01*
X112059523Y-108892857D01*
X112059523Y-108988095D01*
X112011904Y-109130952D01*
X111440476Y-109702380D01*
X112059523Y-109702380D01*
X112678571Y-108702380D02*
X112773809Y-108702380D01*
X112869047Y-108750000D01*
X112916666Y-108797619D01*
X112964285Y-108892857D01*
X113011904Y-109083333D01*
X113011904Y-109321428D01*
X112964285Y-109511904D01*
X112916666Y-109607142D01*
X112869047Y-109654761D01*
X112773809Y-109702380D01*
X112678571Y-109702380D01*
X112583333Y-109654761D01*
X112535714Y-109607142D01*
X112488095Y-109511904D01*
X112440476Y-109321428D01*
X112440476Y-109083333D01*
X112488095Y-108892857D01*
X112535714Y-108797619D01*
X112583333Y-108750000D01*
X112678571Y-108702380D01*
X98441880Y-125829285D02*
X97441880Y-125829285D01*
X97441880Y-125591190D01*
X97489500Y-125448333D01*
X97584738Y-125353095D01*
X97679976Y-125305476D01*
X97870452Y-125257857D01*
X98013309Y-125257857D01*
X98203785Y-125305476D01*
X98299023Y-125353095D01*
X98394261Y-125448333D01*
X98441880Y-125591190D01*
X98441880Y-125829285D01*
X98441880Y-124305476D02*
X98441880Y-124876904D01*
X98441880Y-124591190D02*
X97441880Y-124591190D01*
X97584738Y-124686428D01*
X97679976Y-124781666D01*
X97727595Y-124876904D01*
X98441880Y-123829285D02*
X98441880Y-123638809D01*
X98394261Y-123543571D01*
X98346642Y-123495952D01*
X98203785Y-123400714D01*
X98013309Y-123353095D01*
X97632357Y-123353095D01*
X97537119Y-123400714D01*
X97489500Y-123448333D01*
X97441880Y-123543571D01*
X97441880Y-123734047D01*
X97489500Y-123829285D01*
X97537119Y-123876904D01*
X97632357Y-123924523D01*
X97870452Y-123924523D01*
X97965690Y-123876904D01*
X98013309Y-123829285D01*
X98060928Y-123734047D01*
X98060928Y-123543571D01*
X98013309Y-123448333D01*
X97965690Y-123400714D01*
X97870452Y-123353095D01*
X96702380Y-125829285D02*
X95702380Y-125829285D01*
X95702380Y-125591190D01*
X95750000Y-125448333D01*
X95845238Y-125353095D01*
X95940476Y-125305476D01*
X96130952Y-125257857D01*
X96273809Y-125257857D01*
X96464285Y-125305476D01*
X96559523Y-125353095D01*
X96654761Y-125448333D01*
X96702380Y-125591190D01*
X96702380Y-125829285D01*
X96702380Y-124305476D02*
X96702380Y-124876904D01*
X96702380Y-124591190D02*
X95702380Y-124591190D01*
X95845238Y-124686428D01*
X95940476Y-124781666D01*
X95988095Y-124876904D01*
X96130952Y-123734047D02*
X96083333Y-123829285D01*
X96035714Y-123876904D01*
X95940476Y-123924523D01*
X95892857Y-123924523D01*
X95797619Y-123876904D01*
X95750000Y-123829285D01*
X95702380Y-123734047D01*
X95702380Y-123543571D01*
X95750000Y-123448333D01*
X95797619Y-123400714D01*
X95892857Y-123353095D01*
X95940476Y-123353095D01*
X96035714Y-123400714D01*
X96083333Y-123448333D01*
X96130952Y-123543571D01*
X96130952Y-123734047D01*
X96178571Y-123829285D01*
X96226190Y-123876904D01*
X96321428Y-123924523D01*
X96511904Y-123924523D01*
X96607142Y-123876904D01*
X96654761Y-123829285D01*
X96702380Y-123734047D01*
X96702380Y-123543571D01*
X96654761Y-123448333D01*
X96607142Y-123400714D01*
X96511904Y-123353095D01*
X96321428Y-123353095D01*
X96226190Y-123400714D01*
X96178571Y-123448333D01*
X96130952Y-123543571D01*
X68667380Y-121332523D02*
X69381666Y-121332523D01*
X69524523Y-121380142D01*
X69619761Y-121475380D01*
X69667380Y-121618238D01*
X69667380Y-121713476D01*
X69667380Y-120332523D02*
X69667380Y-120903952D01*
X69667380Y-120618238D02*
X68667380Y-120618238D01*
X68810238Y-120713476D01*
X68905476Y-120808714D01*
X68953095Y-120903952D01*
X68667380Y-119999190D02*
X68667380Y-119332523D01*
X69667380Y-119761095D01*
X114650380Y-121157523D02*
X115364666Y-121157523D01*
X115507523Y-121205142D01*
X115602761Y-121300380D01*
X115650380Y-121443238D01*
X115650380Y-121538476D01*
X115650380Y-120157523D02*
X115650380Y-120728952D01*
X115650380Y-120443238D02*
X114650380Y-120443238D01*
X114793238Y-120538476D01*
X114888476Y-120633714D01*
X114936095Y-120728952D01*
X114650380Y-119300380D02*
X114650380Y-119490857D01*
X114698000Y-119586095D01*
X114745619Y-119633714D01*
X114888476Y-119728952D01*
X115078952Y-119776571D01*
X115459904Y-119776571D01*
X115555142Y-119728952D01*
X115602761Y-119681333D01*
X115650380Y-119586095D01*
X115650380Y-119395619D01*
X115602761Y-119300380D01*
X115555142Y-119252761D01*
X115459904Y-119205142D01*
X115221809Y-119205142D01*
X115126571Y-119252761D01*
X115078952Y-119300380D01*
X115031333Y-119395619D01*
X115031333Y-119586095D01*
X115078952Y-119681333D01*
X115126571Y-119728952D01*
X115221809Y-119776571D01*
X110323380Y-104949523D02*
X111037666Y-104949523D01*
X111180523Y-104997142D01*
X111275761Y-105092380D01*
X111323380Y-105235238D01*
X111323380Y-105330476D01*
X111323380Y-103949523D02*
X111323380Y-104520952D01*
X111323380Y-104235238D02*
X110323380Y-104235238D01*
X110466238Y-104330476D01*
X110561476Y-104425714D01*
X110609095Y-104520952D01*
X111323380Y-103473333D02*
X111323380Y-103282857D01*
X111275761Y-103187619D01*
X111228142Y-103140000D01*
X111085285Y-103044761D01*
X110894809Y-102997142D01*
X110513857Y-102997142D01*
X110418619Y-103044761D01*
X110371000Y-103092380D01*
X110323380Y-103187619D01*
X110323380Y-103378095D01*
X110371000Y-103473333D01*
X110418619Y-103520952D01*
X110513857Y-103568571D01*
X110751952Y-103568571D01*
X110847190Y-103520952D01*
X110894809Y-103473333D01*
X110942428Y-103378095D01*
X110942428Y-103187619D01*
X110894809Y-103092380D01*
X110847190Y-103044761D01*
X110751952Y-102997142D01*
X68794380Y-97456523D02*
X69508666Y-97456523D01*
X69651523Y-97504142D01*
X69746761Y-97599380D01*
X69794380Y-97742238D01*
X69794380Y-97837476D01*
X69794380Y-96456523D02*
X69794380Y-97027952D01*
X69794380Y-96742238D02*
X68794380Y-96742238D01*
X68937238Y-96837476D01*
X69032476Y-96932714D01*
X69080095Y-97027952D01*
X69222952Y-95885095D02*
X69175333Y-95980333D01*
X69127714Y-96027952D01*
X69032476Y-96075571D01*
X68984857Y-96075571D01*
X68889619Y-96027952D01*
X68842000Y-95980333D01*
X68794380Y-95885095D01*
X68794380Y-95694619D01*
X68842000Y-95599380D01*
X68889619Y-95551761D01*
X68984857Y-95504142D01*
X69032476Y-95504142D01*
X69127714Y-95551761D01*
X69175333Y-95599380D01*
X69222952Y-95694619D01*
X69222952Y-95885095D01*
X69270571Y-95980333D01*
X69318190Y-96027952D01*
X69413428Y-96075571D01*
X69603904Y-96075571D01*
X69699142Y-96027952D01*
X69746761Y-95980333D01*
X69794380Y-95885095D01*
X69794380Y-95694619D01*
X69746761Y-95599380D01*
X69699142Y-95551761D01*
X69603904Y-95504142D01*
X69413428Y-95504142D01*
X69318190Y-95551761D01*
X69270571Y-95599380D01*
X69222952Y-95694619D01*
X167190476Y-117312380D02*
X167190476Y-118026666D01*
X167142857Y-118169523D01*
X167047619Y-118264761D01*
X166904761Y-118312380D01*
X166809523Y-118312380D01*
X168190476Y-118312380D02*
X167619047Y-118312380D01*
X167904761Y-118312380D02*
X167904761Y-117312380D01*
X167809523Y-117455238D01*
X167714285Y-117550476D01*
X167619047Y-117598095D01*
X169095238Y-117312380D02*
X168619047Y-117312380D01*
X168571428Y-117788571D01*
X168619047Y-117740952D01*
X168714285Y-117693333D01*
X168952380Y-117693333D01*
X169047619Y-117740952D01*
X169095238Y-117788571D01*
X169142857Y-117883809D01*
X169142857Y-118121904D01*
X169095238Y-118217142D01*
X169047619Y-118264761D01*
X168952380Y-118312380D01*
X168714285Y-118312380D01*
X168619047Y-118264761D01*
X168571428Y-118217142D01*
X121190476Y-117312380D02*
X121190476Y-118026666D01*
X121142857Y-118169523D01*
X121047619Y-118264761D01*
X120904761Y-118312380D01*
X120809523Y-118312380D01*
X122190476Y-118312380D02*
X121619047Y-118312380D01*
X121904761Y-118312380D02*
X121904761Y-117312380D01*
X121809523Y-117455238D01*
X121714285Y-117550476D01*
X121619047Y-117598095D01*
X123047619Y-117645714D02*
X123047619Y-118312380D01*
X122809523Y-117264761D02*
X122571428Y-117979047D01*
X123190476Y-117979047D01*
X121190476Y-98852380D02*
X121190476Y-99566666D01*
X121142857Y-99709523D01*
X121047619Y-99804761D01*
X120904761Y-99852380D01*
X120809523Y-99852380D01*
X122190476Y-99852380D02*
X121619047Y-99852380D01*
X121904761Y-99852380D02*
X121904761Y-98852380D01*
X121809523Y-98995238D01*
X121714285Y-99090476D01*
X121619047Y-99138095D01*
X122523809Y-98852380D02*
X123142857Y-98852380D01*
X122809523Y-99233333D01*
X122952380Y-99233333D01*
X123047619Y-99280952D01*
X123095238Y-99328571D01*
X123142857Y-99423809D01*
X123142857Y-99661904D01*
X123095238Y-99757142D01*
X123047619Y-99804761D01*
X122952380Y-99852380D01*
X122666666Y-99852380D01*
X122571428Y-99804761D01*
X122523809Y-99757142D01*
X167190476Y-93852380D02*
X167190476Y-94566666D01*
X167142857Y-94709523D01*
X167047619Y-94804761D01*
X166904761Y-94852380D01*
X166809523Y-94852380D01*
X168190476Y-94852380D02*
X167619047Y-94852380D01*
X167904761Y-94852380D02*
X167904761Y-93852380D01*
X167809523Y-93995238D01*
X167714285Y-94090476D01*
X167619047Y-94138095D01*
X168571428Y-93947619D02*
X168619047Y-93900000D01*
X168714285Y-93852380D01*
X168952380Y-93852380D01*
X169047619Y-93900000D01*
X169095238Y-93947619D01*
X169142857Y-94042857D01*
X169142857Y-94138095D01*
X169095238Y-94280952D01*
X168523809Y-94852380D01*
X169142857Y-94852380D01*
X126969380Y-123522904D02*
X127778904Y-123522904D01*
X127874142Y-123475285D01*
X127921761Y-123427666D01*
X127969380Y-123332428D01*
X127969380Y-123141952D01*
X127921761Y-123046714D01*
X127874142Y-122999095D01*
X127778904Y-122951476D01*
X126969380Y-122951476D01*
X126969380Y-122570523D02*
X126969380Y-121951476D01*
X127350333Y-122284809D01*
X127350333Y-122141952D01*
X127397952Y-122046714D01*
X127445571Y-121999095D01*
X127540809Y-121951476D01*
X127778904Y-121951476D01*
X127874142Y-121999095D01*
X127921761Y-122046714D01*
X127969380Y-122141952D01*
X127969380Y-122427666D01*
X127921761Y-122522904D01*
X127874142Y-122570523D01*
X139669380Y-123522904D02*
X140478904Y-123522904D01*
X140574142Y-123475285D01*
X140621761Y-123427666D01*
X140669380Y-123332428D01*
X140669380Y-123141952D01*
X140621761Y-123046714D01*
X140574142Y-122999095D01*
X140478904Y-122951476D01*
X139669380Y-122951476D01*
X139764619Y-122522904D02*
X139717000Y-122475285D01*
X139669380Y-122380047D01*
X139669380Y-122141952D01*
X139717000Y-122046714D01*
X139764619Y-121999095D01*
X139859857Y-121951476D01*
X139955095Y-121951476D01*
X140097952Y-121999095D01*
X140669380Y-122570523D01*
X140669380Y-121951476D01*
X136859380Y-118958857D02*
X136383190Y-119292190D01*
X136859380Y-119530285D02*
X135859380Y-119530285D01*
X135859380Y-119149333D01*
X135907000Y-119054095D01*
X135954619Y-119006476D01*
X136049857Y-118958857D01*
X136192714Y-118958857D01*
X136287952Y-119006476D01*
X136335571Y-119054095D01*
X136383190Y-119149333D01*
X136383190Y-119530285D01*
X136859380Y-118006476D02*
X136859380Y-118577904D01*
X136859380Y-118292190D02*
X135859380Y-118292190D01*
X136002238Y-118387428D01*
X136097476Y-118482666D01*
X136145095Y-118577904D01*
X136287952Y-117435047D02*
X136240333Y-117530285D01*
X136192714Y-117577904D01*
X136097476Y-117625523D01*
X136049857Y-117625523D01*
X135954619Y-117577904D01*
X135907000Y-117530285D01*
X135859380Y-117435047D01*
X135859380Y-117244571D01*
X135907000Y-117149333D01*
X135954619Y-117101714D01*
X136049857Y-117054095D01*
X136097476Y-117054095D01*
X136192714Y-117101714D01*
X136240333Y-117149333D01*
X136287952Y-117244571D01*
X136287952Y-117435047D01*
X136335571Y-117530285D01*
X136383190Y-117577904D01*
X136478428Y-117625523D01*
X136668904Y-117625523D01*
X136764142Y-117577904D01*
X136811761Y-117530285D01*
X136859380Y-117435047D01*
X136859380Y-117244571D01*
X136811761Y-117149333D01*
X136764142Y-117101714D01*
X136668904Y-117054095D01*
X136478428Y-117054095D01*
X136383190Y-117101714D01*
X136335571Y-117149333D01*
X136287952Y-117244571D01*
X149559380Y-118958857D02*
X149083190Y-119292190D01*
X149559380Y-119530285D02*
X148559380Y-119530285D01*
X148559380Y-119149333D01*
X148607000Y-119054095D01*
X148654619Y-119006476D01*
X148749857Y-118958857D01*
X148892714Y-118958857D01*
X148987952Y-119006476D01*
X149035571Y-119054095D01*
X149083190Y-119149333D01*
X149083190Y-119530285D01*
X149559380Y-118006476D02*
X149559380Y-118577904D01*
X149559380Y-118292190D02*
X148559380Y-118292190D01*
X148702238Y-118387428D01*
X148797476Y-118482666D01*
X148845095Y-118577904D01*
X148559380Y-117673142D02*
X148559380Y-117006476D01*
X149559380Y-117435047D01*
X121095714Y-107719380D02*
X121095714Y-106719380D01*
X121333809Y-106719380D01*
X121476666Y-106767000D01*
X121571904Y-106862238D01*
X121619523Y-106957476D01*
X121667142Y-107147952D01*
X121667142Y-107290809D01*
X121619523Y-107481285D01*
X121571904Y-107576523D01*
X121476666Y-107671761D01*
X121333809Y-107719380D01*
X121095714Y-107719380D01*
X122619523Y-107719380D02*
X122048095Y-107719380D01*
X122333809Y-107719380D02*
X122333809Y-106719380D01*
X122238571Y-106862238D01*
X122143333Y-106957476D01*
X122048095Y-107005095D01*
X123476666Y-106719380D02*
X123286190Y-106719380D01*
X123190952Y-106767000D01*
X123143333Y-106814619D01*
X123048095Y-106957476D01*
X123000476Y-107147952D01*
X123000476Y-107528904D01*
X123048095Y-107624142D01*
X123095714Y-107671761D01*
X123190952Y-107719380D01*
X123381428Y-107719380D01*
X123476666Y-107671761D01*
X123524285Y-107624142D01*
X123571904Y-107528904D01*
X123571904Y-107290809D01*
X123524285Y-107195571D01*
X123476666Y-107147952D01*
X123381428Y-107100333D01*
X123190952Y-107100333D01*
X123095714Y-107147952D01*
X123048095Y-107195571D01*
X123000476Y-107290809D01*
X125035714Y-96852380D02*
X125035714Y-95852380D01*
X125273809Y-95852380D01*
X125416666Y-95900000D01*
X125511904Y-95995238D01*
X125559523Y-96090476D01*
X125607142Y-96280952D01*
X125607142Y-96423809D01*
X125559523Y-96614285D01*
X125511904Y-96709523D01*
X125416666Y-96804761D01*
X125273809Y-96852380D01*
X125035714Y-96852380D01*
X126559523Y-96852380D02*
X125988095Y-96852380D01*
X126273809Y-96852380D02*
X126273809Y-95852380D01*
X126178571Y-95995238D01*
X126083333Y-96090476D01*
X125988095Y-96138095D01*
X127464285Y-95852380D02*
X126988095Y-95852380D01*
X126940476Y-96328571D01*
X126988095Y-96280952D01*
X127083333Y-96233333D01*
X127321428Y-96233333D01*
X127416666Y-96280952D01*
X127464285Y-96328571D01*
X127511904Y-96423809D01*
X127511904Y-96661904D01*
X127464285Y-96757142D01*
X127416666Y-96804761D01*
X127321428Y-96852380D01*
X127083333Y-96852380D01*
X126988095Y-96804761D01*
X126940476Y-96757142D01*
X124985714Y-94052380D02*
X124985714Y-93052380D01*
X125223809Y-93052380D01*
X125366666Y-93100000D01*
X125461904Y-93195238D01*
X125509523Y-93290476D01*
X125557142Y-93480952D01*
X125557142Y-93623809D01*
X125509523Y-93814285D01*
X125461904Y-93909523D01*
X125366666Y-94004761D01*
X125223809Y-94052380D01*
X124985714Y-94052380D01*
X126509523Y-94052380D02*
X125938095Y-94052380D01*
X126223809Y-94052380D02*
X126223809Y-93052380D01*
X126128571Y-93195238D01*
X126033333Y-93290476D01*
X125938095Y-93338095D01*
X127366666Y-93385714D02*
X127366666Y-94052380D01*
X127128571Y-93004761D02*
X126890476Y-93719047D01*
X127509523Y-93719047D01*
X124985714Y-91352380D02*
X124985714Y-90352380D01*
X125223809Y-90352380D01*
X125366666Y-90400000D01*
X125461904Y-90495238D01*
X125509523Y-90590476D01*
X125557142Y-90780952D01*
X125557142Y-90923809D01*
X125509523Y-91114285D01*
X125461904Y-91209523D01*
X125366666Y-91304761D01*
X125223809Y-91352380D01*
X124985714Y-91352380D01*
X126509523Y-91352380D02*
X125938095Y-91352380D01*
X126223809Y-91352380D02*
X126223809Y-90352380D01*
X126128571Y-90495238D01*
X126033333Y-90590476D01*
X125938095Y-90638095D01*
X126842857Y-90352380D02*
X127461904Y-90352380D01*
X127128571Y-90733333D01*
X127271428Y-90733333D01*
X127366666Y-90780952D01*
X127414285Y-90828571D01*
X127461904Y-90923809D01*
X127461904Y-91161904D01*
X127414285Y-91257142D01*
X127366666Y-91304761D01*
X127271428Y-91352380D01*
X126985714Y-91352380D01*
X126890476Y-91304761D01*
X126842857Y-91257142D01*
X124985714Y-88552380D02*
X124985714Y-87552380D01*
X125223809Y-87552380D01*
X125366666Y-87600000D01*
X125461904Y-87695238D01*
X125509523Y-87790476D01*
X125557142Y-87980952D01*
X125557142Y-88123809D01*
X125509523Y-88314285D01*
X125461904Y-88409523D01*
X125366666Y-88504761D01*
X125223809Y-88552380D01*
X124985714Y-88552380D01*
X126509523Y-88552380D02*
X125938095Y-88552380D01*
X126223809Y-88552380D02*
X126223809Y-87552380D01*
X126128571Y-87695238D01*
X126033333Y-87790476D01*
X125938095Y-87838095D01*
X126890476Y-87647619D02*
X126938095Y-87600000D01*
X127033333Y-87552380D01*
X127271428Y-87552380D01*
X127366666Y-87600000D01*
X127414285Y-87647619D01*
X127461904Y-87742857D01*
X127461904Y-87838095D01*
X127414285Y-87980952D01*
X126842857Y-88552380D01*
X127461904Y-88552380D01*
X124985714Y-85752380D02*
X124985714Y-84752380D01*
X125223809Y-84752380D01*
X125366666Y-84800000D01*
X125461904Y-84895238D01*
X125509523Y-84990476D01*
X125557142Y-85180952D01*
X125557142Y-85323809D01*
X125509523Y-85514285D01*
X125461904Y-85609523D01*
X125366666Y-85704761D01*
X125223809Y-85752380D01*
X124985714Y-85752380D01*
X126509523Y-85752380D02*
X125938095Y-85752380D01*
X126223809Y-85752380D02*
X126223809Y-84752380D01*
X126128571Y-84895238D01*
X126033333Y-84990476D01*
X125938095Y-85038095D01*
X127461904Y-85752380D02*
X126890476Y-85752380D01*
X127176190Y-85752380D02*
X127176190Y-84752380D01*
X127080952Y-84895238D01*
X126985714Y-84990476D01*
X126890476Y-85038095D01*
X124978714Y-83189380D02*
X124978714Y-82189380D01*
X125216809Y-82189380D01*
X125359666Y-82237000D01*
X125454904Y-82332238D01*
X125502523Y-82427476D01*
X125550142Y-82617952D01*
X125550142Y-82760809D01*
X125502523Y-82951285D01*
X125454904Y-83046523D01*
X125359666Y-83141761D01*
X125216809Y-83189380D01*
X124978714Y-83189380D01*
X126502523Y-83189380D02*
X125931095Y-83189380D01*
X126216809Y-83189380D02*
X126216809Y-82189380D01*
X126121571Y-82332238D01*
X126026333Y-82427476D01*
X125931095Y-82475095D01*
X127121571Y-82189380D02*
X127216809Y-82189380D01*
X127312047Y-82237000D01*
X127359666Y-82284619D01*
X127407285Y-82379857D01*
X127454904Y-82570333D01*
X127454904Y-82808428D01*
X127407285Y-82998904D01*
X127359666Y-83094142D01*
X127312047Y-83141761D01*
X127216809Y-83189380D01*
X127121571Y-83189380D01*
X127026333Y-83141761D01*
X126978714Y-83094142D01*
X126931095Y-82998904D01*
X126883476Y-82808428D01*
X126883476Y-82570333D01*
X126931095Y-82379857D01*
X126978714Y-82284619D01*
X127026333Y-82237000D01*
X127121571Y-82189380D01*
X139161904Y-77452380D02*
X139161904Y-76452380D01*
X139400000Y-76452380D01*
X139542857Y-76500000D01*
X139638095Y-76595238D01*
X139685714Y-76690476D01*
X139733333Y-76880952D01*
X139733333Y-77023809D01*
X139685714Y-77214285D01*
X139638095Y-77309523D01*
X139542857Y-77404761D01*
X139400000Y-77452380D01*
X139161904Y-77452380D01*
X140209523Y-77452380D02*
X140400000Y-77452380D01*
X140495238Y-77404761D01*
X140542857Y-77357142D01*
X140638095Y-77214285D01*
X140685714Y-77023809D01*
X140685714Y-76642857D01*
X140638095Y-76547619D01*
X140590476Y-76500000D01*
X140495238Y-76452380D01*
X140304761Y-76452380D01*
X140209523Y-76500000D01*
X140161904Y-76547619D01*
X140114285Y-76642857D01*
X140114285Y-76880952D01*
X140161904Y-76976190D01*
X140209523Y-77023809D01*
X140304761Y-77071428D01*
X140495238Y-77071428D01*
X140590476Y-77023809D01*
X140638095Y-76976190D01*
X140685714Y-76880952D01*
X139161904Y-73552380D02*
X139161904Y-72552380D01*
X139400000Y-72552380D01*
X139542857Y-72600000D01*
X139638095Y-72695238D01*
X139685714Y-72790476D01*
X139733333Y-72980952D01*
X139733333Y-73123809D01*
X139685714Y-73314285D01*
X139638095Y-73409523D01*
X139542857Y-73504761D01*
X139400000Y-73552380D01*
X139161904Y-73552380D01*
X140304761Y-72980952D02*
X140209523Y-72933333D01*
X140161904Y-72885714D01*
X140114285Y-72790476D01*
X140114285Y-72742857D01*
X140161904Y-72647619D01*
X140209523Y-72600000D01*
X140304761Y-72552380D01*
X140495238Y-72552380D01*
X140590476Y-72600000D01*
X140638095Y-72647619D01*
X140685714Y-72742857D01*
X140685714Y-72790476D01*
X140638095Y-72885714D01*
X140590476Y-72933333D01*
X140495238Y-72980952D01*
X140304761Y-72980952D01*
X140209523Y-73028571D01*
X140161904Y-73076190D01*
X140114285Y-73171428D01*
X140114285Y-73361904D01*
X140161904Y-73457142D01*
X140209523Y-73504761D01*
X140304761Y-73552380D01*
X140495238Y-73552380D01*
X140590476Y-73504761D01*
X140638095Y-73457142D01*
X140685714Y-73361904D01*
X140685714Y-73171428D01*
X140638095Y-73076190D01*
X140590476Y-73028571D01*
X140495238Y-72980952D01*
X125002380Y-77438095D02*
X124002380Y-77438095D01*
X124002380Y-77200000D01*
X124050000Y-77057142D01*
X124145238Y-76961904D01*
X124240476Y-76914285D01*
X124430952Y-76866666D01*
X124573809Y-76866666D01*
X124764285Y-76914285D01*
X124859523Y-76961904D01*
X124954761Y-77057142D01*
X125002380Y-77200000D01*
X125002380Y-77438095D01*
X124002380Y-76533333D02*
X124002380Y-75866666D01*
X125002380Y-76295238D01*
X150002380Y-77438095D02*
X149002380Y-77438095D01*
X149002380Y-77200000D01*
X149050000Y-77057142D01*
X149145238Y-76961904D01*
X149240476Y-76914285D01*
X149430952Y-76866666D01*
X149573809Y-76866666D01*
X149764285Y-76914285D01*
X149859523Y-76961904D01*
X149954761Y-77057142D01*
X150002380Y-77200000D01*
X150002380Y-77438095D01*
X149002380Y-76009523D02*
X149002380Y-76200000D01*
X149050000Y-76295238D01*
X149097619Y-76342857D01*
X149240476Y-76438095D01*
X149430952Y-76485714D01*
X149811904Y-76485714D01*
X149907142Y-76438095D01*
X149954761Y-76390476D01*
X150002380Y-76295238D01*
X150002380Y-76104761D01*
X149954761Y-76009523D01*
X149907142Y-75961904D01*
X149811904Y-75914285D01*
X149573809Y-75914285D01*
X149478571Y-75961904D01*
X149430952Y-76009523D01*
X149383333Y-76104761D01*
X149383333Y-76295238D01*
X149430952Y-76390476D01*
X149478571Y-76438095D01*
X149573809Y-76485714D01*
X162502380Y-77438095D02*
X161502380Y-77438095D01*
X161502380Y-77200000D01*
X161550000Y-77057142D01*
X161645238Y-76961904D01*
X161740476Y-76914285D01*
X161930952Y-76866666D01*
X162073809Y-76866666D01*
X162264285Y-76914285D01*
X162359523Y-76961904D01*
X162454761Y-77057142D01*
X162502380Y-77200000D01*
X162502380Y-77438095D01*
X161502380Y-75961904D02*
X161502380Y-76438095D01*
X161978571Y-76485714D01*
X161930952Y-76438095D01*
X161883333Y-76342857D01*
X161883333Y-76104761D01*
X161930952Y-76009523D01*
X161978571Y-75961904D01*
X162073809Y-75914285D01*
X162311904Y-75914285D01*
X162407142Y-75961904D01*
X162454761Y-76009523D01*
X162502380Y-76104761D01*
X162502380Y-76342857D01*
X162454761Y-76438095D01*
X162407142Y-76485714D01*
X138542142Y-124197666D02*
X138589761Y-124245285D01*
X138637380Y-124388142D01*
X138637380Y-124483380D01*
X138589761Y-124626238D01*
X138494523Y-124721476D01*
X138399285Y-124769095D01*
X138208809Y-124816714D01*
X138065952Y-124816714D01*
X137875476Y-124769095D01*
X137780238Y-124721476D01*
X137685000Y-124626238D01*
X137637380Y-124483380D01*
X137637380Y-124388142D01*
X137685000Y-124245285D01*
X137732619Y-124197666D01*
X137637380Y-123340523D02*
X137637380Y-123531000D01*
X137685000Y-123626238D01*
X137732619Y-123673857D01*
X137875476Y-123769095D01*
X138065952Y-123816714D01*
X138446904Y-123816714D01*
X138542142Y-123769095D01*
X138589761Y-123721476D01*
X138637380Y-123626238D01*
X138637380Y-123435761D01*
X138589761Y-123340523D01*
X138542142Y-123292904D01*
X138446904Y-123245285D01*
X138208809Y-123245285D01*
X138113571Y-123292904D01*
X138065952Y-123340523D01*
X138018333Y-123435761D01*
X138018333Y-123626238D01*
X138065952Y-123721476D01*
X138113571Y-123769095D01*
X138208809Y-123816714D01*
X149337142Y-123943666D02*
X149384761Y-123991285D01*
X149432380Y-124134142D01*
X149432380Y-124229380D01*
X149384761Y-124372238D01*
X149289523Y-124467476D01*
X149194285Y-124515095D01*
X149003809Y-124562714D01*
X148860952Y-124562714D01*
X148670476Y-124515095D01*
X148575238Y-124467476D01*
X148480000Y-124372238D01*
X148432380Y-124229380D01*
X148432380Y-124134142D01*
X148480000Y-123991285D01*
X148527619Y-123943666D01*
X148432380Y-123038904D02*
X148432380Y-123515095D01*
X148908571Y-123562714D01*
X148860952Y-123515095D01*
X148813333Y-123419857D01*
X148813333Y-123181761D01*
X148860952Y-123086523D01*
X148908571Y-123038904D01*
X149003809Y-122991285D01*
X149241904Y-122991285D01*
X149337142Y-123038904D01*
X149384761Y-123086523D01*
X149432380Y-123181761D01*
X149432380Y-123419857D01*
X149384761Y-123515095D01*
X149337142Y-123562714D01*
X136764142Y-124197666D02*
X136811761Y-124245285D01*
X136859380Y-124388142D01*
X136859380Y-124483380D01*
X136811761Y-124626238D01*
X136716523Y-124721476D01*
X136621285Y-124769095D01*
X136430809Y-124816714D01*
X136287952Y-124816714D01*
X136097476Y-124769095D01*
X136002238Y-124721476D01*
X135907000Y-124626238D01*
X135859380Y-124483380D01*
X135859380Y-124388142D01*
X135907000Y-124245285D01*
X135954619Y-124197666D01*
X136192714Y-123340523D02*
X136859380Y-123340523D01*
X135811761Y-123578619D02*
X136526047Y-123816714D01*
X136526047Y-123197666D01*
X151115142Y-123943666D02*
X151162761Y-123991285D01*
X151210380Y-124134142D01*
X151210380Y-124229380D01*
X151162761Y-124372238D01*
X151067523Y-124467476D01*
X150972285Y-124515095D01*
X150781809Y-124562714D01*
X150638952Y-124562714D01*
X150448476Y-124515095D01*
X150353238Y-124467476D01*
X150258000Y-124372238D01*
X150210380Y-124229380D01*
X150210380Y-124134142D01*
X150258000Y-123991285D01*
X150305619Y-123943666D01*
X150210380Y-123610333D02*
X150210380Y-122991285D01*
X150591333Y-123324619D01*
X150591333Y-123181761D01*
X150638952Y-123086523D01*
X150686571Y-123038904D01*
X150781809Y-122991285D01*
X151019904Y-122991285D01*
X151115142Y-123038904D01*
X151162761Y-123086523D01*
X151210380Y-123181761D01*
X151210380Y-123467476D01*
X151162761Y-123562714D01*
X151115142Y-123610333D01*
X162502380Y-64438095D02*
X161502380Y-64438095D01*
X161502380Y-64200000D01*
X161550000Y-64057142D01*
X161645238Y-63961904D01*
X161740476Y-63914285D01*
X161930952Y-63866666D01*
X162073809Y-63866666D01*
X162264285Y-63914285D01*
X162359523Y-63961904D01*
X162454761Y-64057142D01*
X162502380Y-64200000D01*
X162502380Y-64438095D01*
X161835714Y-63009523D02*
X162502380Y-63009523D01*
X161454761Y-63247619D02*
X162169047Y-63485714D01*
X162169047Y-62866666D01*
X150002380Y-64438095D02*
X149002380Y-64438095D01*
X149002380Y-64200000D01*
X149050000Y-64057142D01*
X149145238Y-63961904D01*
X149240476Y-63914285D01*
X149430952Y-63866666D01*
X149573809Y-63866666D01*
X149764285Y-63914285D01*
X149859523Y-63961904D01*
X149954761Y-64057142D01*
X150002380Y-64200000D01*
X150002380Y-64438095D01*
X149002380Y-63533333D02*
X149002380Y-62914285D01*
X149383333Y-63247619D01*
X149383333Y-63104761D01*
X149430952Y-63009523D01*
X149478571Y-62961904D01*
X149573809Y-62914285D01*
X149811904Y-62914285D01*
X149907142Y-62961904D01*
X149954761Y-63009523D01*
X150002380Y-63104761D01*
X150002380Y-63390476D01*
X149954761Y-63485714D01*
X149907142Y-63533333D01*
X137502380Y-64438095D02*
X136502380Y-64438095D01*
X136502380Y-64200000D01*
X136550000Y-64057142D01*
X136645238Y-63961904D01*
X136740476Y-63914285D01*
X136930952Y-63866666D01*
X137073809Y-63866666D01*
X137264285Y-63914285D01*
X137359523Y-63961904D01*
X137454761Y-64057142D01*
X137502380Y-64200000D01*
X137502380Y-64438095D01*
X136597619Y-63485714D02*
X136550000Y-63438095D01*
X136502380Y-63342857D01*
X136502380Y-63104761D01*
X136550000Y-63009523D01*
X136597619Y-62961904D01*
X136692857Y-62914285D01*
X136788095Y-62914285D01*
X136930952Y-62961904D01*
X137502380Y-63533333D01*
X137502380Y-62914285D01*
X69810380Y-124634523D02*
X70524666Y-124634523D01*
X70667523Y-124682142D01*
X70762761Y-124777380D01*
X70810380Y-124920238D01*
X70810380Y-125015476D01*
X70810380Y-123634523D02*
X70810380Y-124205952D01*
X70810380Y-123920238D02*
X69810380Y-123920238D01*
X69953238Y-124015476D01*
X70048476Y-124110714D01*
X70096095Y-124205952D01*
X70810380Y-122682142D02*
X70810380Y-123253571D01*
X70810380Y-122967857D02*
X69810380Y-122967857D01*
X69953238Y-123063095D01*
X70048476Y-123158333D01*
X70096095Y-123253571D01*
X125002380Y-64438095D02*
X124002380Y-64438095D01*
X124002380Y-64200000D01*
X124050000Y-64057142D01*
X124145238Y-63961904D01*
X124240476Y-63914285D01*
X124430952Y-63866666D01*
X124573809Y-63866666D01*
X124764285Y-63914285D01*
X124859523Y-63961904D01*
X124954761Y-64057142D01*
X125002380Y-64200000D01*
X125002380Y-64438095D01*
X125002380Y-62914285D02*
X125002380Y-63485714D01*
X125002380Y-63200000D02*
X124002380Y-63200000D01*
X124145238Y-63295238D01*
X124240476Y-63390476D01*
X124288095Y-63485714D01*
X64008095Y-116165380D02*
X64008095Y-116974904D01*
X64055714Y-117070142D01*
X64103333Y-117117761D01*
X64198571Y-117165380D01*
X64389047Y-117165380D01*
X64484285Y-117117761D01*
X64531904Y-117070142D01*
X64579523Y-116974904D01*
X64579523Y-116165380D01*
X64960476Y-116165380D02*
X65627142Y-116165380D01*
X65198571Y-117165380D01*
X83448095Y-98591380D02*
X83448095Y-99400904D01*
X83495714Y-99496142D01*
X83543333Y-99543761D01*
X83638571Y-99591380D01*
X83829047Y-99591380D01*
X83924285Y-99543761D01*
X83971904Y-99496142D01*
X84019523Y-99400904D01*
X84019523Y-98591380D01*
X84971904Y-98591380D02*
X84495714Y-98591380D01*
X84448095Y-99067571D01*
X84495714Y-99019952D01*
X84590952Y-98972333D01*
X84829047Y-98972333D01*
X84924285Y-99019952D01*
X84971904Y-99067571D01*
X85019523Y-99162809D01*
X85019523Y-99400904D01*
X84971904Y-99496142D01*
X84924285Y-99543761D01*
X84829047Y-99591380D01*
X84590952Y-99591380D01*
X84495714Y-99543761D01*
X84448095Y-99496142D01*
X92846095Y-98591380D02*
X92846095Y-99400904D01*
X92893714Y-99496142D01*
X92941333Y-99543761D01*
X93036571Y-99591380D01*
X93227047Y-99591380D01*
X93322285Y-99543761D01*
X93369904Y-99496142D01*
X93417523Y-99400904D01*
X93417523Y-98591380D01*
X94322285Y-98924714D02*
X94322285Y-99591380D01*
X94084190Y-98543761D02*
X93846095Y-99258047D01*
X94465142Y-99258047D01*
X162665380Y-103719904D02*
X163474904Y-103719904D01*
X163570142Y-103672285D01*
X163617761Y-103624666D01*
X163665380Y-103529428D01*
X163665380Y-103338952D01*
X163617761Y-103243714D01*
X163570142Y-103196095D01*
X163474904Y-103148476D01*
X162665380Y-103148476D01*
X163665380Y-102148476D02*
X163665380Y-102719904D01*
X163665380Y-102434190D02*
X162665380Y-102434190D01*
X162808238Y-102529428D01*
X162903476Y-102624666D01*
X162951095Y-102719904D01*
X154766380Y-109687857D02*
X154290190Y-110021190D01*
X154766380Y-110259285D02*
X153766380Y-110259285D01*
X153766380Y-109878333D01*
X153814000Y-109783095D01*
X153861619Y-109735476D01*
X153956857Y-109687857D01*
X154099714Y-109687857D01*
X154194952Y-109735476D01*
X154242571Y-109783095D01*
X154290190Y-109878333D01*
X154290190Y-110259285D01*
X154766380Y-108735476D02*
X154766380Y-109306904D01*
X154766380Y-109021190D02*
X153766380Y-109021190D01*
X153909238Y-109116428D01*
X154004476Y-109211666D01*
X154052095Y-109306904D01*
X153766380Y-107878333D02*
X153766380Y-108068809D01*
X153814000Y-108164047D01*
X153861619Y-108211666D01*
X154004476Y-108306904D01*
X154194952Y-108354523D01*
X154575904Y-108354523D01*
X154671142Y-108306904D01*
X154718761Y-108259285D01*
X154766380Y-108164047D01*
X154766380Y-107973571D01*
X154718761Y-107878333D01*
X154671142Y-107830714D01*
X154575904Y-107783095D01*
X154337809Y-107783095D01*
X154242571Y-107830714D01*
X154194952Y-107878333D01*
X154147333Y-107973571D01*
X154147333Y-108164047D01*
X154194952Y-108259285D01*
X154242571Y-108306904D01*
X154337809Y-108354523D01*
X150532485Y-94017853D02*
X150633500Y-93445434D01*
X150128424Y-93613792D02*
X150835531Y-92906686D01*
X151104905Y-93176060D01*
X151138577Y-93277075D01*
X151138577Y-93344418D01*
X151104905Y-93445434D01*
X151003890Y-93546449D01*
X150902874Y-93580121D01*
X150835531Y-93580121D01*
X150734516Y-93546449D01*
X150465142Y-93277075D01*
X151205920Y-94691289D02*
X150801859Y-94287228D01*
X151003890Y-94489258D02*
X151710997Y-93782151D01*
X151542638Y-93815823D01*
X151407951Y-93815823D01*
X151306936Y-93782151D01*
X152552790Y-94623945D02*
X152216073Y-94287228D01*
X151845684Y-94590273D01*
X151913027Y-94590273D01*
X152014042Y-94623945D01*
X152182401Y-94792304D01*
X152216073Y-94893319D01*
X152216073Y-94960663D01*
X152182401Y-95061678D01*
X152014042Y-95230037D01*
X151913027Y-95263708D01*
X151845684Y-95263708D01*
X151744668Y-95230037D01*
X151576310Y-95061678D01*
X151542638Y-94960663D01*
X151542638Y-94893319D01*
X151765288Y-92785051D02*
X151866303Y-92212632D01*
X151361227Y-92380990D02*
X152068334Y-91673884D01*
X152337708Y-91943258D01*
X152371380Y-92044273D01*
X152371380Y-92111616D01*
X152337708Y-92212632D01*
X152236693Y-92313647D01*
X152135677Y-92347319D01*
X152068334Y-92347319D01*
X151967319Y-92313647D01*
X151697945Y-92044273D01*
X152438723Y-93458487D02*
X152034662Y-93054426D01*
X152236693Y-93256456D02*
X152943800Y-92549349D01*
X152775441Y-92583021D01*
X152640754Y-92583021D01*
X152539739Y-92549349D01*
X153516219Y-93593174D02*
X153044815Y-94064578D01*
X153617235Y-93155441D02*
X152943800Y-93492158D01*
X153381532Y-93929891D01*
X156484580Y-90127057D02*
X156008390Y-90460390D01*
X156484580Y-90698485D02*
X155484580Y-90698485D01*
X155484580Y-90317533D01*
X155532200Y-90222295D01*
X155579819Y-90174676D01*
X155675057Y-90127057D01*
X155817914Y-90127057D01*
X155913152Y-90174676D01*
X155960771Y-90222295D01*
X156008390Y-90317533D01*
X156008390Y-90698485D01*
X156484580Y-89174676D02*
X156484580Y-89746104D01*
X156484580Y-89460390D02*
X155484580Y-89460390D01*
X155627438Y-89555628D01*
X155722676Y-89650866D01*
X155770295Y-89746104D01*
X155484580Y-88841342D02*
X155484580Y-88222295D01*
X155865533Y-88555628D01*
X155865533Y-88412771D01*
X155913152Y-88317533D01*
X155960771Y-88269914D01*
X156056009Y-88222295D01*
X156294104Y-88222295D01*
X156389342Y-88269914D01*
X156436961Y-88317533D01*
X156484580Y-88412771D01*
X156484580Y-88698485D01*
X156436961Y-88793723D01*
X156389342Y-88841342D01*
X158033980Y-90127057D02*
X157557790Y-90460390D01*
X158033980Y-90698485D02*
X157033980Y-90698485D01*
X157033980Y-90317533D01*
X157081600Y-90222295D01*
X157129219Y-90174676D01*
X157224457Y-90127057D01*
X157367314Y-90127057D01*
X157462552Y-90174676D01*
X157510171Y-90222295D01*
X157557790Y-90317533D01*
X157557790Y-90698485D01*
X158033980Y-89174676D02*
X158033980Y-89746104D01*
X158033980Y-89460390D02*
X157033980Y-89460390D01*
X157176838Y-89555628D01*
X157272076Y-89650866D01*
X157319695Y-89746104D01*
X157129219Y-88793723D02*
X157081600Y-88746104D01*
X157033980Y-88650866D01*
X157033980Y-88412771D01*
X157081600Y-88317533D01*
X157129219Y-88269914D01*
X157224457Y-88222295D01*
X157319695Y-88222295D01*
X157462552Y-88269914D01*
X158033980Y-88841342D01*
X158033980Y-88222295D01*
X159557980Y-90166057D02*
X159081790Y-90499390D01*
X159557980Y-90737485D02*
X158557980Y-90737485D01*
X158557980Y-90356533D01*
X158605600Y-90261295D01*
X158653219Y-90213676D01*
X158748457Y-90166057D01*
X158891314Y-90166057D01*
X158986552Y-90213676D01*
X159034171Y-90261295D01*
X159081790Y-90356533D01*
X159081790Y-90737485D01*
X159557980Y-89213676D02*
X159557980Y-89785104D01*
X159557980Y-89499390D02*
X158557980Y-89499390D01*
X158700838Y-89594628D01*
X158796076Y-89689866D01*
X158843695Y-89785104D01*
X159557980Y-88261295D02*
X159557980Y-88832723D01*
X159557980Y-88547009D02*
X158557980Y-88547009D01*
X158700838Y-88642247D01*
X158796076Y-88737485D01*
X158843695Y-88832723D01*
X161107380Y-90166057D02*
X160631190Y-90499390D01*
X161107380Y-90737485D02*
X160107380Y-90737485D01*
X160107380Y-90356533D01*
X160155000Y-90261295D01*
X160202619Y-90213676D01*
X160297857Y-90166057D01*
X160440714Y-90166057D01*
X160535952Y-90213676D01*
X160583571Y-90261295D01*
X160631190Y-90356533D01*
X160631190Y-90737485D01*
X161107380Y-89213676D02*
X161107380Y-89785104D01*
X161107380Y-89499390D02*
X160107380Y-89499390D01*
X160250238Y-89594628D01*
X160345476Y-89689866D01*
X160393095Y-89785104D01*
X160107380Y-88594628D02*
X160107380Y-88499390D01*
X160155000Y-88404152D01*
X160202619Y-88356533D01*
X160297857Y-88308914D01*
X160488333Y-88261295D01*
X160726428Y-88261295D01*
X160916904Y-88308914D01*
X161012142Y-88356533D01*
X161059761Y-88404152D01*
X161107380Y-88499390D01*
X161107380Y-88594628D01*
X161059761Y-88689866D01*
X161012142Y-88737485D01*
X160916904Y-88785104D01*
X160726428Y-88832723D01*
X160488333Y-88832723D01*
X160297857Y-88785104D01*
X160202619Y-88737485D01*
X160155000Y-88689866D01*
X160107380Y-88594628D01*
X162710380Y-90197866D02*
X162234190Y-90531200D01*
X162710380Y-90769295D02*
X161710380Y-90769295D01*
X161710380Y-90388342D01*
X161758000Y-90293104D01*
X161805619Y-90245485D01*
X161900857Y-90197866D01*
X162043714Y-90197866D01*
X162138952Y-90245485D01*
X162186571Y-90293104D01*
X162234190Y-90388342D01*
X162234190Y-90769295D01*
X162710380Y-89721676D02*
X162710380Y-89531200D01*
X162662761Y-89435961D01*
X162615142Y-89388342D01*
X162472285Y-89293104D01*
X162281809Y-89245485D01*
X161900857Y-89245485D01*
X161805619Y-89293104D01*
X161758000Y-89340723D01*
X161710380Y-89435961D01*
X161710380Y-89626438D01*
X161758000Y-89721676D01*
X161805619Y-89769295D01*
X161900857Y-89816914D01*
X162138952Y-89816914D01*
X162234190Y-89769295D01*
X162281809Y-89721676D01*
X162329428Y-89626438D01*
X162329428Y-89435961D01*
X162281809Y-89340723D01*
X162234190Y-89293104D01*
X162138952Y-89245485D01*
X164234380Y-90197866D02*
X163758190Y-90531200D01*
X164234380Y-90769295D02*
X163234380Y-90769295D01*
X163234380Y-90388342D01*
X163282000Y-90293104D01*
X163329619Y-90245485D01*
X163424857Y-90197866D01*
X163567714Y-90197866D01*
X163662952Y-90245485D01*
X163710571Y-90293104D01*
X163758190Y-90388342D01*
X163758190Y-90769295D01*
X163662952Y-89626438D02*
X163615333Y-89721676D01*
X163567714Y-89769295D01*
X163472476Y-89816914D01*
X163424857Y-89816914D01*
X163329619Y-89769295D01*
X163282000Y-89721676D01*
X163234380Y-89626438D01*
X163234380Y-89435961D01*
X163282000Y-89340723D01*
X163329619Y-89293104D01*
X163424857Y-89245485D01*
X163472476Y-89245485D01*
X163567714Y-89293104D01*
X163615333Y-89340723D01*
X163662952Y-89435961D01*
X163662952Y-89626438D01*
X163710571Y-89721676D01*
X163758190Y-89769295D01*
X163853428Y-89816914D01*
X164043904Y-89816914D01*
X164139142Y-89769295D01*
X164186761Y-89721676D01*
X164234380Y-89626438D01*
X164234380Y-89435961D01*
X164186761Y-89340723D01*
X164139142Y-89293104D01*
X164043904Y-89245485D01*
X163853428Y-89245485D01*
X163758190Y-89293104D01*
X163710571Y-89340723D01*
X163662952Y-89435961D01*
X165670380Y-90181366D02*
X165194190Y-90514700D01*
X165670380Y-90752795D02*
X164670380Y-90752795D01*
X164670380Y-90371842D01*
X164718000Y-90276604D01*
X164765619Y-90228985D01*
X164860857Y-90181366D01*
X165003714Y-90181366D01*
X165098952Y-90228985D01*
X165146571Y-90276604D01*
X165194190Y-90371842D01*
X165194190Y-90752795D01*
X164670380Y-89848033D02*
X164670380Y-89181366D01*
X165670380Y-89609938D01*
X158973333Y-129182380D02*
X158640000Y-128706190D01*
X158401904Y-129182380D02*
X158401904Y-128182380D01*
X158782857Y-128182380D01*
X158878095Y-128230000D01*
X158925714Y-128277619D01*
X158973333Y-128372857D01*
X158973333Y-128515714D01*
X158925714Y-128610952D01*
X158878095Y-128658571D01*
X158782857Y-128706190D01*
X158401904Y-128706190D01*
X159830476Y-128515714D02*
X159830476Y-129182380D01*
X159592380Y-128134761D02*
X159354285Y-128849047D01*
X159973333Y-128849047D01*
X158973333Y-127531380D02*
X158640000Y-127055190D01*
X158401904Y-127531380D02*
X158401904Y-126531380D01*
X158782857Y-126531380D01*
X158878095Y-126579000D01*
X158925714Y-126626619D01*
X158973333Y-126721857D01*
X158973333Y-126864714D01*
X158925714Y-126959952D01*
X158878095Y-127007571D01*
X158782857Y-127055190D01*
X158401904Y-127055190D01*
X159306666Y-126531380D02*
X159925714Y-126531380D01*
X159592380Y-126912333D01*
X159735238Y-126912333D01*
X159830476Y-126959952D01*
X159878095Y-127007571D01*
X159925714Y-127102809D01*
X159925714Y-127340904D01*
X159878095Y-127436142D01*
X159830476Y-127483761D01*
X159735238Y-127531380D01*
X159449523Y-127531380D01*
X159354285Y-127483761D01*
X159306666Y-127436142D01*
X109125880Y-121625833D02*
X109840166Y-121625833D01*
X109983023Y-121673452D01*
X110078261Y-121768690D01*
X110125880Y-121911547D01*
X110125880Y-122006785D01*
X110125880Y-121149642D02*
X109125880Y-121149642D01*
X109125880Y-120768690D01*
X109173500Y-120673452D01*
X109221119Y-120625833D01*
X109316357Y-120578214D01*
X109459214Y-120578214D01*
X109554452Y-120625833D01*
X109602071Y-120673452D01*
X109649690Y-120768690D01*
X109649690Y-121149642D01*
X110125880Y-119625833D02*
X110125880Y-120197261D01*
X110125880Y-119911547D02*
X109125880Y-119911547D01*
X109268738Y-120006785D01*
X109363976Y-120102023D01*
X109411595Y-120197261D01*
X104704666Y-104391380D02*
X104704666Y-105105666D01*
X104657047Y-105248523D01*
X104561809Y-105343761D01*
X104418952Y-105391380D01*
X104323714Y-105391380D01*
X105228476Y-105391380D02*
X105418952Y-105391380D01*
X105514190Y-105343761D01*
X105561809Y-105296142D01*
X105657047Y-105153285D01*
X105704666Y-104962809D01*
X105704666Y-104581857D01*
X105657047Y-104486619D01*
X105609428Y-104439000D01*
X105514190Y-104391380D01*
X105323714Y-104391380D01*
X105228476Y-104439000D01*
X105180857Y-104486619D01*
X105133238Y-104581857D01*
X105133238Y-104819952D01*
X105180857Y-104915190D01*
X105228476Y-104962809D01*
X105323714Y-105010428D01*
X105514190Y-105010428D01*
X105609428Y-104962809D01*
X105657047Y-104915190D01*
X105704666Y-104819952D01*
X90226666Y-117387380D02*
X90226666Y-118101666D01*
X90179047Y-118244523D01*
X90083809Y-118339761D01*
X89940952Y-118387380D01*
X89845714Y-118387380D01*
X90845714Y-117815952D02*
X90750476Y-117768333D01*
X90702857Y-117720714D01*
X90655238Y-117625476D01*
X90655238Y-117577857D01*
X90702857Y-117482619D01*
X90750476Y-117435000D01*
X90845714Y-117387380D01*
X91036190Y-117387380D01*
X91131428Y-117435000D01*
X91179047Y-117482619D01*
X91226666Y-117577857D01*
X91226666Y-117625476D01*
X91179047Y-117720714D01*
X91131428Y-117768333D01*
X91036190Y-117815952D01*
X90845714Y-117815952D01*
X90750476Y-117863571D01*
X90702857Y-117911190D01*
X90655238Y-118006428D01*
X90655238Y-118196904D01*
X90702857Y-118292142D01*
X90750476Y-118339761D01*
X90845714Y-118387380D01*
X91036190Y-118387380D01*
X91131428Y-118339761D01*
X91179047Y-118292142D01*
X91226666Y-118196904D01*
X91226666Y-118006428D01*
X91179047Y-117911190D01*
X91131428Y-117863571D01*
X91036190Y-117815952D01*
X100918380Y-121308285D02*
X99918380Y-121308285D01*
X99918380Y-121070190D01*
X99966000Y-120927333D01*
X100061238Y-120832095D01*
X100156476Y-120784476D01*
X100346952Y-120736857D01*
X100489809Y-120736857D01*
X100680285Y-120784476D01*
X100775523Y-120832095D01*
X100870761Y-120927333D01*
X100918380Y-121070190D01*
X100918380Y-121308285D01*
X100918380Y-119784476D02*
X100918380Y-120355904D01*
X100918380Y-120070190D02*
X99918380Y-120070190D01*
X100061238Y-120165428D01*
X100156476Y-120260666D01*
X100204095Y-120355904D01*
X99918380Y-119451142D02*
X99918380Y-118784476D01*
X100918380Y-119213047D01*
X85853142Y-120705142D02*
X85805523Y-120752761D01*
X85662666Y-120800380D01*
X85567428Y-120800380D01*
X85424571Y-120752761D01*
X85329333Y-120657523D01*
X85281714Y-120562285D01*
X85234095Y-120371809D01*
X85234095Y-120228952D01*
X85281714Y-120038476D01*
X85329333Y-119943238D01*
X85424571Y-119848000D01*
X85567428Y-119800380D01*
X85662666Y-119800380D01*
X85805523Y-119848000D01*
X85853142Y-119895619D01*
X86805523Y-120800380D02*
X86234095Y-120800380D01*
X86519809Y-120800380D02*
X86519809Y-119800380D01*
X86424571Y-119943238D01*
X86329333Y-120038476D01*
X86234095Y-120086095D01*
X87281714Y-120800380D02*
X87472190Y-120800380D01*
X87567428Y-120752761D01*
X87615047Y-120705142D01*
X87710285Y-120562285D01*
X87757904Y-120371809D01*
X87757904Y-119990857D01*
X87710285Y-119895619D01*
X87662666Y-119848000D01*
X87567428Y-119800380D01*
X87376952Y-119800380D01*
X87281714Y-119848000D01*
X87234095Y-119895619D01*
X87186476Y-119990857D01*
X87186476Y-120228952D01*
X87234095Y-120324190D01*
X87281714Y-120371809D01*
X87376952Y-120419428D01*
X87567428Y-120419428D01*
X87662666Y-120371809D01*
X87710285Y-120324190D01*
X87757904Y-120228952D01*
X78859142Y-117451142D02*
X78811523Y-117498761D01*
X78668666Y-117546380D01*
X78573428Y-117546380D01*
X78430571Y-117498761D01*
X78335333Y-117403523D01*
X78287714Y-117308285D01*
X78240095Y-117117809D01*
X78240095Y-116974952D01*
X78287714Y-116784476D01*
X78335333Y-116689238D01*
X78430571Y-116594000D01*
X78573428Y-116546380D01*
X78668666Y-116546380D01*
X78811523Y-116594000D01*
X78859142Y-116641619D01*
X79811523Y-117546380D02*
X79240095Y-117546380D01*
X79525809Y-117546380D02*
X79525809Y-116546380D01*
X79430571Y-116689238D01*
X79335333Y-116784476D01*
X79240095Y-116832095D01*
X80382952Y-116974952D02*
X80287714Y-116927333D01*
X80240095Y-116879714D01*
X80192476Y-116784476D01*
X80192476Y-116736857D01*
X80240095Y-116641619D01*
X80287714Y-116594000D01*
X80382952Y-116546380D01*
X80573428Y-116546380D01*
X80668666Y-116594000D01*
X80716285Y-116641619D01*
X80763904Y-116736857D01*
X80763904Y-116784476D01*
X80716285Y-116879714D01*
X80668666Y-116927333D01*
X80573428Y-116974952D01*
X80382952Y-116974952D01*
X80287714Y-117022571D01*
X80240095Y-117070190D01*
X80192476Y-117165428D01*
X80192476Y-117355904D01*
X80240095Y-117451142D01*
X80287714Y-117498761D01*
X80382952Y-117546380D01*
X80573428Y-117546380D01*
X80668666Y-117498761D01*
X80716285Y-117451142D01*
X80763904Y-117355904D01*
X80763904Y-117165428D01*
X80716285Y-117070190D01*
X80668666Y-117022571D01*
X80573428Y-116974952D01*
X79113142Y-122023142D02*
X79065523Y-122070761D01*
X78922666Y-122118380D01*
X78827428Y-122118380D01*
X78684571Y-122070761D01*
X78589333Y-121975523D01*
X78541714Y-121880285D01*
X78494095Y-121689809D01*
X78494095Y-121546952D01*
X78541714Y-121356476D01*
X78589333Y-121261238D01*
X78684571Y-121166000D01*
X78827428Y-121118380D01*
X78922666Y-121118380D01*
X79065523Y-121166000D01*
X79113142Y-121213619D01*
X80065523Y-122118380D02*
X79494095Y-122118380D01*
X79779809Y-122118380D02*
X79779809Y-121118380D01*
X79684571Y-121261238D01*
X79589333Y-121356476D01*
X79494095Y-121404095D01*
X80398857Y-121118380D02*
X81065523Y-121118380D01*
X80636952Y-122118380D01*
X83567142Y-116768142D02*
X83519523Y-116815761D01*
X83376666Y-116863380D01*
X83281428Y-116863380D01*
X83138571Y-116815761D01*
X83043333Y-116720523D01*
X82995714Y-116625285D01*
X82948095Y-116434809D01*
X82948095Y-116291952D01*
X82995714Y-116101476D01*
X83043333Y-116006238D01*
X83138571Y-115911000D01*
X83281428Y-115863380D01*
X83376666Y-115863380D01*
X83519523Y-115911000D01*
X83567142Y-115958619D01*
X84519523Y-116863380D02*
X83948095Y-116863380D01*
X84233809Y-116863380D02*
X84233809Y-115863380D01*
X84138571Y-116006238D01*
X84043333Y-116101476D01*
X83948095Y-116149095D01*
X85376666Y-115863380D02*
X85186190Y-115863380D01*
X85090952Y-115911000D01*
X85043333Y-115958619D01*
X84948095Y-116101476D01*
X84900476Y-116291952D01*
X84900476Y-116672904D01*
X84948095Y-116768142D01*
X84995714Y-116815761D01*
X85090952Y-116863380D01*
X85281428Y-116863380D01*
X85376666Y-116815761D01*
X85424285Y-116768142D01*
X85471904Y-116672904D01*
X85471904Y-116434809D01*
X85424285Y-116339571D01*
X85376666Y-116291952D01*
X85281428Y-116244333D01*
X85090952Y-116244333D01*
X84995714Y-116291952D01*
X84948095Y-116339571D01*
X84900476Y-116434809D01*
X106275142Y-118752857D02*
X106322761Y-118800476D01*
X106370380Y-118943333D01*
X106370380Y-119038571D01*
X106322761Y-119181428D01*
X106227523Y-119276666D01*
X106132285Y-119324285D01*
X105941809Y-119371904D01*
X105798952Y-119371904D01*
X105608476Y-119324285D01*
X105513238Y-119276666D01*
X105418000Y-119181428D01*
X105370380Y-119038571D01*
X105370380Y-118943333D01*
X105418000Y-118800476D01*
X105465619Y-118752857D01*
X106370380Y-117800476D02*
X106370380Y-118371904D01*
X106370380Y-118086190D02*
X105370380Y-118086190D01*
X105513238Y-118181428D01*
X105608476Y-118276666D01*
X105656095Y-118371904D01*
X105370380Y-116895714D02*
X105370380Y-117371904D01*
X105846571Y-117419523D01*
X105798952Y-117371904D01*
X105751333Y-117276666D01*
X105751333Y-117038571D01*
X105798952Y-116943333D01*
X105846571Y-116895714D01*
X105941809Y-116848095D01*
X106179904Y-116848095D01*
X106275142Y-116895714D01*
X106322761Y-116943333D01*
X106370380Y-117038571D01*
X106370380Y-117276666D01*
X106322761Y-117371904D01*
X106275142Y-117419523D01*
X112253142Y-117117357D02*
X112300761Y-117164976D01*
X112348380Y-117307833D01*
X112348380Y-117403071D01*
X112300761Y-117545928D01*
X112205523Y-117641166D01*
X112110285Y-117688785D01*
X111919809Y-117736404D01*
X111776952Y-117736404D01*
X111586476Y-117688785D01*
X111491238Y-117641166D01*
X111396000Y-117545928D01*
X111348380Y-117403071D01*
X111348380Y-117307833D01*
X111396000Y-117164976D01*
X111443619Y-117117357D01*
X112348380Y-116164976D02*
X112348380Y-116736404D01*
X112348380Y-116450690D02*
X111348380Y-116450690D01*
X111491238Y-116545928D01*
X111586476Y-116641166D01*
X111634095Y-116736404D01*
X111681714Y-115307833D02*
X112348380Y-115307833D01*
X111300761Y-115545928D02*
X112015047Y-115784023D01*
X112015047Y-115164976D01*
X90917142Y-100670857D02*
X90964761Y-100718476D01*
X91012380Y-100861333D01*
X91012380Y-100956571D01*
X90964761Y-101099428D01*
X90869523Y-101194666D01*
X90774285Y-101242285D01*
X90583809Y-101289904D01*
X90440952Y-101289904D01*
X90250476Y-101242285D01*
X90155238Y-101194666D01*
X90060000Y-101099428D01*
X90012380Y-100956571D01*
X90012380Y-100861333D01*
X90060000Y-100718476D01*
X90107619Y-100670857D01*
X91012380Y-99718476D02*
X91012380Y-100289904D01*
X91012380Y-100004190D02*
X90012380Y-100004190D01*
X90155238Y-100099428D01*
X90250476Y-100194666D01*
X90298095Y-100289904D01*
X90012380Y-99385142D02*
X90012380Y-98766095D01*
X90393333Y-99099428D01*
X90393333Y-98956571D01*
X90440952Y-98861333D01*
X90488571Y-98813714D01*
X90583809Y-98766095D01*
X90821904Y-98766095D01*
X90917142Y-98813714D01*
X90964761Y-98861333D01*
X91012380Y-98956571D01*
X91012380Y-99242285D01*
X90964761Y-99337523D01*
X90917142Y-99385142D01*
X81646142Y-100289857D02*
X81693761Y-100337476D01*
X81741380Y-100480333D01*
X81741380Y-100575571D01*
X81693761Y-100718428D01*
X81598523Y-100813666D01*
X81503285Y-100861285D01*
X81312809Y-100908904D01*
X81169952Y-100908904D01*
X80979476Y-100861285D01*
X80884238Y-100813666D01*
X80789000Y-100718428D01*
X80741380Y-100575571D01*
X80741380Y-100480333D01*
X80789000Y-100337476D01*
X80836619Y-100289857D01*
X81741380Y-99337476D02*
X81741380Y-99908904D01*
X81741380Y-99623190D02*
X80741380Y-99623190D01*
X80884238Y-99718428D01*
X80979476Y-99813666D01*
X81027095Y-99908904D01*
X80836619Y-98956523D02*
X80789000Y-98908904D01*
X80741380Y-98813666D01*
X80741380Y-98575571D01*
X80789000Y-98480333D01*
X80836619Y-98432714D01*
X80931857Y-98385095D01*
X81027095Y-98385095D01*
X81169952Y-98432714D01*
X81741380Y-99004142D01*
X81741380Y-98385095D01*
X79868142Y-100289857D02*
X79915761Y-100337476D01*
X79963380Y-100480333D01*
X79963380Y-100575571D01*
X79915761Y-100718428D01*
X79820523Y-100813666D01*
X79725285Y-100861285D01*
X79534809Y-100908904D01*
X79391952Y-100908904D01*
X79201476Y-100861285D01*
X79106238Y-100813666D01*
X79011000Y-100718428D01*
X78963380Y-100575571D01*
X78963380Y-100480333D01*
X79011000Y-100337476D01*
X79058619Y-100289857D01*
X79963380Y-99337476D02*
X79963380Y-99908904D01*
X79963380Y-99623190D02*
X78963380Y-99623190D01*
X79106238Y-99718428D01*
X79201476Y-99813666D01*
X79249095Y-99908904D01*
X79963380Y-98385095D02*
X79963380Y-98956523D01*
X79963380Y-98670809D02*
X78963380Y-98670809D01*
X79106238Y-98766047D01*
X79201476Y-98861285D01*
X79249095Y-98956523D01*
X89139142Y-100670857D02*
X89186761Y-100718476D01*
X89234380Y-100861333D01*
X89234380Y-100956571D01*
X89186761Y-101099428D01*
X89091523Y-101194666D01*
X88996285Y-101242285D01*
X88805809Y-101289904D01*
X88662952Y-101289904D01*
X88472476Y-101242285D01*
X88377238Y-101194666D01*
X88282000Y-101099428D01*
X88234380Y-100956571D01*
X88234380Y-100861333D01*
X88282000Y-100718476D01*
X88329619Y-100670857D01*
X89234380Y-99718476D02*
X89234380Y-100289904D01*
X89234380Y-100004190D02*
X88234380Y-100004190D01*
X88377238Y-100099428D01*
X88472476Y-100194666D01*
X88520095Y-100289904D01*
X88234380Y-99099428D02*
X88234380Y-99004190D01*
X88282000Y-98908952D01*
X88329619Y-98861333D01*
X88424857Y-98813714D01*
X88615333Y-98766095D01*
X88853428Y-98766095D01*
X89043904Y-98813714D01*
X89139142Y-98861333D01*
X89186761Y-98908952D01*
X89234380Y-99004190D01*
X89234380Y-99099428D01*
X89186761Y-99194666D01*
X89139142Y-99242285D01*
X89043904Y-99289904D01*
X88853428Y-99337523D01*
X88615333Y-99337523D01*
X88424857Y-99289904D01*
X88329619Y-99242285D01*
X88282000Y-99194666D01*
X88234380Y-99099428D01*
X97013142Y-101337666D02*
X97060761Y-101385285D01*
X97108380Y-101528142D01*
X97108380Y-101623380D01*
X97060761Y-101766238D01*
X96965523Y-101861476D01*
X96870285Y-101909095D01*
X96679809Y-101956714D01*
X96536952Y-101956714D01*
X96346476Y-101909095D01*
X96251238Y-101861476D01*
X96156000Y-101766238D01*
X96108380Y-101623380D01*
X96108380Y-101528142D01*
X96156000Y-101385285D01*
X96203619Y-101337666D01*
X97108380Y-100861476D02*
X97108380Y-100671000D01*
X97060761Y-100575761D01*
X97013142Y-100528142D01*
X96870285Y-100432904D01*
X96679809Y-100385285D01*
X96298857Y-100385285D01*
X96203619Y-100432904D01*
X96156000Y-100480523D01*
X96108380Y-100575761D01*
X96108380Y-100766238D01*
X96156000Y-100861476D01*
X96203619Y-100909095D01*
X96298857Y-100956714D01*
X96536952Y-100956714D01*
X96632190Y-100909095D01*
X96679809Y-100861476D01*
X96727428Y-100766238D01*
X96727428Y-100575761D01*
X96679809Y-100480523D01*
X96632190Y-100432904D01*
X96536952Y-100385285D01*
X87488142Y-99813666D02*
X87535761Y-99861285D01*
X87583380Y-100004142D01*
X87583380Y-100099380D01*
X87535761Y-100242238D01*
X87440523Y-100337476D01*
X87345285Y-100385095D01*
X87154809Y-100432714D01*
X87011952Y-100432714D01*
X86821476Y-100385095D01*
X86726238Y-100337476D01*
X86631000Y-100242238D01*
X86583380Y-100099380D01*
X86583380Y-100004142D01*
X86631000Y-99861285D01*
X86678619Y-99813666D01*
X87011952Y-99242238D02*
X86964333Y-99337476D01*
X86916714Y-99385095D01*
X86821476Y-99432714D01*
X86773857Y-99432714D01*
X86678619Y-99385095D01*
X86631000Y-99337476D01*
X86583380Y-99242238D01*
X86583380Y-99051761D01*
X86631000Y-98956523D01*
X86678619Y-98908904D01*
X86773857Y-98861285D01*
X86821476Y-98861285D01*
X86916714Y-98908904D01*
X86964333Y-98956523D01*
X87011952Y-99051761D01*
X87011952Y-99242238D01*
X87059571Y-99337476D01*
X87107190Y-99385095D01*
X87202428Y-99432714D01*
X87392904Y-99432714D01*
X87488142Y-99385095D01*
X87535761Y-99337476D01*
X87583380Y-99242238D01*
X87583380Y-99051761D01*
X87535761Y-98956523D01*
X87488142Y-98908904D01*
X87392904Y-98861285D01*
X87202428Y-98861285D01*
X87107190Y-98908904D01*
X87059571Y-98956523D01*
X87011952Y-99051761D01*
X98394333Y-103941142D02*
X98346714Y-103988761D01*
X98203857Y-104036380D01*
X98108619Y-104036380D01*
X97965761Y-103988761D01*
X97870523Y-103893523D01*
X97822904Y-103798285D01*
X97775285Y-103607809D01*
X97775285Y-103464952D01*
X97822904Y-103274476D01*
X97870523Y-103179238D01*
X97965761Y-103084000D01*
X98108619Y-103036380D01*
X98203857Y-103036380D01*
X98346714Y-103084000D01*
X98394333Y-103131619D01*
X98727666Y-103036380D02*
X99394333Y-103036380D01*
X98965761Y-104036380D01*
X159091333Y-109949142D02*
X159043714Y-109996761D01*
X158900857Y-110044380D01*
X158805619Y-110044380D01*
X158662761Y-109996761D01*
X158567523Y-109901523D01*
X158519904Y-109806285D01*
X158472285Y-109615809D01*
X158472285Y-109472952D01*
X158519904Y-109282476D01*
X158567523Y-109187238D01*
X158662761Y-109092000D01*
X158805619Y-109044380D01*
X158900857Y-109044380D01*
X159043714Y-109092000D01*
X159091333Y-109139619D01*
X159472285Y-109139619D02*
X159519904Y-109092000D01*
X159615142Y-109044380D01*
X159853238Y-109044380D01*
X159948476Y-109092000D01*
X159996095Y-109139619D01*
X160043714Y-109234857D01*
X160043714Y-109330095D01*
X159996095Y-109472952D01*
X159424666Y-110044380D01*
X160043714Y-110044380D01*
X159091333Y-108552142D02*
X159043714Y-108599761D01*
X158900857Y-108647380D01*
X158805619Y-108647380D01*
X158662761Y-108599761D01*
X158567523Y-108504523D01*
X158519904Y-108409285D01*
X158472285Y-108218809D01*
X158472285Y-108075952D01*
X158519904Y-107885476D01*
X158567523Y-107790238D01*
X158662761Y-107695000D01*
X158805619Y-107647380D01*
X158900857Y-107647380D01*
X159043714Y-107695000D01*
X159091333Y-107742619D01*
X160043714Y-108647380D02*
X159472285Y-108647380D01*
X159758000Y-108647380D02*
X159758000Y-107647380D01*
X159662761Y-107790238D01*
X159567523Y-107885476D01*
X159472285Y-107933095D01*
M02*
